<svg width="512" height="512" viewBox="0 0 512 512" fill="none" xmlns="http://www.w3.org/2000/svg">
<path d="M256 0C205.368 0 155.873 15.0141 113.774 43.1438C71.6751 71.2734 38.863 111.255 19.487 158.033C0.110922 204.811 -4.95873 256.284 4.91908 305.943C14.7969 355.602 39.1785 401.217 74.9808 437.019C110.783 472.821 156.398 497.203 206.057 507.081C255.716 516.959 307.189 511.889 353.967 492.513C400.745 473.137 440.727 440.325 468.856 398.226C496.986 356.127 512 306.632 512 256C512 222.382 505.378 189.092 492.513 158.033C479.648 126.974 460.791 98.7524 437.019 74.9806C413.248 51.2089 385.026 32.352 353.967 19.4868C322.908 6.62163 289.618 0 256 0ZM256 480.358C211.444 480.358 167.888 467.146 130.841 442.392C93.7941 417.638 64.9194 382.454 47.8685 341.289C30.8176 300.125 26.3563 254.828 35.0488 211.128C43.7413 167.428 65.1971 127.287 96.7031 95.7814C128.209 64.2754 168.35 42.8196 212.05 34.1271C255.75 25.4346 301.046 29.8959 342.211 46.9468C383.375 63.9977 418.559 92.8724 443.314 129.92C468.068 166.967 481.28 210.522 481.28 255.078C481.253 314.809 457.506 372.083 415.261 414.309C373.016 456.535 315.73 480.256 256 480.256V480.358Z" fill="#00A76F"/>
<path d="M256 37.376C212.862 37.376 170.692 50.168 134.824 74.1345C98.9554 98.1009 70.9994 132.165 54.4911 172.02C37.9827 211.875 33.6633 255.73 42.0792 298.039C50.4951 340.349 71.2683 379.213 101.772 409.716C132.275 440.22 171.139 460.993 213.449 469.409C255.758 477.825 299.613 473.505 339.468 456.997C379.323 440.489 413.387 412.533 437.354 376.664C461.32 340.796 474.112 298.626 474.112 255.488C474.031 197.666 451.025 142.236 410.139 101.349C369.253 60.4629 313.822 37.4572 256 37.376Z" fill="#00A76F"/>
<path d="M328.13 111.174C327.82 111.174 327.51 110.864 327.51 110.554C327.51 110.244 327.82 110.244 328.13 110.244H328.44C328.75 110.244 328.75 110.244 328.75 110.554C328.75 110.864 328.44 111.174 328.13 111.174ZM310.462 113.344L309.842 112.724V112.414L310.462 112.104C311.082 112.104 311.082 112.414 311.082 112.724C310.772 113.034 310.772 113.344 310.462 113.344ZM317.591 112.414H316.971V112.104C316.971 111.794 317.901 111.484 319.141 111.484H320.381L320.071 111.794C319.451 112.414 318.211 112.414 317.591 112.414ZM337.428 111.484H336.498C336.498 111.174 336.808 110.864 337.118 110.864L337.738 110.554L338.048 110.864C338.048 111.174 337.738 111.484 337.428 111.484ZM180.592 402.841H180.282L177.802 401.601C177.182 400.981 176.562 400.671 176.253 400.671C176.253 400.671 175.633 400.671 175.323 400.051C174.703 399.431 174.393 399.431 174.083 399.431L172.843 399.741L171.603 400.361L170.053 399.741C167.884 398.501 161.995 393.542 161.995 392.922C161.995 392.612 161.375 391.682 160.755 391.062C158.895 389.203 156.725 382.694 156.725 379.284C156.725 378.354 157.035 377.734 157.345 377.424L157.965 376.804L156.725 377.114L156.415 375.875L156.725 369.985C157.345 361.307 157.345 359.447 158.275 359.447L158.585 358.827L158.275 358.517C157.965 358.207 157.965 357.587 157.965 356.657C157.965 356.038 157.965 355.108 158.275 354.798L158.585 352.938L158.275 350.148L158.585 349.219H158.895L159.515 348.909L158.895 347.049L159.205 346.739C159.515 346.739 159.825 346.119 159.825 345.189V344.259H159.205V343.949C159.205 343.329 159.205 342.71 159.825 342.4L160.445 341.16L160.135 338.68C160.135 336.51 160.445 334.341 161.065 334.341C161.375 334.341 161.685 334.031 161.995 333.411V333.101C161.995 332.481 161.995 332.171 161.685 332.171C161.375 332.171 161.065 332.481 161.065 333.101L160.755 333.411L160.445 333.101C160.445 332.481 160.755 331.551 161.375 330.931L161.685 329.072L161.375 327.212L161.685 325.972C162.305 325.662 162.925 324.732 162.925 323.802C162.925 323.182 163.234 321.633 163.544 321.013C163.544 320.083 163.544 319.463 162.925 319.153L162.615 318.843L163.234 316.673C163.854 315.434 164.164 313.574 164.164 312.644C164.164 311.714 164.474 310.784 164.784 310.784L165.094 310.474L164.784 310.164C164.784 309.544 164.784 309.235 165.094 309.235L165.714 307.995C165.714 307.375 165.714 307.065 165.404 307.065C165.094 307.065 164.784 306.755 164.784 306.445C164.784 306.135 165.094 306.135 165.404 306.135C165.714 306.135 166.954 301.796 166.954 299.316V298.696C166.954 298.076 166.334 296.526 165.404 295.597C163.234 292.807 162.305 290.017 161.685 286.298V284.438C161.685 281.649 162.615 281.029 167.264 279.169C171.293 277.309 171.293 277.309 172.843 272.04C173.773 269.251 174.083 266.461 174.083 266.151V265.531L174.393 264.601C174.703 264.291 175.323 262.432 175.633 260.572C175.633 259.022 176.253 256.542 176.253 255.613L176.872 252.823C176.872 252.203 177.492 250.963 177.802 250.033L178.422 247.864L177.802 245.694L178.422 246.004H179.042C179.352 246.004 179.352 245.694 179.352 243.834C179.352 241.975 179.662 240.425 180.282 239.805C180.902 239.185 181.212 238.255 181.212 237.635V236.395C181.212 234.536 181.522 231.436 182.142 231.126C182.762 231.126 183.691 228.647 183.691 227.097C183.691 226.787 184.001 226.167 184.621 225.547L185.241 225.237H184.311L184.621 224.617V223.067L185.861 221.518L186.481 219.968L186.171 219.038C186.171 218.108 186.481 216.558 187.101 214.699L195.78 180.914C196.399 179.674 197.329 176.574 197.949 174.405C198.569 171.925 199.499 169.755 199.809 169.446V169.136C199.809 168.826 199.809 168.516 199.189 168.516H198.569L192.68 170.375L187.411 171.615L185.551 170.685L182.762 171.305C180.282 172.235 176.872 173.785 176.872 174.405H177.182C177.802 174.405 179.352 173.785 181.212 173.165L185.551 172.235L184.621 172.545C184.001 172.855 180.282 174.405 176.562 175.645C172.843 177.194 170.053 178.434 170.053 178.744C170.053 179.054 170.363 179.674 170.983 180.294C171.913 181.224 172.533 183.083 172.533 184.323L172.223 185.563C171.913 185.873 171.913 186.183 171.293 186.183L170.053 185.873C168.814 185.563 168.194 184.943 168.194 184.633H167.264C166.954 184.633 166.644 184.323 166.334 184.013C166.024 183.083 164.784 182.154 163.544 181.534L156.106 175.955C153.626 173.475 150.526 166.346 150.526 162.317C150.526 158.287 152.386 157.047 159.515 153.948C164.784 152.088 168.814 150.538 170.053 150.538C170.363 150.538 170.363 150.538 170.363 150.848V151.158H170.983C171.603 151.158 172.533 151.158 173.463 150.848C174.083 150.848 174.393 150.538 174.393 150.228L173.773 149.918L171.293 150.538L170.983 150.228L174.083 148.989L176.253 148.369L177.492 148.989L177.802 149.299V148.679C177.802 148.059 178.422 147.749 179.042 147.439H179.972L179.352 148.679L179.972 148.369C180.592 148.369 181.522 148.059 182.142 147.749L183.071 147.439H182.452C181.832 147.439 181.522 147.439 181.522 147.129C181.522 146.819 182.762 146.199 184.621 145.579C185.861 144.959 186.791 144.959 187.411 144.959C187.721 144.959 188.031 144.959 188.341 145.269L188.961 145.579L191.13 144.959C192.37 144.649 193.61 144.649 194.23 144.649L195.16 144.959L194.85 144.339C194.85 144.029 195.16 144.029 195.47 143.719L196.399 143.409L197.019 144.029C197.329 144.029 197.639 143.719 197.949 143.409C198.259 142.48 199.189 142.17 200.739 141.86C201.979 141.86 203.218 141.55 203.528 141.24C203.838 140.93 205.078 140.31 206.318 140.31C207.868 140 208.798 139.69 208.798 139.38C208.798 139.07 209.418 139.07 210.037 139.07H210.657C211.277 139.07 211.587 139.07 211.897 138.76C211.897 138.45 212.827 138.14 214.067 137.83L215.617 137.52C215.927 137.52 215.927 137.52 215.927 137.83C215.927 138.14 216.237 138.14 216.237 138.14H216.546L216.856 137.83V137.52C216.856 136.9 217.166 136.9 218.096 136.59C219.026 136.59 219.646 136.9 219.646 137.21C219.956 137.21 220.266 136.9 220.576 136.59C221.506 135.661 223.365 134.731 227.705 133.491C231.114 132.561 234.214 131.941 234.834 131.941H236.693C239.793 131.941 242.273 131.631 242.273 131.011V130.701H243.202C243.822 130.701 244.442 130.701 244.442 130.391C244.442 130.081 245.062 129.771 245.992 129.771H246.922C247.542 129.771 247.852 129.462 247.852 129.152V128.842C247.852 127.912 249.402 127.292 253.121 126.362C254.671 126.052 257.77 125.432 259.63 124.812C261.8 124.192 264.279 123.572 265.519 123.572C266.759 123.262 267.689 122.952 267.999 122.643C268.309 122.333 273.888 120.783 279.467 119.853L281.637 119.543C281.947 119.543 282.257 119.543 282.257 119.853C282.257 120.163 282.257 120.473 282.567 120.473C282.877 120.473 283.186 119.853 283.186 119.543C283.186 118.923 283.806 118.613 284.116 118.613C284.736 118.613 285.046 118.923 285.356 119.233C285.356 119.543 285.046 119.543 284.736 119.853H284.116L285.666 120.163L287.216 119.853C287.216 119.543 288.456 119.233 289.386 118.923C290.625 118.923 290.935 118.613 290.935 117.993V117.683C290.935 117.373 291.245 117.063 292.485 116.753C293.415 116.753 294.035 117.063 294.035 117.373L294.345 117.683L294.965 117.373C296.205 116.134 303.953 114.894 317.591 113.344C322.241 112.724 325.03 112.724 326.27 112.724C327.2 112.724 327.51 112.724 327.51 113.034C327.51 113.654 327.82 113.964 328.44 113.964C329.06 113.964 329.37 113.654 329.37 113.344V113.034C329.37 112.414 332.159 111.174 333.089 111.174H333.399C333.709 111.484 334.949 111.794 335.879 112.104C337.118 112.414 338.358 112.724 338.358 113.034C338.358 113.034 338.978 113.344 339.908 113.344H343.937C345.177 113.344 346.417 113.654 346.417 113.964V114.274H345.177L346.417 114.894L347.347 114.584C347.967 114.584 348.897 114.584 349.207 115.204C349.826 115.514 350.756 115.514 351.066 115.514L353.236 115.824C354.166 115.824 361.295 121.403 361.295 122.643C361.295 123.262 360.985 123.882 360.675 124.192C360.365 124.502 360.055 124.502 360.055 124.812L361.605 127.602L361.295 127.912L360.365 127.602L359.125 127.292L355.716 126.362L357.885 128.532C357.885 128.842 357.265 128.842 356.026 129.152H354.786L356.645 130.391V130.701L355.406 130.391C354.166 130.081 352.616 130.081 351.686 130.081C350.756 130.081 349.207 130.081 348.277 129.771C347.347 129.771 346.417 129.771 346.107 130.391L345.797 130.701L344.557 130.081L345.177 129.771C345.797 129.771 346.107 129.462 346.107 129.462C346.107 128.842 340.838 128.532 336.498 128.532H333.399C330.299 128.532 329.68 128.842 329.37 129.462L327.51 130.391C326.89 130.391 326.58 130.391 326.58 130.081L327.2 128.842H326.58C325.96 128.842 325.65 129.152 325.65 129.462C325.65 129.771 323.79 130.701 322.241 131.011C321.931 131.011 321.931 131.011 321.931 131.321V131.631L322.551 131.941L323.79 131.631C324.72 131.631 325.96 131.631 325.96 131.941C325.96 132.871 322.241 134.111 319.451 134.111L305.193 135.971L303.643 135.661L302.714 135.041L302.404 135.661C302.404 136.28 301.784 136.59 301.164 136.59C300.544 136.59 298.064 137.21 295.895 138.14C292.485 139.07 289.696 139.38 288.456 139.38H288.146L288.456 139.07L288.766 138.14H288.456C287.836 138.14 285.976 139.07 285.976 139.69C285.976 140.31 285.356 140.31 284.736 140.31C284.116 140.31 283.186 140 282.877 139.69C282.877 139.38 281.947 139.07 281.017 139.07C280.397 139.07 279.467 139.69 279.157 140L278.847 140.62C278.847 140.93 279.157 140.93 279.777 140.93H280.397L275.128 143.099L273.888 142.79L270.168 143.719C268.309 144.649 266.759 145.269 266.139 145.269C265.829 145.269 265.519 145.579 265.519 145.889C265.519 146.199 264.279 146.509 262.73 146.509C261.18 146.509 258.7 147.129 257.46 147.439C251.881 149.299 248.782 149.918 247.852 149.918C247.542 149.918 247.542 149.918 247.542 149.608C247.542 148.989 246.922 148.989 246.302 148.989C245.372 148.989 244.752 149.299 244.752 149.608C244.752 149.918 245.372 150.228 245.682 150.228H246.302L245.992 150.538C245.682 150.848 244.442 151.468 243.512 151.468C242.273 151.468 240.413 152.088 234.524 154.568C233.594 154.878 231.734 155.498 230.804 155.498C228.325 156.118 226.155 157.047 226.155 157.667C226.155 157.977 226.465 158.287 226.775 158.287L229.874 157.357C230.804 156.737 233.284 155.808 235.144 155.498L237.623 155.188H237.933C237.933 155.498 235.764 156.427 232.044 157.357C229.255 158.287 226.775 159.217 226.155 159.217C225.845 159.527 225.225 161.077 224.915 162.936C224.915 164.486 223.985 167.586 223.365 169.755C222.746 171.925 221.506 175.645 220.886 178.434C219.956 180.914 219.026 184.323 218.096 186.183C217.476 187.733 217.166 189.592 217.166 190.212C217.166 190.522 216.856 191.142 216.546 191.142C216.237 191.142 216.237 191.452 216.237 191.762L215.307 196.411C215.307 196.721 214.997 198.271 214.377 199.201C213.447 200.751 212.827 203.54 212.207 206.64C212.207 206.95 212.207 207.57 211.897 207.88V209.43L212.207 209.739L211.897 210.049C211.587 210.049 211.277 210.669 211.277 211.289C211.277 211.909 210.967 212.839 210.657 213.149L210.037 214.389L210.347 214.699C210.657 214.699 210.657 215.009 210.657 215.629V216.558C210.347 218.108 210.347 218.728 210.037 218.728L209.108 218.418C208.488 218.418 208.178 219.968 207.868 222.448C207.558 223.067 207.248 224.307 206.938 224.617C206.008 226.787 204.458 234.226 204.458 235.776C204.458 236.705 204.148 237.635 203.838 237.945C203.528 238.255 203.218 238.255 203.218 238.565H203.838C204.458 238.565 204.768 238.875 204.768 239.185C204.458 239.495 204.148 239.805 203.838 239.805C203.528 239.805 202.909 240.735 202.289 242.285L201.359 246.004C201.049 246.314 200.739 247.864 200.739 249.104C200.429 250.653 200.119 252.823 199.499 254.683L198.879 257.782C199.189 257.782 199.499 257.472 199.809 257.162L200.429 256.852L200.119 258.712L197.949 258.092V259.022L197.019 264.601L195.78 270.18C195.78 270.49 195.78 270.49 196.09 270.49L197.639 267.701V269.251C197.639 269.87 197.639 270.18 198.259 270.18L202.909 268.941C204.768 268.321 207.868 267.701 209.727 267.701C211.277 267.391 212.517 267.391 212.517 267.081C212.517 266.771 212.827 266.461 213.447 266.461L214.067 266.151L214.687 266.461C214.687 266.771 214.997 266.771 215.307 266.771L218.716 266.151C220.886 265.531 223.055 264.911 223.985 264.911L228.945 263.671L236.074 262.122C237.933 262.122 239.793 261.502 240.413 261.192C241.343 260.572 242.583 260.262 243.512 260.262C244.442 260.262 245.062 260.262 245.062 260.572L243.202 261.812L245.062 261.502C258.08 258.712 262.11 257.782 263.349 257.782C263.659 257.782 263.659 257.782 263.659 258.092V258.712L264.279 259.022C264.589 259.022 264.899 258.712 264.899 258.402L265.209 257.782L265.519 258.402L266.139 258.712V258.402C266.139 257.782 268.309 256.852 269.239 256.852L271.098 257.472L275.128 256.852L275.748 257.162L275.128 259.022C275.128 259.332 275.438 259.332 276.058 259.332L273.578 260.882H273.888C273.888 261.192 271.098 262.742 270.168 262.742C269.549 263.051 268.619 263.361 267.999 263.981C267.689 264.291 267.379 264.291 267.379 264.601L269.239 265.531L267.069 267.081L263.969 268.631C263.969 268.941 264.279 269.251 264.589 269.251C265.209 269.561 265.209 269.56 265.209 269.87H264.589C264.279 269.87 263.659 269.87 263.04 269.561L262.42 269.251C261.18 269.251 259.63 270.49 259.63 271.42C259.63 271.73 259.63 271.73 259.32 271.73L258.7 271.11L258.08 271.42C257.77 271.42 256.84 271.42 256.53 271.11L255.601 270.8L254.671 271.42C254.671 271.73 254.981 271.73 255.601 272.04C256.221 272.04 256.53 272.04 256.53 272.35L256.221 272.66L255.911 273.28L257.46 274.21H256.53L254.671 275.14C254.671 275.76 253.741 276.379 252.811 276.689L251.881 276.999C251.571 276.999 251.571 276.689 251.571 276.689V275.76L250.641 276.379C250.021 276.689 249.402 277.309 249.402 277.619C248.782 278.239 245.992 279.169 244.442 279.169L243.202 278.859C242.893 278.859 242.893 278.859 242.893 278.549L243.512 278.239C243.822 277.929 244.132 277.929 244.132 277.619H243.202C242.583 277.619 242.273 277.929 242.273 278.239V279.169C242.273 279.479 241.963 279.789 239.793 280.409C238.863 280.719 238.243 281.029 238.243 281.339C238.243 281.649 238.553 281.959 239.483 281.959L240.723 282.269L239.483 282.888L235.764 283.818C234.524 283.818 232.044 284.438 230.184 285.058C228.635 285.678 225.845 286.608 224.295 286.918L218.406 288.468C216.546 289.088 215.927 289.088 215.927 289.398L217.166 289.707C217.166 290.017 215.927 290.017 212.827 290.637C203.218 292.187 192.37 295.907 191.13 298.386L190.51 299.316L190.82 298.386C190.82 297.766 190.82 297.456 190.51 297.456H190.2C189.89 297.456 189.581 298.386 189.271 299.006C189.271 299.936 188.961 300.556 188.651 301.176L188.031 301.796L188.341 302.106L188.651 302.726C188.651 303.345 188.341 304.275 187.721 304.585L187.411 304.895L188.031 305.205L188.341 305.515L187.721 308.305L188.341 309.545L188.651 308.615C188.961 305.825 189.271 305.515 189.581 305.515L189.271 309.854C188.651 312.334 188.341 313.264 188.031 313.264H187.721C187.411 313.264 187.101 313.884 186.481 315.434C186.481 316.983 185.861 319.153 185.551 320.393L184.931 324.732L185.241 325.972L186.481 324.422L185.861 329.691C185.241 333.411 184.621 335.581 184.311 335.581L184.001 334.961C184.001 334.651 184.001 334.341 183.691 334.341C183.381 334.341 183.071 335.581 182.762 337.13C182.452 339.92 182.452 340.23 182.142 340.54V344.879C182.452 344.879 182.762 343.019 183.071 340.85C183.381 338.68 184.001 336.51 184.311 336.2L184.621 335.891V336.2C184.621 336.82 184.621 338.06 184.001 340.54L183.691 344.259L183.071 344.879C182.452 345.189 181.832 345.189 181.522 345.189H181.212L181.522 347.049L180.592 346.429L180.902 347.049L181.522 347.979L180.592 348.599L181.212 347.669C181.212 347.359 180.902 347.669 180.592 347.979L180.282 348.599L180.902 349.838C180.592 350.148 180.592 351.078 180.592 352.008L180.902 352.938C180.902 353.248 180.592 353.248 180.592 353.248H180.282C179.972 353.248 179.972 353.248 179.972 353.558L180.282 355.108L179.662 356.038L179.972 356.347L180.282 356.967L179.972 357.897L179.662 360.377C179.662 360.997 179.352 361.927 179.042 362.237L178.732 364.406V365.336C178.732 366.266 178.732 367.506 178.422 367.506C178.112 367.816 178.112 369.366 178.112 371.535L178.422 374.325L178.112 375.875C177.802 376.185 177.802 376.494 177.802 377.114C177.802 378.044 178.422 378.974 178.732 378.974L179.662 378.664L178.112 381.454V384.863C178.112 385.173 178.112 385.173 178.422 385.173L179.352 384.863L179.662 385.173C179.662 385.483 179.352 385.793 179.042 385.793C178.732 385.793 178.422 387.033 178.422 388.583V390.132C178.422 391.372 178.732 391.992 179.042 392.302C179.662 392.612 180.902 394.162 181.832 395.712C182.762 397.261 183.071 397.881 183.071 398.501L182.452 399.741C181.832 400.671 180.902 400.981 180.592 400.981H180.282L180.902 401.601L181.212 402.221C181.212 402.531 181.212 402.531 180.592 402.841ZM321.931 114.584C322.861 114.274 323.48 114.274 323.48 113.964C323.17 113.654 322.551 113.654 321.621 113.654C320.691 113.654 320.071 113.964 319.761 114.274C319.761 114.274 320.691 114.584 321.931 114.584ZM313.252 115.204L313.872 114.894H313.562C313.562 114.584 313.252 114.584 313.252 114.584C313.252 114.584 312.942 114.584 312.942 114.894C312.942 114.894 312.942 115.204 313.252 115.204ZM349.517 112.724H348.587C347.967 112.724 346.727 112.724 346.107 112.414L345.177 112.104L346.107 111.794L348.587 112.104L349.517 112.724ZM303.953 116.443L304.573 116.134H304.263C304.263 116.134 304.263 115.824 303.953 115.824L303.643 116.443H303.953ZM336.808 113.654L337.428 113.344H336.498L336.189 113.654H336.808ZM298.684 117.373V117.063H297.754C297.754 117.373 297.754 117.373 298.374 117.373H298.684ZM270.168 120.783H269.239L270.168 120.473L273.268 119.543L272.338 120.163C271.718 120.473 270.788 120.783 270.168 120.783ZM276.677 122.023C277.297 122.023 277.607 121.713 277.607 121.403L276.987 120.783L276.058 121.403C276.058 121.713 276.058 122.023 276.677 122.023ZM270.788 123.572L271.098 123.262C270.788 123.262 270.788 122.952 270.788 122.952L270.168 123.262C270.168 123.572 270.168 123.572 270.788 123.572ZM259.94 126.052C261.18 126.052 262.11 125.742 262.73 125.432L263.04 124.812H262.42L258.7 126.052H259.94ZM244.752 127.912C244.442 127.912 244.132 127.602 244.132 127.292L244.752 126.982H245.062C245.372 126.982 245.372 126.982 245.372 127.292C245.372 127.602 245.062 127.912 244.752 127.912ZM254.361 127.602V127.292H253.741V127.602H254.361ZM246.302 128.842H245.682V128.532H246.302V128.842ZM249.402 129.771V129.152C249.402 128.842 249.092 128.532 248.782 128.532L248.472 128.842L248.782 129.152C248.782 129.462 249.092 129.771 249.402 129.771ZM301.474 126.052L302.094 125.742V125.432C302.094 125.122 301.784 125.122 301.784 125.122H300.854L300.234 125.742C300.234 126.052 300.544 126.052 301.474 126.052ZM227.395 132.561H227.085C226.465 132.561 226.465 132.561 226.465 132.251H227.395V132.561ZM220.576 135.351V134.731C220.576 134.111 221.196 133.801 221.816 133.801C222.126 133.491 223.365 133.491 223.985 133.181H224.605L223.365 134.111C221.816 135.041 220.886 135.351 220.576 135.351ZM275.128 130.391C276.058 130.081 276.368 130.081 276.368 129.771C276.368 129.152 276.367 129.152 276.058 129.152L274.818 129.771L274.508 130.391H275.128ZM272.338 131.011C272.648 131.011 273.268 130.701 273.268 130.391V130.081H272.648C272.338 130.081 271.718 130.391 271.718 130.701L272.338 131.011ZM233.594 133.801C234.214 133.801 234.524 133.491 234.524 133.491L233.904 133.181L232.974 133.491L233.594 133.801ZM281.947 129.771C282.567 129.771 282.877 129.462 282.877 129.462L282.257 129.152L281.327 129.462C281.327 129.771 281.637 129.771 281.947 129.771ZM215.927 136.28H215.307L215.617 135.661L216.856 135.041C217.166 135.041 217.166 135.351 217.166 135.661C217.166 135.971 216.856 136.28 215.927 136.28ZM312.632 129.152C313.562 129.152 314.492 128.842 315.422 127.912C316.042 127.292 316.351 127.292 316.351 126.982L315.732 127.292C315.112 127.602 314.182 127.912 313.252 127.912C312.632 128.222 312.012 128.532 312.012 128.842C312.012 129.152 312.322 129.152 312.632 129.152ZM320.071 128.222V127.292C320.071 126.982 319.451 126.672 318.831 126.672C318.211 126.672 317.901 126.982 317.901 127.292C317.901 127.602 318.211 127.602 318.831 127.912L320.071 128.222ZM362.225 125.122C361.915 125.122 361.605 124.812 361.605 124.502C361.605 123.882 361.605 123.572 361.915 123.572C362.225 123.572 362.535 123.882 362.535 124.502V124.812C362.535 124.812 362.535 125.122 362.225 125.122ZM329.68 126.672V126.362H328.75L328.13 126.672H329.68ZM264.589 133.801L266.139 133.491C267.689 133.491 268.619 133.181 268.619 132.561C268.619 132.251 268.929 131.941 269.858 131.941L270.478 131.631V131.321H270.168C268.929 131.321 264.899 132.871 264.279 133.491C264.279 133.801 264.279 133.801 264.589 133.801ZM305.503 129.462L306.123 129.152L305.503 128.532H304.883L304.573 128.842C304.573 129.152 304.883 129.462 305.503 129.462ZM308.913 129.152L309.842 128.842C309.842 128.222 309.223 128.222 308.603 128.222L308.293 128.842L308.913 129.152ZM209.108 137.83H208.798V137.52H209.727C209.727 137.83 209.727 137.83 209.108 137.83ZM311.082 129.462L311.392 129.152L311.082 128.842L310.462 129.152C310.462 129.462 310.462 129.462 311.082 129.462ZM222.436 136.9L223.055 136.59C223.055 136.28 222.746 136.28 222.436 136.28L221.506 136.9H222.436ZM290.935 133.801C291.245 133.801 291.245 133.801 291.245 133.181C291.245 132.561 291.865 132.251 294.035 131.941C297.134 131.631 298.994 131.011 298.994 130.701V130.391H298.374L297.754 130.701L296.824 131.011L295.895 130.701H295.275C294.965 130.701 293.415 130.701 292.175 131.011C290.625 131.321 289.696 131.321 289.696 131.941L290.625 133.491L290.935 133.801ZM342.388 127.912L343.007 127.602L342.698 127.292C342.388 126.982 341.458 126.982 340.838 126.982L339.598 127.292L342.388 127.912ZM319.761 131.941L318.831 131.011H319.451C320.071 131.011 320.381 130.701 320.691 130.391C320.691 130.081 320.071 130.081 319.141 130.081L312.322 130.391C311.392 130.391 310.462 130.391 310.462 130.701C310.462 131.011 310.152 131.011 309.533 131.011H308.913L309.842 131.631L311.702 131.941L316.042 131.321L317.281 131.631C317.591 131.941 317.901 131.941 318.521 131.941H319.761ZM261.8 135.351L262.11 134.731H261.8L261.18 135.041C261.18 135.041 261.18 135.351 261.8 135.351ZM283.496 138.76C284.116 138.76 284.116 138.45 284.116 138.14C284.116 137.83 284.426 137.83 284.736 137.52C285.046 137.52 285.666 137.21 286.286 136.59C286.596 136.28 287.836 135.661 288.456 135.661L289.696 135.351L288.146 135.041C287.216 135.041 286.596 134.421 286.596 134.111C286.596 133.801 287.216 133.801 287.526 133.801H287.836V133.181C287.836 132.871 287.526 132.561 287.216 132.561C287.216 132.871 286.906 132.871 286.906 132.871L284.426 133.801C283.496 134.111 282.877 134.421 282.877 134.731L283.186 135.041L284.736 134.421L285.046 134.731C285.046 135.351 284.736 135.661 284.426 135.661C282.567 136.59 281.947 136.59 281.947 136.9L282.567 137.21C282.877 137.21 283.186 137.52 283.186 137.83V138.14C283.186 138.45 283.186 138.76 283.496 138.76ZM334.639 130.081H334.329L333.709 129.771C333.709 129.462 334.329 129.152 334.639 129.152C335.259 129.152 335.569 129.462 335.569 129.462C335.569 129.771 335.259 130.081 334.639 130.081ZM297.754 136.9C298.374 136.59 298.684 136.28 298.684 135.971L298.374 135.661L297.444 135.971C297.134 135.971 296.824 135.971 296.824 135.661C296.824 135.351 297.134 134.731 297.754 134.111L298.064 133.491C298.064 133.181 298.064 133.181 297.444 133.181L295.585 133.491L293.725 132.871L293.105 132.561L293.415 133.801C293.415 134.111 293.105 134.111 292.485 134.421H291.555L292.485 135.041C293.105 135.661 294.345 135.971 295.275 135.971L296.824 136.59C296.824 136.9 297.444 136.9 297.754 136.9ZM307.673 131.941L307.983 131.631C307.983 131.321 307.673 131.321 307.673 131.321C307.363 131.321 307.363 131.631 307.363 131.631V131.941H307.673ZM349.517 128.532L349.826 128.222V127.912H349.517C349.207 127.912 349.207 127.912 349.207 128.222L349.517 128.532ZM302.094 132.251L305.193 131.941L304.263 131.631L303.643 131.941H302.404L302.094 132.251ZM276.987 135.661C277.297 135.661 277.607 135.351 277.607 135.041L277.297 134.421C276.987 134.421 276.677 134.731 276.677 135.041V135.351C276.677 135.351 276.677 135.661 276.987 135.661ZM315.732 132.871C316.042 132.871 316.661 132.561 316.661 132.251V131.941C316.661 131.631 316.661 131.631 316.351 131.631C315.732 131.941 315.112 132.251 315.112 132.561V132.871H315.732ZM339.598 130.391C339.288 130.391 339.288 130.391 339.288 130.081L339.598 129.771L340.218 130.081C340.218 130.081 340.218 130.391 339.598 130.391ZM312.942 133.801L314.182 133.181C314.182 132.871 313.562 132.561 312.632 132.561C312.012 132.561 311.392 132.871 311.392 133.181C311.392 133.491 312.012 133.801 312.942 133.801ZM330.919 132.251C328.44 132.251 326.89 132.251 326.89 131.941C326.89 131.631 328.44 131.321 330.609 131.011C332.779 131.011 334.639 131.011 334.639 131.321C334.639 131.631 332.779 131.941 330.919 132.251ZM290.935 135.351C290.935 135.041 290.935 134.731 290.625 134.731V134.421C290.315 134.421 290.315 134.731 290.315 135.041C290.315 135.351 290.625 135.351 290.625 135.351H290.935ZM272.338 137.52L273.888 137.21C274.508 136.9 274.508 136.59 274.508 136.28C274.508 135.971 274.508 135.971 273.888 135.971H273.268C272.338 136.28 271.718 136.59 271.718 136.9C272.028 137.52 272.028 137.52 272.338 137.52ZM307.983 134.731L308.293 134.421V134.111C308.293 133.801 307.983 133.491 307.673 133.491C307.363 133.491 307.363 133.801 307.363 134.111C307.363 134.421 307.673 134.731 307.983 134.731ZM301.474 135.661C302.094 135.661 302.094 135.351 302.094 135.041C302.094 134.731 301.164 134.421 300.234 134.421C299.924 134.421 299.614 134.421 299.614 134.731H299.304L300.234 135.351L301.474 135.661ZM188.961 144.959V144.649C189.271 144.339 189.89 144.029 190.51 144.029L191.44 143.719C191.44 144.029 191.13 144.029 190.82 144.339C189.89 144.959 189.271 144.959 188.961 144.959ZM265.519 142.48C265.829 142.48 266.449 142.17 267.069 141.55C267.379 141.24 267.999 140.93 268.619 140.93H269.239L271.098 140.31L271.718 139.38C271.718 139.07 271.718 138.76 271.098 138.45C270.788 137.83 270.168 137.52 269.549 137.52H269.239C268.309 137.52 267.999 137.83 267.999 138.14C267.999 138.14 268.309 138.45 269.239 138.45C270.168 138.45 270.788 138.45 271.098 138.76L271.408 139.07L271.098 139.38L270.478 139.07C270.168 139.07 269.549 139.07 269.549 139.38V139.69H268.619C267.379 139.69 263.349 140.93 263.349 141.55C263.349 142.17 264.589 142.48 265.519 142.48ZM266.139 138.76C266.759 138.76 267.069 138.45 267.069 138.45V138.14C267.069 137.83 267.069 137.83 266.759 137.83H266.139L264.899 138.45C264.899 138.76 265.519 138.76 266.139 138.76ZM284.736 137.21C284.426 137.21 284.426 136.9 284.426 136.9C284.426 136.59 284.426 136.59 284.736 136.59H285.046V136.9L284.736 137.21ZM304.883 135.351V135.041H303.953C303.953 135.351 303.953 135.351 304.263 135.351H304.883ZM242.583 140.62L243.202 140.31L242.893 140L242.273 140.31L241.963 140.62H242.583ZM262.42 140L263.659 139.38C263.659 139.07 263.659 139.07 263.349 139.07H262.73C262.11 139.07 261.49 139.38 261.49 139.69C261.49 140 261.8 140 262.42 140ZM290.005 137.83C290.315 137.83 290.625 137.52 290.625 137.21L290.315 136.59C290.005 136.59 290.005 136.9 289.696 137.21V137.52C289.696 137.52 289.696 137.83 290.005 137.83ZM277.607 138.76L277.917 138.14L277.297 137.83V138.14C277.297 138.76 277.297 138.76 277.607 138.76ZM273.268 139.69C273.578 139.69 273.888 139.38 273.888 139.07L273.268 138.76C272.648 138.76 272.648 139.07 272.648 139.07C272.648 139.38 272.958 139.69 273.268 139.69ZM275.748 139.38C276.058 139.38 276.058 139.38 276.058 139.07C276.058 138.76 275.748 138.45 275.438 138.45C275.128 138.45 275.128 138.76 275.128 139.07L275.748 139.38ZM186.481 146.509L187.101 146.199L186.481 145.889C186.481 145.889 186.171 145.889 186.171 146.199L186.481 146.509ZM293.105 138.14L293.415 137.83C293.415 137.52 293.105 137.52 292.795 137.21H292.485V137.52C292.485 137.83 292.795 138.14 293.105 138.14ZM258.7 140.93L259.01 140.62C259.01 140.31 258.7 140.31 258.7 140.31C258.39 140.31 258.39 140.62 258.39 140.62V140.93H258.7ZM250.951 143.099L251.881 142.79L256.84 141.24H256.221C254.051 141.24 250.641 142.17 250.641 142.79L250.951 143.099ZM272.338 141.86C272.648 141.86 272.958 141.55 273.268 140.93C273.268 140.62 272.958 140.31 272.338 140.31C272.028 140.31 271.718 140.62 271.718 140.93V141.24C271.718 141.55 272.028 141.86 272.338 141.86ZM262.11 141.86C262.73 141.55 262.73 141.55 262.73 141.24H262.11C262.11 141.24 261.8 141.24 261.8 141.55L262.11 141.86ZM245.992 144.649C246.612 144.649 247.232 144.339 247.852 143.719L248.162 143.409H246.922C245.992 143.719 245.372 144.029 245.372 144.339L245.992 144.649ZM269.239 142.79C269.858 142.79 270.478 142.48 270.788 142.17V141.86L270.168 141.55L268.619 142.17L268.309 142.79H269.239ZM252.811 144.959C253.431 144.649 253.741 144.339 253.741 144.029C253.741 143.719 253.431 143.719 253.431 143.719H253.121C252.811 143.719 252.191 144.029 252.191 144.649V144.959H252.811ZM287.526 142.17L287.836 141.86C289.076 141.24 291.245 140.62 292.175 140.62H292.795V140.93L292.485 141.24L287.526 142.17ZM237.623 147.129C237.933 147.129 238.863 147.129 239.793 146.819C240.413 146.509 241.653 146.199 242.583 146.199H243.202C243.512 146.199 243.822 146.199 243.822 146.509L244.132 146.819L245.062 146.199L244.442 145.889C244.132 145.889 244.132 145.579 244.132 145.269C244.132 144.959 244.132 144.959 243.822 144.959L242.273 145.269C241.033 145.269 239.483 145.579 238.243 146.199L237.003 146.509C237.003 146.819 237.313 146.819 237.623 147.129ZM257.46 146.509C257.77 146.509 258.08 146.199 258.08 145.889L258.39 145.579L258.08 145.269L257.46 146.509ZM230.804 148.989C231.424 148.989 231.734 148.989 231.734 148.679C231.734 148.369 232.044 148.369 232.664 148.369H233.284C233.904 148.369 234.834 148.059 234.834 147.749C234.834 147.439 234.214 147.439 233.594 147.439C231.424 147.749 229.565 148.369 229.565 148.679C229.565 148.989 229.874 148.989 230.804 148.989ZM279.777 144.029H278.847L279.157 143.719H280.397L279.777 144.029ZM278.227 144.649C277.917 144.649 277.607 144.649 277.607 144.339L277.917 143.719C278.227 144.029 278.227 144.339 278.227 144.649ZM251.261 147.749C252.811 147.749 255.601 147.439 256.221 146.819V146.509C256.221 146.199 255.291 145.889 254.671 145.889H254.051C250.951 146.819 250.021 147.129 250.021 147.439L250.331 147.749H251.261ZM266.139 147.749L265.519 147.439C265.519 146.819 268.619 145.579 270.168 145.579H271.098C271.408 145.579 271.408 145.579 271.408 145.269C271.408 144.959 271.718 144.959 272.028 144.959H272.338C272.648 144.959 273.578 144.959 274.198 144.649C274.508 144.339 274.818 144.339 275.128 144.339H276.368L276.677 144.649C276.677 144.959 276.058 144.959 274.508 145.269C272.958 145.579 271.408 146.199 271.098 146.509L270.168 146.819H269.858L267.379 147.129L266.139 147.749ZM264.279 148.059H263.349C263.349 147.749 263.659 147.439 264.279 147.439L264.899 147.129L265.209 147.439C265.209 147.749 264.589 148.059 264.279 148.059ZM260.87 148.989H260.25L260.56 148.369C260.87 148.059 261.49 147.749 262.11 147.749C262.42 147.749 262.42 147.749 262.42 148.059V148.369C262.42 148.679 261.49 148.989 260.87 148.989ZM242.583 150.848L243.202 150.538C243.512 150.228 243.822 150.228 243.822 149.918C243.512 149.918 243.202 149.918 242.893 150.228L242.583 150.848ZM238.553 151.778L239.793 151.468H237.313V151.778H238.553ZM250.641 151.778V151.468C251.261 151.158 252.501 150.538 254.051 150.538L255.291 150.228H255.601L255.291 150.538C254.361 151.158 251.571 151.778 250.641 151.778ZM234.834 152.708L235.764 152.398L234.524 151.778L234.214 152.088C233.904 152.088 233.904 152.088 233.904 152.398C233.904 152.708 234.214 152.708 234.834 152.708ZM230.184 154.258C231.424 153.948 232.354 153.638 232.354 153.328L232.664 153.018H232.044L229.874 153.638L228.945 154.258H230.184ZM248.782 152.398C248.782 152.398 248.472 152.398 248.472 152.088C248.472 151.778 248.472 151.778 248.782 151.778L249.092 152.088L248.782 152.398ZM247.232 152.708H246.922V152.398H247.852C247.852 152.398 247.852 152.708 247.232 152.708ZM241.343 154.258H241.033C241.033 153.948 241.653 153.638 242.583 153.638C242.893 153.328 243.202 153.328 243.512 153.328V153.638C243.202 153.948 241.963 154.258 241.343 154.258ZM188.341 170.685V170.375H187.721V170.685H188.341ZM175.323 175.025C175.943 175.025 175.943 174.715 175.943 174.715H175.013C175.013 175.025 175.013 175.025 175.323 175.025ZM207.868 224.617L208.798 221.828L209.108 221.208V221.828L208.488 223.687L207.868 224.617ZM206.938 229.576V228.957C206.938 228.647 207.248 228.337 207.558 228.027L207.868 228.337L207.558 228.647C207.248 229.267 207.248 229.576 206.938 229.576ZM206.938 231.126L206.318 230.816L206.628 230.196H206.938V231.126ZM206.318 232.676L206.008 232.366C206.008 232.056 206.008 232.056 206.318 232.056L206.628 232.366L206.318 232.676ZM201.669 252.203L201.049 251.893L201.359 251.273H201.669V252.203ZM200.429 256.232L200.119 255.923C200.119 255.613 200.119 254.683 200.429 254.063L201.049 253.133V254.373C200.739 255.613 200.739 256.232 200.429 256.232ZM258.7 257.782H258.08L258.39 257.472C259.01 256.852 259.32 256.852 259.63 256.852C259.94 256.852 259.94 256.852 259.94 257.162L258.7 257.782ZM198.259 263.361L197.949 263.051C197.949 262.742 198.259 262.432 198.569 262.122H199.189C199.189 262.432 198.879 263.051 198.569 263.051L198.259 263.361ZM250.331 259.642H249.402L249.711 259.332C250.331 258.712 250.951 258.712 251.261 258.402L251.881 258.712V259.022C251.571 259.332 250.951 259.642 250.331 259.642ZM239.173 259.952H238.553C238.243 259.952 238.243 259.952 238.243 259.642H239.173V259.952ZM246.302 260.572C245.992 260.572 245.992 260.572 245.992 260.262V259.952C246.302 259.642 246.922 259.332 247.542 259.332H248.472L248.162 259.952L246.302 260.572ZM262.11 259.642C262.42 259.642 262.73 259.642 262.73 259.332C262.73 259.022 262.42 258.712 262.11 258.712C261.8 258.712 261.49 259.022 261.49 259.332L261.8 259.642H262.11ZM197.949 266.151L197.639 265.841C197.639 265.531 197.949 264.911 198.259 264.911C198.259 264.601 198.569 264.601 198.569 264.601C198.569 264.911 198.879 264.911 198.879 264.911C198.879 265.221 198.569 265.841 198.259 265.841L197.949 266.151ZM225.845 263.981L225.225 263.361C225.225 263.051 224.915 263.051 224.915 263.051H225.535C225.845 263.361 226.155 263.361 226.155 263.671L225.845 263.981ZM220.886 264.911L220.576 264.601C220.576 264.291 220.886 264.291 220.886 264.291L221.506 264.601C221.506 264.601 221.506 264.911 220.886 264.911ZM217.166 265.531H216.546L216.856 265.221H218.096C218.096 265.531 217.786 265.531 217.166 265.531ZM205.698 269.251C206.008 269.251 206.318 269.251 206.318 268.631L206.628 268.321H206.318L205.698 268.941V269.251ZM274.508 264.601L274.198 264.291C274.198 263.981 273.888 263.671 273.578 263.671L271.718 264.291L271.098 263.981C271.098 263.671 271.718 263.361 272.958 263.361H273.888C274.818 263.361 275.438 263.361 275.438 263.671L274.508 264.601ZM263.04 265.841L263.659 265.531C263.659 265.221 263.349 265.221 262.73 264.911H262.11V265.221C262.11 265.531 262.42 265.841 263.04 265.841ZM263.349 267.701C264.279 267.701 265.519 267.701 266.139 267.081L266.449 266.771C266.449 266.461 266.139 266.461 265.519 266.461H264.279C263.969 266.461 263.659 266.461 263.659 266.771C263.349 267.081 262.73 267.081 262.73 267.081H262.42L261.8 267.391C261.8 267.701 262.42 267.701 263.349 267.701ZM272.648 266.461H271.098C271.408 266.151 273.268 265.531 274.198 265.531C274.508 265.531 274.508 265.531 274.508 265.841C274.508 266.151 273.578 266.461 272.648 266.461ZM269.858 266.771C269.239 266.771 269.239 266.771 269.239 266.461L269.858 266.151L270.168 266.461C270.168 266.461 270.168 266.771 269.858 266.771ZM259.94 268.631L259.63 268.321H259.01V268.631H259.94ZM261.18 271.73H260.56L262.11 270.49V270.18C262.42 270.18 262.42 270.49 262.42 270.8C262.42 271.42 262.11 271.73 261.18 271.73ZM243.822 276.999C244.442 276.999 244.752 276.689 244.752 276.07C244.752 275.76 245.062 275.45 245.682 275.45C246.302 275.45 247.232 275.14 247.542 274.83L251.261 272.97C252.501 272.66 253.121 272.35 253.121 272.04H252.501C250.021 272.35 246.302 273.28 246.302 273.59L246.612 273.9C246.612 274.21 246.612 274.21 245.992 274.21C245.062 274.21 244.752 273.9 244.442 273.59L244.132 273.28L242.893 273.59C241.653 273.9 240.723 274.52 240.723 274.83L241.033 275.14L242.893 274.52L243.512 274.83L243.202 275.76C243.202 276.689 243.202 276.999 243.822 276.999ZM254.361 273.9C254.671 273.9 254.981 273.59 254.981 273.28C254.981 273.28 254.671 272.97 254.051 272.97C253.741 272.97 253.431 273.28 253.431 273.59C253.431 273.9 253.741 273.9 254.051 273.9H254.361ZM250.951 274.83V273.9L250.331 274.21C250.641 274.83 250.641 274.83 250.951 274.83ZM249.711 274.83V274.52H249.402C249.092 274.52 248.782 274.52 248.782 274.83H249.711ZM259.01 275.14H257.77L258.7 274.83H259.01V275.14ZM237.003 277.929L237.313 277.619L237.003 276.999C237.003 276.689 237.003 276.689 236.693 276.689V277.309L237.003 277.929ZM239.483 277.309C240.413 277.309 241.343 276.999 241.343 276.689L241.033 276.379L239.793 276.689C238.553 276.999 237.933 276.999 237.933 277.309H239.483ZM246.612 277.309C246.922 277.309 247.232 276.999 247.542 276.689V276.379L246.922 276.689L245.992 277.309H246.612ZM230.494 278.859C230.804 278.859 230.804 278.549 230.804 278.239H230.184L229.874 278.549C229.874 278.549 229.874 278.859 230.494 278.859ZM234.524 279.479C234.834 279.479 235.144 279.479 235.144 279.169L234.214 278.859H233.594V279.169L234.524 279.479ZM228.635 279.789C229.565 279.789 229.874 279.789 229.874 279.479H228.635C228.325 279.479 228.015 279.479 227.705 279.789H228.635ZM225.535 280.719V280.409H224.915V280.719H225.535ZM242.583 281.339L243.822 280.719C245.062 280.099 246.302 279.789 247.542 279.479C248.162 279.479 249.092 279.479 249.092 279.789L248.782 280.099C248.472 280.409 246.922 280.719 245.062 281.029L242.583 281.339ZM234.834 282.888C235.144 282.888 235.454 282.269 235.454 282.269C235.454 281.959 235.144 281.649 234.834 281.649C234.524 281.649 234.214 281.959 234.214 282.579L234.524 282.888H234.834ZM190.2 301.486V300.556L190.82 301.176L190.2 301.486ZM184.311 303.345C184.621 303.345 184.931 302.726 184.931 302.416L184.621 301.796H184.311C184.001 301.796 183.691 302.106 183.691 302.416C183.691 303.035 184.001 303.345 184.311 303.345ZM190.2 302.726H189.89V302.416H190.51L190.2 302.726ZM189.581 304.895H189.271L189.581 304.585C189.581 304.275 189.89 303.965 190.2 303.965V304.275L189.581 304.895ZM187.411 312.334C187.721 312.334 188.031 312.024 188.031 311.714L187.721 311.094L187.101 311.714C187.101 312.024 187.101 312.334 187.411 312.334ZM187.411 317.603V316.983C187.411 316.363 187.411 315.434 187.721 314.814C187.721 314.814 188.031 314.814 188.031 314.504V315.744C187.721 316.983 187.721 317.603 187.411 317.603ZM186.791 323.182C186.481 323.182 186.171 322.253 186.171 321.323C186.481 320.083 186.791 318.843 187.101 318.533C187.411 318.533 187.411 318.843 187.411 319.773C187.101 321.943 187.411 323.182 186.791 323.182ZM180.902 326.902L181.212 326.282L180.592 325.972V326.592C180.592 326.902 180.592 326.902 180.902 326.902ZM184.621 329.691C184.931 329.691 185.241 329.382 185.241 328.452V327.832C185.241 327.212 185.241 326.902 184.931 326.902L184.311 327.522C184.001 328.142 184.001 328.762 184.001 329.382L184.621 329.691ZM184.311 331.861V331.241H184.001C184.001 331.241 183.691 331.241 183.691 331.551L184.311 331.861ZM181.832 355.108V352.628C182.142 350.148 182.452 347.979 183.071 347.669V347.979C183.071 349.528 182.452 354.488 181.832 355.108ZM158.895 357.587V356.657H158.585V356.967C158.585 357.587 158.585 357.587 158.895 357.587ZM174.083 371.535L174.703 370.605C174.393 370.605 174.083 370.605 174.083 370.915L173.773 371.225L174.083 371.535Z" fill="white"/>
</svg>
