<svg width="652" height="134" viewBox="0 0 652 134" fill="none" xmlns="http://www.w3.org/2000/svg"><g clip-path="url(#a)" fill="#29C96D"><path d="M38 1.938c-2.133 1.066-4.8 3.066-5.6 4.533C31.067 8.738 0 129.804 0 132.738c0 .4 6.267.666 13.867.666h13.866l5.467-22.4c3.067-12.267 6.133-24.533 6.933-27.333l1.334-4.934h25.2l6-12 6-12H63.333c-8.4 0-15.333-.4-15.333-1.066 0-.533 1.6-7.333 3.6-15.2l3.733-14.267 18.534-.4 18.666-.4 2.934-11.733L98.4.07H70.133C49.6.204 40.933.604 38 1.938Zm56.267 64.8L77.6 133.404h14.533c12.534 0 14.4-.266 15.067-2.4 1.333-4.666 32.8-129.2 32.8-130 0-.533-6.533-.933-14.533-.933h-14.534L94.267 66.738ZM256.933 1.004C256.133 2.471 224 130.071 224 131.938c0 .933 4.667 1.466 14.4 1.466h14.4l5.867-24c3.2-13.2 6.266-24 6.666-24 .4 0 1.867 9.2 3.2 20.267 3.6 30.667 2.267 27.733 12.267 27.733h8.533l12-24c6.667-13.2 12.267-24 12.533-24 .267 0-2.133 10.4-5.333 22.934-3.2 12.666-5.866 23.466-5.866 24 0 .666 6.533 1.066 14.4 1.066H331.6l16.266-64.4C356.8 33.671 364.4 3.671 364.8 2.338 365.466.204 364 .07 346.133.07h-19.466l-16.534 32.933c-9.466 18.934-16.8 32.267-17.2 31.067-.4-1.067-2.4-16-4.4-33.067L284.8.071h-13.733c-7.467 0-13.867.4-14.134.933Zm112.533 32.934c-8.133 32.933-8.266 34-6.133 38 1.2 2.4 3.6 4.8 5.467 5.466 1.866.8 10.8 1.334 19.866 1.334 13.734 0 16.534.4 16.934 2 .266 1.466 2.933-.4 8.4-6l7.866-8-7.866-8c-5.467-5.6-8.134-7.467-8.4-6-.534 2.533-12.267 2.933-12.267.266 0-.8 2.933-13.2 6.533-27.333L406.4.07H378l-8.534 33.867Z"/><path d="M426 1.67c-.267.934-3.334 12.534-6.534 25.734l-6 24 7.6 7.733 7.467 7.6L416 79.404c-11.734 11.867-12.8 13.334-14.667 21.067l-2.133 8.267-10.134.399-10.133.4 1.2-5.066c.667-2.8 1.2-5.467 1.2-6.133 0-.534-6.267-.934-13.867-.934H353.6l-3.067 12.8c-2.8 11.6-2.933 13.067-1.066 16.267 3.6 6.533 6.133 6.933 38.133 6.666 29.733-.4 29.733-.4 32.933-3.733 2.8-2.8 5.733-13.067 18.667-64.933 8.533-34 15.466-62.267 15.466-63.067 0-2.133-27.866-1.733-28.666.267Zm48 0c-1.2 3.868-32.667 129.201-32.667 130.401 0 .8 5.6 1.333 14.4 1.333h14.4l5.867-24c3.2-13.2 6.266-24 6.666-24 .4 0 1.867 9.2 3.2 20.267 3.6 30.666 2.267 27.733 12.267 27.733h8.533l12-24c6.667-13.2 12.267-24 12.534-24 .266 0-1.734 9.2-4.534 20.267-2.8 11.2-5.466 22-5.866 24l-.8 3.733h14.533c13.867 0 14.533-.133 15.333-3.067.4-1.6 7.734-30.533 16.267-64.266 8.4-33.733 15.6-62.4 16-63.733.667-2.134-.8-2.267-18.667-2.267H544l-16.534 32.933c-9.466 18.934-16.8 32.267-17.2 31.067-.4-1.067-2.4-16-4.4-33.067L502.133.071H488.4c-9.867 0-14 .533-14.4 1.6Zm126.666 0C599.866 3.939 568 131.805 568 132.738c0 .4 17.466.534 38.933.4l19.467-.2 19.466-.2 2.934-11.733 2.933-11.6h-48.8l13.733-54.666L630.4.07h-14.667c-10.4 0-14.667.533-15.067 1.6Zm-459.066 70c-8.267 32.934-15.067 60.134-14.933 60.667 0 .667 17.333 1.067 38.666 1.067h38.534l1.466-5.733c.8-3.067 2-7.734 2.8-10.267 2.134-8.4 3.334-8-22.933-8-22.267 0-24-.133-23.333-2.4 1.066-3.6 23.466-105.504 23.466-105.504s-6.4-.667-14.4-.667L157.5 1.5l-15.9 70.17Z"/></g><defs><clipPath id="a"><path fill="#fff" d="M0 0h651.697v133.479H0z"/></clipPath></defs></svg>