<svg xmlns="http://www.w3.org/2000/svg" width="2000" height="700"><defs><linearGradient id="a" x1="50.005%" x2="50.005%" y1=".008%" y2="99.995%"><stop offset="0%" stop-color="#FFF" stop-opacity="0"/><stop offset="100%" stop-color="#FFF" stop-opacity=".5"/></linearGradient><linearGradient id="b" x1="50.002%" x2="50.002%" y1="31.721%" y2="100.003%"><stop offset="10%" stop-color="#FFBE65" stop-opacity="0"/><stop offset="90%" stop-color="#EF9F3F"/></linearGradient></defs><g fill="none"><path fill="#B6DDFC" d="M0 0h2000v700H0z"/><path fill="url(#a)" d="M2000 0H0v460h2000z"/><path fill="url(#b)" d="M2000 0H0v535h2000z" opacity=".7"/><path d="M1963.6 226.6c-11.3 0-21.5 5.1-28.3 13.2-2.7-1.5-5.6-2.6-8.8-3.2-12.3-2.4-24.3 2.7-31.2 12.2-1.1.1-2.2.3-3.2.5-6 1.1-12.7 3-18 5.6-6.8-2.5-14.1-3.9-21.7-3.9-13.8 0-26.5 4.5-36.9 12.1-7.2-23.9-29.3-41.3-55.6-41.3-9.7 0-18.8 2.4-26.8 6.5-7-5.4-15.7-8.7-25.2-8.7-19.5 0-35.8 13.6-40 31.9-6.2 2.7-11.3 7.4-14.7 13.2-3.7-2-7.9-3.4-12.3-3.8-9.1-15.1-26.9-23.6-45.1-20-9.7 1.9-17.9 7-23.8 13.8-6.2-11.9-19.8-18.9-33.7-16.2-15.5 3.1-26 17.2-25 32.6-4.4-1.5-9.2-2.2-14-1.6-6.5-5.2-15.3-7.8-24.1-6-8.7 1.7-15.7 7.1-19.8 14.3-2.3-1.5-5-2.9-7.7-3.8-11.1-18.1-32.8-28.4-54.9-24-8.1 1.6-15.5 5.1-21.7 9.8-9.9 7.7-16.9 18.7-19.4 31-8.5-11-21.4-18-35.6-18.6-3.9-.2-7.8.1-11.7.9-17.2 3.4-30.4 15.7-35.8 31.1-.7.1-1.4.2-2.1.4-1.1.2-2.2.5-3.2.8-2.5-3.2-5.7-5.7-9.2-7.5-5.6-2.9-12.3-4.1-19-2.7-5 1-10.1 3.6-14.1 6-4.2-.6-8.6-.9-13-.9-18.6 0-35.8 5.5-50.4 15-8.5 5.5-15.9 12.4-22.2 20.4-3.7-6-10.3-10.1-17.9-10.1-9.5 0-17.6 6.4-20.1 15.1-11.1.6-19.9 9.7-19.9 20.9 0 6.2 2.7 11.7 6.9 15.5l-1.5.6c-5.7 2.5-11 5.6-16.1 9.2H2000V257c-3.1-17.3-18.2-30.4-36.4-30.4zM911.1 354.8c-8.5-27.1-33.8-46.7-63.7-46.7-4.2 0-8.4.5-12.5 1.2-3.1-11-12-19.9-23.9-22.3-15.5-3.1-30.6 6-35.6 20.6-4.2-3.8-9.4-6.5-15.3-7.7-5.7-1.2-11.4-.7-16.5 1-2.2-3.1-5.4-5.3-9.5-6.1-5-1-9.9.6-13.4 3.8-.2 0-.4-.1-.5-.1-3.1-.6-6 0-8.5 1.4-5-4.7-11.3-8.1-18.4-9.6-10-2-19.9.2-27.7 5.3-2.5-1.6-5.4-2.7-8.6-3.3-9.5-1.9-18.8 1.7-24.6 8.6-2.2-3.6-5.7-6.3-10.1-7.2-.8-4.9-4.5-9-9.6-10.2-4.5-13.5-17.2-23.2-32.1-23.2-1.1 0-2.2.1-3.3.2-1.7-18.8-17.6-33.6-36.8-33.6-11.3 0-21.5 5.1-28.3 13.2-2.7-1.5-5.6-2.6-8.8-3.2-12.3-2.4-24.3 2.7-31.2 12.2-1.1.1-2.2.3-3.2.5-6 1.1-11.7 3-17 5.6-3-1.1-6.2-2-9.4-2.7-6.6-11.9-18.1-20.9-32.5-23.7-4-.8-7.9-1.1-11.7-.9-14.2.6-27.1 7.6-35.6 18.6-2.5-12.4-9.5-23.4-19.4-31-6.1-4.8-13.5-8.2-21.7-9.8-22.1-4.4-43.8 5.9-54.9 24-2.7.9-5.3 2.3-7.7 3.8-4.1-7.1-11.1-12.5-19.8-14.3-8.8-1.8-17.6.7-24.1 6-4.8-.5-9.6.1-14 1.6 1-15.3-9.5-29.5-25-32.6-13.9-2.7-27.4 4.2-33.7 16.2-6-6.9-14.2-11.9-23.8-13.8-18.2-3.6-36.1 4.9-45.1 20-4.4.4-8.6 1.7-12.3 3.8-4.1-7-10.7-12.3-18.7-14.6-.6-13.5-11.8-24.3-25.5-24.3-1.5 0-3.1.1-4.5.4v-.4c0-7.6-5.7-13.9-13-14.9V384H913c.6-3 .8-6 .8-9 .4-7.1-.7-13.7-2.7-20.2z" fill="#FFF"/><path fill="#B6DDFC" d="M941 378h28v7h-28z"/><path fill="#E3EAD3" d="M1281.9 407.8l270.7-135.4L1372.1 453z"/><path fill="#C4D7B6" d="M1552.5 272.4L1372 453l180.5 90.2 167.5-83.7V356.2z"/><path fill="#E3EAD3" d="M1511.8 390.8l270.7-135.4L1602 436z"/><path fill="#C4D7B6" d="M1782.5 255.4L1602 436l180.5 90.2 167.5-83.7V339.2z"/><path fill="#E3EAD3" d="M1677.7 257.9l-40.6 45.1h32.5l-139 135.4-123.7-45.1z"/><path fill="#C4D7B6" d="M1619.7 349h241.6l-183.8-91.3-45.3 45.3h33.5z"/><path fill="#E3EAD3" d="M841.8 344l58.7 69.5 69.5-26.2-127.3-63.6L854 344z"/><path fill="#C4D7B6" d="M944.7 392.7l-38.6 11.1-59.8-59.8H863l-20.3-20.3L572 459.1l270.7 135.4 270.8-135.4z"/><path fill="#E3EAD3" d="M941.3 443.9l90.2 45.2L1212 308.6z"/><path fill="#C4D7B6" d="M1482.8 443.9L1212 308.6l-78 78-102.5 102.5 180.5 90.2zM665.1 268.8L394.4 404.2l270.7 135.4L886.2 429h-60.9z"/><path fill="#E3EAD3" d="M665.1 268.8L825.3 429h60.9l49.7-24.8z"/><path fill="#C4D7B6" d="M1464.7 475.5L1194 340.1l180.5 180.6z"/><path fill="#E3EAD3" d="M1191.3 340.1L920.5 475.5l270.8 135.4 180.5-90.2z"/><path fill="#C4D7B6" d="M1676.1 401.6l-269.8-133.8-54.2 53.2h20.2l-58.8 58h77.4l-99.9 99.1 115.3 57.2z"/><path fill="#E3EAD3" d="M1313.9 380l59-59h-20.4l54.6-53.9-272 135.8 155.2 77.6L1390.7 380z"/><path fill="#C4D7B6" d="M2000 419.9V298.3l-86.8-43.5-53.6 53.2h19.4l-57.9 58h76.7l-99 99.1 114.3 57.2 86.9-43.5v-21.2z"/><path fill="#E3EAD3" d="M1819.9 367l59-59h-19.3l53.6-53.2-272 135.1 155.2 77.6L1896.8 367z"/><path fill="#C4D7B6" d="M1210.8 386l-97.3-48.6-49.2 48.6z"/><path fill="#E3EAD3" d="M1113.5 337.4L1016 386h48.3z"/><path fill="#C4D7B6" d="M657.7 437.2l-10.8-10.8L520.6 291H554l-54.2-45.1L276 357.8v46.9l223.4 111.8z"/><path fill="#E3EAD3" d="M500 245.9l45.1 45.1h-33.4l146.5 146.6 112.5-56.3z"/><path fill="#C4D7B6" d="M1718 294.9V317h13.6l117.9 117h28.5v-60z"/><path fill="#E3EAD3" d="M1849.6 425.7l-131.3-131.3-270.8 135.4 270.8 135.4 159.7-79.9v-54.5z"/><path fill="#C4D7B6" d="M1560.3 305.4L1691.5 445h28.5v-60z"/><path fill="#E3EAD3" d="M1691.6 436.7l-131.3-131.3-270.8 135.4 270.8 135.4 159.7-79.9v-54.5z"/><path fill="#E3EAD3" d="M1624 373v60h28.5l117.9-117h13.6v-22.1z"/><path fill="#C4D7B6" d="M1783.4 293.4l-82.4 82.4V523l82.4 41.2 190.6-95.4v-80.1zM802.9 486.8L651.1 335h37.5l-26-26-.2-.1-270.7 135.4 270.7 135.4 140.5-70.2 130.3-65.2-22.7-11.3z"/><path fill="#E3EAD3" d="M646.2 330l156.7 156.8L910.5 433 662.6 309l21 21z"/><path fill="#C4D7B6" d="M1691.2 450.3l-270.7-135.4L1240 495.4l180.5 90.2zM740 427.6l-64.9-32.5-270.8 135.4 65 32.5h541.5z"/><path fill="#E3EAD3" d="M597.5 414.2L326.7 278.8l180.5 180.5z"/><path fill="#C4D7B6" d="M507 459.3L326.5 278.8 276 304v220.3l50.5 25.2z"/><path fill="#E3EAD3" d="M234.7 471.4L9.1 245.8 347.5 415z"/><path fill="#C4D7B6" d="M235 471.4L9.4 245.8 0 250.5v329.1l9.4 4.7z"/><path fill="#C4D7B6" d="M324.7 504.7L200.1 380h96.5l-73.3-73h25.2l-67.7-66.9L1 330v156.8l179.8 89.9z"/><path fill="#E3EAD3" d="M200.9 380l124.3 124.3 192-96-336.4-168.2 67.4 66.9H223l73 73z"/><path fill="#C4D7B6" d="M0 317.5v49.4L60.1 307H77v-27.7z"/><path fill="#E3EAD3" d="M415.1 449.2L77 279.3 0 356.5v223.6l76.7 38.3z"/><path fill="#C4D7B6" d="M387.8 524.5L162.2 298.8 0 379.9v176.3l162.2 81.1z"/><path fill="#E3EAD3" d="M482.1 453.8l-154.5 56.4L153.9 341h40.6l-51-56.4z"/><path fill="#C4D7B6" d="M157.9 341h41.5l-55.9-56.4L2 355.1V398h212.9z"/><path fill="#6FBF5C" d="M1079.4 383l-4.9-19.9-5 19.9zm56.4-6l-5-19.9-5 19.9z"/><path fill="#9BD96F" d="M1952.2 331.7l-15.9 10.5c-4.7 3.1-10.3 4.3-15.9 3.4l-23.8-3.9c-3-.5-6.1-.1-8.9 1l-17 7c-5 2.1-10.5 2.7-15.9 1.7l-133.1-24c-4.4-.8-8.9-.4-13 1.1l-72.3 25.9c-8.4 4.3-18.3 5.3-27.4 2.6l-47.6-14.1c-5.4-1.6-11.3-1.8-16.9-.5l-101 22.7c-4.6 1-9.3 1.4-13.9 1l-101.5-7.6c-4.5-.4-9 .3-13.3 1.9l-19 7c-3.5 1.3-7.4 1.5-11 .6l-24-5.8-4.1.8c-3 .6-6.1.9-9.3.9h-3.4s-6.1-.9-9.1-1.6l-20.8-4.1c-6-1.2-12.5-1.9-18.9-2.4h-6.6c-6.4.5-12.8 1.2-18.9 2.4l-57.1 11.4c-27.2 5.6-82.6 11-82.6 11V436h970V333l-37-3.9c-3.8-.5-7.6.5-10.8 2.6z"/><path fill="#6FBF5C" d="M1864.7 343c-7.6 2.5-15.8 2.6-23.5.5l-86.4-24.5c-4.4-1.3-9.1-1.4-13.6-.5l-131.8 27.9c-2.7.6-5.4.6-8.1 0l-1.7-.4-49.5-10.8c-14.2-2.8-30-2.8-44.3 0l-66 12.9c-2.5.5-5.5.8-8.7 1l-2.2.4c-1.5.3-4 .3-5.5 0l-2.4-.5c-3-.2-5.8-.5-8.1-.9l-18.5-3.6c-14.2-2.8-30-2.8-44.3 0l-51.1 10.2-41.7 7.4c-3 .6-6.2.9-9.4.9h-3.9c-3.1 0-6.1-.3-9.1-.9l-20.7-4c-6-1.2-12.4-1.9-18.8-2.1h-6.3c-6.5.2-12.9.9-19 2.1l-57.5 11.5c-12.8 2.5-28.5 4.7-40.6 6.5h44.4c25.6 0 44.1-2.5 44.1-2.5 2.1-.1 3.7-1.9 3.7-4.1 0-2.4 2.1-4.2 4.4-3.9l78.2 8.1c3.9.4 7.9-.9 10.8-3.6l3.7-3.3c2.4-2.1 5.8-2.8 8.9-2.1l14.6 3.6c3.6.9 7.5.6 11-.6l19-7c4.2-1.6 8.8-2.3 13.3-1.9l101.5 7.6c4.6.4 9.3 0 13.9-1l101-22.7c5.6-1.3 11.5-1.1 16.9.5l47.6 14.1c9.1 2.7 19 1.7 27.4-2.6l67.7-24.2c6.8-2.4 14.2-3.1 21.3-1.8l129.4 23c5.3 1 10.9.4 15.9-1.7l17-7c2.8-1.2 5.9-1.5 8.9-1l23.8 3.9c5.5.9 11.2-.3 15.9-3.4l15.9-10.5c3.2-2.1 7-3 10.8-2.6l37 3.9v-34.9L1864.7 343z"/><path fill="#9BD96F" d="M846.3 362.9c-12.2-1.8-24.5-1.8-36.7-.1l-25.7 3.6c-9.2 1.3-18.5 1.3-27.6-.2-2.5-.5-5-.9-6.9-1.4l-84.3-26c-14.5-4.4-30.9-4.4-45.4 0l-18.9 5.8c-7.6 2.3-20 2.3-27.6 0L505.6 324c-6.7-2-38.7-2-45.4 0l-37.1 11.3c-8.9 2.7-18 4.2-27.1 4.6l-34.6-5c-12.2-1.8-24.5-1.8-36.7-.1l-25.7 3.6c-9.2 1.3-18.5 1.3-27.6-.2-2.5-.5-5-.9-6.9-1.4-21.1-6.3-84.3-26-84.3-26-14.5-4.4-30.9-4.4-45.4 0l-18.9 5.8c-7.6 2.3-20 2.3-27.6 0L20.8 296c-5.2-1.5-12.9-2.4-20.8-2.5V474h1052v-81.2l-205.7-29.9z"/><path fill="#6FBF5C" d="M743 419v-2h-39l-1.6 1.6c-1.3 1.3-1.3 3.5 0 4.8l2.6 2.6c.6.6 1.5 1 2.4 1h24c1.8 0 3.6-.7 4.9-2l2-2c.6-.6 1.5-1 2.4-1h5.9c.9 0 1.8-.4 2.4-1l2-2h-8z"/><path fill="#E3EAD3" d="M737 419h13.9l-7-7H736l-8-8h-13l-7 7v10h27z"/><path fill="#FFF" d="M734.7 414h8.3l5 5h3l-7-7h-7l-8-8h-14l-3 3h15.7z"/><path fill="#C4D7B6" d="M739 417h-11l-7-7h-4l-5 5h-4v6h27l2-2h4z"/><path fill="#6FBF5C" d="M922.2 373.7c0-.1-.1-.1 0 0l-75.8-11.2c-12.2-1.8-24.6-1.8-36.8-.1l-25.6 3.7c-9.2 1.3-18.5 1.3-27.6-.2-2.5-.5-5-.9-6.9-1.5L665.2 338c-14.5-4.5-30.9-4.5-45.4 0l-18.9 5.8c-7.6 2.4-20 2.3-27.7 0L505.6 323h.1s-11.6-1.9-17.4-2c-2.5-.1-7.4-.1-9.9 0-5.8.1-17.8 2-17.8 2h-.4l-37.1 11.5c-19 5.9-39.1 6.4-58.2 1.6-11.9-3-25.1-3.5-37.4-1.6l-2.7.3-25.7 3.6c-9.2 1.3-18.5 1.3-27.6-.2-2.5-.5-5-.9-6.9-1.4-21.1-6.3-84.3-26-84.3-26-14.5-4.4-30.9-4.4-45.4 0l-18.9 5.8c-7.6 2.3-20 2.3-27.6 0L20.8 296c-5.2-1.5-12.9-2.4-20.8-2.5V341h48.7c3.5 0 7 .7 10.2 2.1l.6.3c5.3 2.3 11.3 2.7 16.8 1.2l26.4-7.1c6-1.6 12.3-1 17.9 1.7l30.3 14.8c4 2 8.4 2.8 12.9 2.5l134-8.6c5.1 0 10.1 1.9 14 5.3 2.3 1.9 6.8 2.9 10.8 2.5l86.9-10c4.6-.5 9.7.8 11.6 3.2l19.3 23.7c2 2.4 7.1 3.8 11.7 3.2 0 0 71.4-14.7 95.4-18.5 5.9-.9 8.1 3.6 12.5 8.1 5.1 5.1 6.9 8.9 12.9 8l64.6-9.9c4.3-.6 9.4.5 11.6 2.7l11.6 10.8c2 1.8 6 3 9.9 2.8l134.6-5.9c2.2-.1 4.3.2 6.2.8l25.4 8.2c2.1.6 4.4.9 6.7.8l71.7-4.9c5.2-.4 7.8-2.8 7-5.1zm-745.9-9.8l-18.9 4.7c-.3 0-.5-.4-.2-.5l7-3.9c.8-.5 1.6-.7 2.5-1.3h2.8l3-2h2.7l-3 2h3.8c.7.6.6.9.3 1z"/><path fill="#B37624" d="M175.6 352v9.6c-.7.3-1.1.5-1.8.5s-1.2-.2-1.2-.5V352h3z"/><path fill="#9C452D" d="M175.6 351h-3v5h3z"/><path fill="#5A9C4B" d="M169.9 343l-1.4 9h10l-1.4-9h1.4l-4.2-22.3-.7-4.3v.1-.1.1l-5.1 26.5z"/><path fill="#6FBF5C" d="M71.3 363.9l-18.9 4.7c-.3 0-.5-.4-.2-.5l7-3.9c.8-.5 1.6-.7 2.5-1.3h2.8l3-2h2.7l-3 2H71c.7.6.6.9.3 1z"/><path fill="#B37624" d="M70.6 352v9.6c-.7.3-1.1.5-1.8.5s-1.2-.2-1.2-.5V352h3z"/><path fill="#9C452D" d="M70.6 351h-3v5h3z"/><path fill="#5A9C4B" d="M64.9 343l-1.4 9h10l-1.4-9h1.4l-4.2-22.3-.7-4.3v.1-.1.1L63.5 343z"/><path fill="#6FBF5C" d="M609.3 386H595c-1.4.5-2.7 1-3.9 1.6l-10.9 6c-.4.2-.2.7.3.6l29.1-7.3c.4 0 .6-.4-.3-.9z"/><path fill="#9C452D" d="M607 372h-4v5h4z"/><path fill="#5A9C4B" d="M597.2 361l8-41.4 6.9 41.4H610l2.1 14h-14.9l2.2-14z"/><path fill="#6FBF5C" d="M608.6 361l-3.5-41.4 7.5 41.4h-2.1l2.1 14h-4l-2.1-14zm1081.7 30.8l-10.9-6c-.8-.5-1.8-.8-2.7-1.2-.8-.3-1.7-.5-2.5-.5h-2.7c-.2 0-.3 0-.5-.1l-4-1h-4v1h-1.8c-1.2 0-.7 1-.4 1.1l29.1 7.3c.6.1.7-.4.4-.6z"/><path fill="#B37624" d="M1667 362v21.1c-.2.4-1 .6-2 .6s-1.8-.3-2-.6V362h4z"/><path fill="#9C452D" d="M1663 366h4v-5h-4z"/><path fill="#5A9C4B" d="M1672.8 350l-8-41.4-6.9 41.4h2.1l-2.1 14h14.9l-2.3-14z"/><path fill="#6FBF5C" d="M1661.3 350l3.5-41.4-7.5 41.4h2.1l-2.1 14h4l2.1-14z"/><path fill="#B37624" d="M1664 372.6l-3-.9V370h3z"/><path fill="#6FBF5C" d="M707.6 389h-5.9l4.1-1h-3.6l-4.5 1h-4.3c-1.4-.1-2.7.3-3.9.9l-10.9 6c-.4.2-.2.7.3.6l29.1-7.3c.3 0 .5-.3-.4-.2z"/><path fill="#B37624" d="M702 378v9.2c.1.4 1 .6 1.9.6 1 0 1.8-.3 2.1-.6V378h-4zm-99-1v9.2c.1.4 1 .6 1.9.6.9 0 1.8-.3 2.1-.6V377h-4z"/><path fill="#9C452D" d="M706 377h-4v5h4z"/><path fill="#5A9C4B" d="M696.6 368l7.9-38.2 6.8 38.2h-2.1l2.1 12h-14.7l2.2-12z"/><path fill="#6FBF5C" d="M707.9 368l-3.5-38.2 7.5 38.2h-2.2l2.2 12h-4l-2.1-12z"/><path fill="#9C452D" d="M648 408h10v13h-5v20h-5z"/><path fill="#B37624" d="M658 420h-5v21h5z"/><path fill="#5A9C4B" d="M632.1 417h44.3l-8.2-23h3.9l-8.8-25h3.7l-8.6-25h3.2l-8.9-25.4-8.9 25.4h3.2l-8.6 25h3.7l-8.8 25h3.9l-8.2 23z"/><path fill="#447337" d="M641.4 394l7.4-25H645l7.3-25h-3.2l3.5-25.4-9.4 25.4h3.2l-8.5 25h3.7l-8.8 25h3.4l-8.3 23h9.1l7.4-23z"/><path fill="#447337" d="M636 400.9l22.2-7.9H636zm6-26.9l16.8-5H642zm5-26.6l8.9-3.4H647z"/><path fill="#9C452D" d="M305 408h10v13h-5v20h-5z"/><path fill="#B37624" d="M315 420h-5v21h5z"/><path fill="#5A9C4B" d="M289.1 417h44.4l-8.3-23h4l-8.8-25h3.6l-8.5-25h3.2l-8.9-25.4-9 25.4h3.2l-8.5 25h3.6l-8.8 25h4l-8.2 23z"/><path fill="#447337" d="M298.5 394l7.4-25h-3.8l7.3-25h-3.2l3.5-25.4-9.4 25.4h3.2l-8.6 25h3.8l-8.8 25h3.3l-8.2 23h9.1l7.4-23z"/><path fill="#447337" d="M294 400.9l22.2-7.9H294zm6-26.9l16.8-5H300zm5-26.6l8.9-3.4H305z"/><path fill="#9C452D" d="M42 408h10v13h-5v20h-5z"/><path fill="#B37624" d="M52 420h-5v21h5z"/><path fill="#5A9C4B" d="M26.1 417h44.4l-8.3-23h4l-8.8-25H61l-8.5-25h3.2l-8.9-25.4-9 25.4H41l-8.5 25h3.6l-8.8 25h4l-8.2 23z"/><path fill="#447337" d="M35.5 394l7.4-25h-3.8l7.3-25h-3.2l3.5-25.4-9.4 25.4h3.2l-8.6 25h3.8l-8.8 25h3.3L22 417h9.1l7.4-23z"/><path fill="#447337" d="M31 400.9l22.2-7.9H31zm6-26.9l16.8-5H37zm5-26.6l8.9-3.4H42z"/><path fill="#5A9C4B" d="M1254.3 417h-35.7l6.7-19h-3l7-20h-3.2l7.3-21h-2.8l6.7-21.3 7.5 21.3h-2.8l7.2 21h-3.1l7.1 20h-3.2l6.8 19z"/><path fill="#6FBF5C" d="M1231.9 398h-3.3l6.1-20h-2.7l5.3-21h-2.7l2.9-21.3-7.5 21.3h2.8l-7.2 21h2.8l-7 20h3.1l-6.8 19h7.4z"/><path fill="#5A9C4B" d="M137.3 438h-35.7l6.7-19h-3l7-20h-3.2l7.3-21h-2.8l6.7-21.3 7.5 21.3H125l7.2 21h-3.1l7.1 20H133l6.8 19z"/><path fill="#6FBF5C" d="M114.9 419h-3.3l6.1-20H115l5.3-21h-2.7l2.9-21.3L113 378h2.8l-7.2 21h2.8l-7 20h3.1l-6.8 19h7.4z"/><path fill="#5A9C4B" d="M1314 406h-22.6l4.3-12h-1.6l4.2-12h-1.9l4.4-13h-1.7l4.3-13.2 4.5 13.2h-1.7l4.5 13h-2l4.3 12h-1.7l4.3 12z"/><path fill="#6FBF5C" d="M1300.1 394h-2.1l3.6-12h-1.6l3.3-13h-1.6l1.7-13.2-4.6 13.2h1.7l-4.4 13h1.7l-4.2 12h1.8l-4.3 12h4.7z"/><path fill="#447337" d="M1401.5 416.9c10 0 18-8.1 18-18.1 0-10-8.1-18.1-18-18.1s-18 8.1-18 18.1c0 10 8.1 18.1 18 18.1z"/><path fill="#447337" d="M1386.2 400.6c7.5 0 13.5-6.1 13.5-13.5 0-7.5-6.1-13.5-13.5-13.5-7.5 0-13.5 6.1-13.5 13.5 0 7.5 6 13.5 13.5 13.5zm-841.1-11.7c7.5 0 13.5-6.1 13.5-13.5 0-7.5-6.1-13.5-13.5-13.5-7.5 0-13.5 6.1-13.5 13.5s6 13.5 13.5 13.5zm38.2 42.7c7.5 0 13.5-6.1 13.5-13.5s-6.1-13.5-13.5-13.5c-7.5 0-13.5 6.1-13.5 13.5s6 13.5 13.5 13.5z"/><path fill="#447337" d="M599.3 429.5c7.5 0 13.5-6.1 13.5-13.5 0-7.5-6.1-13.5-13.5-13.5-7.5 0-13.5 6.1-13.5 13.5-.1 7.4 6 13.5 13.5 13.5z"/><path fill="#447337" d="M612.8 441.2c7.5 0 13.5-6.1 13.5-13.5 0-7.5-6.1-13.5-13.5-13.5-7.5 0-13.5 6.1-13.5 13.5 0 7.5 6 13.5 13.5 13.5zM407 461.1c12.5 0 22.6-10.1 22.6-22.6 0-12.5-10.1-22.6-22.6-22.6-12.5 0-22.6 10.1-22.6 22.6.1 12.5 10.2 22.6 22.6 22.6zm-56.8 11.7c12.5 0 22.6-10.1 22.6-22.6 0-12.5-10.1-22.6-22.6-22.6-12.5 0-22.6 10.1-22.6 22.6 0 12.5 10.1 22.6 22.6 22.6z"/><path fill="#447337" d="M377.3 456.6c12.5 0 22.6-10.1 22.6-22.6 0-12.5-10.1-22.6-22.6-22.6-12.5 0-22.6 10.1-22.6 22.6 0 12.5 10.1 22.6 22.6 22.6zm112.3-74.9c0-7.5-6.1-13.5-13.5-13.5-6.2 0-11.5 4.2-13 9.9-7.3.2-13.1 6.2-13.1 13.5 0 7.5 6.1 13.5 13.5 13.5 6.2 0 11.5-4.2 13-9.9 7.2-.2 13.1-6.2 13.1-13.5zm38.4-.9c7.5 0 13.5-6.1 13.5-13.5 0-7.5-6.1-13.5-13.5-13.5-7.5 0-13.5 6.1-13.5 13.5-.1 7.4 6 13.5 13.5 13.5zm1207.3 14.7c-2.8 0-5.5.3-8.2.9-6-5.8-14.1-9.5-23.1-9.5-11.5 0-21.6 5.9-27.5 14.8-1.4-.2-2.8-.3-4.2-.3-19.9 0-36.1 16.2-36.1 36.1 0 19.9 16.2 36.1 36.1 36.1 9.2 0 17.6-3.5 24-9.1 2.7.7 5.6 1 8.5 1 4.6 0 8.9-.9 13-2.4 5.2 2.9 11.2 4.6 17.6 4.6 19.9 0 36.1-16.2 36.1-36.1 0-19.9-16.3-36.1-36.2-36.1zm-362.6 18.7c7.5 0 13.5-6.1 13.5-13.5 0-7.5-6.1-13.5-13.5-13.5-7.5 0-13.5 6.1-13.5 13.5-.1 7.4 6 13.5 13.5 13.5z"/><path fill="#447337" d="M1790.3 405h-35.7l6.7-19h-3l7-20h-3.2l7.3-21h-2.8l6.7-21.3 7.5 21.3h-2.8l7.2 21h-3.1l7.1 20h-3.2l6.8 19z"/><path fill="#5A9C4B" d="M1767.9 386h-3.3l6.1-20h-2.7l5.3-21h-2.7l2.7-21.3-7.3 21.3h2.8l-7.2 21h2.8l-7 20h3.1l-6.8 19h7.4z"/><path fill="#E3EAD3" d="M1578 408v-6.4l8.6-8.6h7.6l-4.4-4.4 1.3 1.4h-11.3l-8 8h-7l-12.8-.2v-11.2l-12.6-12.6h-12.6l-9-9H1498l-9 9.4V414h115v-6z"/><path fill="#C4D7B6" d="M1540.6 384H1523v-4l-5-5h-12l-11 11v13h51v-9.7z"/><path fill="#FFF" d="M1530.6 378h12.6l-3.6-4H1527z"/><path fill="#C4D7B6" d="M1578 401.6v6.4h25.6l-.1-5.9-1.4-1.1-.4-.4-7.5-7.6h-7.6z"/><path fill="#FFF" d="M1571.8 398l8-8h11.3l-1.3-1.4-2.6-2.6h-10.3l-9.3 9.4-2.7 2.6zm-78.8-21.8l7.8-8.2h19.9l-2.8-3h-19.8l-9.1 9.4V414h4z"/><path fill="#6FBF5C" d="M1955.5 370h3.8l-3-2h2.7l3 2h2.8c.9.5 1.7.8 2.5 1.3l7 3.9c.3.1.1.5-.2.5l-18.9-4.7c-.2-.2-.3-.5.3-1z"/><path fill="#B37624" d="M1959 359v9.6c0 .3-.5.5-1.2.5s-1.2-.2-1.8-.5V359h3z"/><path fill="#9C452D" d="M1956 363h3v-5h-3z"/><path fill="#5A9C4B" d="M1963.1 350l-5.1-26.5v-.1.1-.1l-.7 4.3-4.2 22.3h1.4l-1.4 9h10l-1.4-9z"/><path fill="#E3EAD3" d="M1978.4 386h-12.6l-9-9H1939l-11 11v26h63v-15.4z"/><path fill="#FFF" d="M1969.6 390h12.6l-3.6-4H1966zm-37.6-1.8l7.8-8.2h19.9l-2.8-3h-19.8l-9.1 9.4V414h4z"/><path fill="#C4D7B6" d="M1979.6 396H1962v-4l-5-5h-12l-9 9v15h49v-9.7z"/><path fill="#6FBF5C" d="M1891.5 378.5c-20.7-7-43.2-7-64 0l-90.2 30.4c-18.5 6.2-38.2 7.9-57.5 4.7l-195.4-31.7c-16.1-2.7-34.2-2.7-50.3 0l-54.3 9c-23.3 3.9-47.1 3.4-70.4-.7-17.1-3-34.7-3.1-51.9-.3l-66.2 11.3c-1.1.2-2.3.5-3.7.6l-102.9 17.8s-53.9 9.3-71.9 12.3c-9.8 1.6-23 4.2-27 6-1.9.9-2.9 1.9-3.5 2.8 0 0-.1.1-.1.2-.3.6.5 1.4.5 2.1v15h-6v128h1023V415.1l-108.2-36.6z"/><path fill="#5A9C4B" d="M1927.5 390.6l10.2 12.2c2.8 3.4 6.5 5.9 10.6 7.5l27.7 10.2c8.2 3 17.2 1.5 24-3.8v-1.6l-72.5-24.5zm-429.1-2.1c3.4 2.1 7.6 3.7 12.1 4.6l14.8 3.1c4.1.8 8.4 1 12.5.5l4.2-.5c2.2-.3 4.3-.8 6.2-1.5l2.9-1.2c.2-.1.6-.4 1.2-.7l-63.2-10.2 9.3 5.9zM1299.7 421l-1 .2c-1 .2-1.7 1.1-1.7 2.1v.3c0 .8.7 1.6 1.9 2l4.1 1.9c3.7 1.6 7.6 2.5 11.6 2.5h21.6c2.1 0 3.8-1.1 3.8-2.4V421h-40.3z"/><path fill="#FFF" d="M1338.1 398h-26.2l-3.9 3.8v9.7l-11 10.9v1.6h26v-1.6l5.2-5.4h18.8v-10z"/><path fill="#E3EAD3" d="M1339.7 400h-26.8l-3.9 3.8V414l-10 10h23.7l5-5h21.3v-10z"/><path fill="#C4D7B6" d="M1329.3 418h19.7v-9.9l-5.2-5.1h-26.9l-3.9 3.8v10.5l-6.7 6.7h17.5z"/><path fill="#5A9C4B" d="M1277.9 436l7.9 4h7c.9 0 1.9.3 2.3.6l22.4 17.5c.4.3-.5.6-1 .4l-43.7-18c-.6-.3-.5-.5.5-.5h6.1s-4.4-2-6-2.5c-1.4-.5-1-1.5.2-1.5h4.3z"/><path fill="#9C452D" d="M1272 398v22h3v17.6c1.7 0 3-.9 3-.9V398h-6z"/><path fill="#B37624" d="M1272 420v16.7c.5.5 1.7.9 3 .9V420h-3z"/><path fill="#447337" d="M1285.7 398l-11-56.3-9.3 56.3h2.8l-2.8 19h20.3l-3.1-19z"/><path fill="#5A9C4B" d="M1270 398l4.8-56.3-10.3 56.3h2.8l-2.8 19h5.5l2.8-19z"/><path fill="#FFF" d="M579 411h5v-22.5L563.2 366h-5l20.8 22.5zm14 0h-5.4l26.9 27h5.4z"/><path fill="#C4D7B6" d="M585.4 411H580v-24.1L559.4 366h-46.1l-11.2 11h-3.6L476 397.8V438h140.1L589 411z"/><path fill="#FFF" d="M563.4 369h-53.5l2.7-3h48zm-63.6 6l-3.7 4h3.8l3.6-4z"/><path fill="#ABBDA0" d="M585.5 419H573v-10.9l-8.8-9.1H550v-12.8l-4.3-4.2h-32.2l-16.1 16H492v38h98v-12.5z"/><path fill="#C4D7B6" d="M614.2 435.6l-.6.4h.9z"/><path fill="#6FBF5C" d="M897.6 493.1c10.4-6.6 4.1-13-19.6-17.1l-336.8-56.6c-22.1-3.9-47-3.9-69.2 0l-74.2 13.1c-11.2 2-22.6 3.2-33.9 3.9-17.2 1-35.3.5-52.4-1.9-22.7-3.2-90.4-15.1-90.4-15.1-22.1-3.9-47-3.9-69.2 0l-74.2 13.1c-11.2 2-22.6 3.2-33.9 3.9-14.6.8-29.2.5-43.7-.9V587h553.4c-.5-1.5.1-3.3 2.1-3.9l325.2-83.2c7.9-2.1 13.6-4.3 17.2-6.6.1 0 .1-.1.2-.1l-.6-.1z"/><path fill="#5A9C4B" d="M374.4 465h-16.1l15.1-8c.5-.3.3-1-.5-1h-10.2l-17 9h-16.1c-2 0-4.3.6-5.3 1.4L276 504.2v2.2l99.4-40.3c1.3-.6 1-1.1-1-1.1z"/><path fill="#9C452D" d="M375 412v6h-6v38.8c-3.3 0-6-.3-6-1.8v-43h12z"/><path fill="#B37624" d="M375 418v37c0 1.5-2.7 1.8-6 1.8V418h6z"/><path fill="#447337" d="M393.3 375l-6.9-39h4.3L370 232.5 347.2 336h3.5l-7.9 39h8.1l-7.4 38h49.1l-6.9-38z"/><path d="M369.9 233l13.4 103h9.1zm18 103h-10.1l4 39h-6.9l7 38h13.2l-7-38h7.2z" fill="#5A9C4B"/><path fill="#447337" d="M388 337.8l-22 6.3V336h22zm0 38l-22 6.3V374h22z"/><path fill="#5A9C4B" d="M453.2 447h71c4.2 0 7.5-3.3 7.5-7.5l24.7 4.8c3.2.6 6.7.3 9.7-.9l6.8-2.7c1.4-.5 2.8-.7 4.2-.6l29.6 2.9c5.2.5 10.4-1.4 14.1-5.1l4.2-4.4-83.8-14.1c-22.1-3.9-47-3.9-69.2 0l-41.2 7.3c1.6 10.9 11 20.3 22.4 20.3z"/><path fill="#230545" d="M219.9 543.3c-2-6.3-7.9-10.9-14.9-10.9-1.8 0-3.6.3-5.2 1.1h-.3c-2.1-3.2-5.6-6.1-9.5-6.1-5.8 0-8.8 3.9-9.1 4.6-.4-9.6-8.1-16.9-17.4-16.9-7.8 0-14.5 5.3-16.7 12.5-.8-.5-1.9-.9-3-.9-3.1 0-5.6 2.5-5.6 5.6 0 .5.1 1 .2 1.5-6.2.3-11.3 4.8-12.3 10.8l33.6 6.3c7.6 1.4 15.3 1.4 22.9 0l37.3-7.6z"/><path fill="#5A9C4B" d="M289.2 450.7c.4.1.7.1 1.1-.1l33.1-14.8c-4-.4-7.9-.8-11.9-1.3-3.8-.5-8.8-1.3-14.5-2.2l-8.7 16.2c-.6.9-.1 1.9.9 2.2zM1570 397.2c5.6 3.9 11.8 6.9 18.5 8.2l9.9 2c6.3 1.3 7.9-1.6 3.6-6.4l-34.5-5.6c0 .1 1.9 1.4 2.5 1.8zm31.1 41.9l-22.4-23.8c-.5-.5-1.4-.8-2.3-1.3h-7l-8.3-5h-4.2c-.5-.1-.6.6-.3.8l6.5 5.2h-6.6l43.7 24.5c.5.4 1.3-.1.9-.4z"/><path fill="#9C452D" d="M1556 370v22h3v17.9c1.3 0 3-.9 3-.9v-39h-6z"/><path fill="#B37624" d="M1556 392v17c.1.5 1.2.9 3 .9V392h-3z"/><path fill="#447337" d="M1569.3 370l-11-56.3-9.3 56.3h2.8l-2.8 19h20.3l-3.1-19z"/><path fill="#5A9C4B" d="M1553.5 370l4.8-56.3-10.2 56.3h2.8l-2.8 19h5.4l2.8-19zm321.8 41.2c-.9-.2-1.7-.2-2.6-.2h-45.9l-4.5 5h-4.3v6h-22.4c-.4.2-.5.7-.2.9l3.2 1.7c1.4.7 4.7 1.4 4.7 1.4h30.7c1.9 0 3.8-.3 5.5-.9 1.8-.6 3.3-1.7 4.5-3.1l1.4-1.6c2-2.2 4.7-3.5 7.6-3.5h-.4 22.5c3.5.1 3.7-5.1.2-5.7z"/><path fill="#E3EAD3" d="M1831.2 413l11-11h10.8v4h13.9l6 6h2.3c.8 0 1.2-1 .6-1.5l-17.4-17.5h-15.7l-14 14h-19.9l-13.4 13.4c-.6.6-.2 1.6.7 1.6h9.7l9-9h16.4z"/><path fill="#C4D7B6" d="M1848.2 412h24.7l-6-6H1853v-4h-10.8l-11 11h-16.5l-9 9h29.5c1 0 1.9-.4 2.5-1.1l7.8-7.8c.8-.7 1.7-1.1 2.7-1.1z"/><path fill="#FFF" d="M1799.7 420.5l12.5-12.5h-4.4l-12.5 12.5c-.5.5-.2 1.5.6 1.5h4.4c-.8 0-1.1-1-.6-1.5zm45.6-27.5h-2.6l-14 14h2.6z"/><path fill="#5A9C4B" d="M910 498.7l-99.2 9.7C724.2 527.1 631.7 545 585.3 545H276v42h634v-88.3z"/><path fill="#447337" d="M1605.2 466l10.1-28h-3.1l9.7-27h-3.8l9.8-28h-3.7l9.3-28.3 10.1 28.3h-3.6l9.8 28h-3.9l9.7 27h-3l10.1 28z"/><path fill="#5A9C4B" d="M1621.2 439l8.8-27h-4.3l8.3-29h-5l4.5-29.4L1623 383h3.8l-10.2 29h4.4l-9.7 27h3.7l-9.8 27h9.9l9.8-27z"/><path fill="#447337" d="M1626 383.9l13 4.5V383h-13zm14 27.1h-18.8l-.4 1.1 19.2 7.8zm-5 28h-20.6l-.4 1.5 21 7.5zm65.2 43l10.1-28h-3.1l9.7-27h-3.8l9.8-28h-3.7l9.3-28.3 10.1 28.3h-3.6l9.8 28h-3.9l9.7 27h-3l10.1 28z"/><path fill="#5A9C4B" d="M1716.2 455l8.8-27h-4.3l8.3-29h-5l4.5-29.4L1718 399h3.8l-10.2 29h4.4l-9.7 27h3.7l-9.8 27h9.9l9.8-27z"/><path fill="#447337" d="M1721 399.9l13 4.5V399h-13zm14 27.1h-18.8l-.4 1.1 19.2 7.8zm-5 28h-20.6l-.4 1.5 21 7.5zm-243.1-1l9.4-27h-3.9l9.7-28h-3.7l9.2-28.4 10 28.4h-3.7l9.7 28h-4l9.6 27z"/><path fill="#5A9C4B" d="M1497.8 427l8.8-28h-3.6l4.6-28.4-10 28.4h3.6l-9.7 28h3.9l-9.5 27h7.2l8.6-27z"/><path fill="#6FBF5C" d="M1046.3 392.1c-1.5.9-4.9 1.8-10.1 2.5l-277.8 35.6c-13 1.6-25.9 3.9-38.3 8-.2.1-.4.1-.5.2-10.2 3.5-10 9.7.4 12.6h.1c7.9 2.2 32.5 5 32.5 5-13.4-3.7-25.8-10.5-22.5-13.5 1.6-1.5 9.7-3.5 16-5 4.2-1 8.6-1.7 12.9-2.3l280.2-37.5c12-1.8 14.3-4 7.1-5.6z"/><path fill="#B6DDFC" d="M1036.3 390.5c3.3.4 11.7 1.5 12.7 3.5 0 .1.1.2.1.3.1 1.1-.6 2-1.7 2.3-1.6.4-3.5.7-5.8 1.1l-10.8 1.4-153.7 19.8S783 431.7 751.4 436c-19.3 2.6-18.4 3.4-20.2 5.5-2.7 3.3 6.8 9 19.1 12.8.5.2 29.1 5.7 29.7 5.8l98 16c23.7 4.1 30.1 10.4 19.6 17.1-3.6 2.3-9.4 4.5-17.3 6.6l-254.6 65.9c-13.6 3.4-11 23.4 3 23.4h413.5c1.5 0 3.2-.3 4.6-.9l161.2-59.9c1.6-.6 3.1-8.6 4.5-9.2-11-5.5-24.9-11.9-35.3-15-64.7-19.6-156.8-47.7-184.8-58-2.1-1.3-7.1-7.7-6.5-7.9 2.8-.7 11.7-2.9 16.9-4.1 2.5-.6 4.9-1.1 7.4-1.5l74.3-12.9 102.9-17.8c6-.9 9.4-1.9 10.6-3 1.8-1.6-2.2-2.3-11.8-3.3 0 0-112.3-9.3-147.5-11.9-7-.5-9.9-1-8.8-1.8l25.1-3.7H951c0-.2 63.9 9.4 85.3 12.3z"/><path fill="#8ACCFF" d="M1208 522c19-8.8 27-21 14.2-28.4-4.3-2.7-10.9-5-19.8-6.6 0 0-200.8-36.4-202.4-36.8-10.2-2.3-16.8-5.8-17.9-8.3 0 3.2 5.7 7.2 11.3 10.3 5.5 2.9 214.6 69.8 214.6 69.8zm-303-31.1c-.2-2.5-1.6-4.8-3.8-6.8-1.2 1.4-3.3 3.1-5.1 4.2-3.6 2.3-9.4 4.5-17.2 6.6L530.7 584H571l314.7-80.5c4.9-1.2 9-2.6 12.2-4 3.1-1.3 5.5-3.7 6.8-6.8.2-.5.3-1.2.3-1.8z"/><path fill="#230545" d="M1305.9 537.8c19.9 0 36.1-16.2 36.1-36.1 0-19.9-16.2-36.1-36.1-36.1-19.9 0-36.1 16.2-36.1 36.1 0 19.9 16.1 36.1 36.1 36.1z"/><path fill="#230545" d="M1268 531.5c12.5 0 22.6-10.1 22.6-22.6 0-12.5-10.1-22.6-22.6-22.6-12.5 0-22.6 10.1-22.6 22.6 0 12.5 10.1 22.6 22.6 22.6zm149.8-67.7c12.5 0 22.6-10.1 22.6-22.6 0-12.5-10.1-22.6-22.6-22.6-12.5 0-22.6 10.1-22.6 22.6 0 12.5 10.1 22.6 22.6 22.6z"/><path fill="#230545" d="M1395.2 460.2c7.5 0 13.5-6.1 13.5-13.5 0-7.5-6.1-13.5-13.5-13.5-7.5 0-13.5 6.1-13.5 13.5s6 13.5 13.5 13.5z"/><path fill="#447337" d="M287 453h-4v44h4z"/><path fill="#DE5833" d="M292 451.7v-1.4c.4-.2.7-.5 1-.7 1.9-1.9 2.2-8.9 2.2-8.9s-7.1.5-8.9 2.2c-.3.3-.6.7-.7 1h-1.4c-.2-.4-.5-.7-.7-1-1.9-1.9-8.9-2.2-8.9-2.2s.5 7.1 2.2 8.9c.3.3.7.6 1 .7v1.4c-.4.2-.7.5-1 .7-1.9 1.9-2.2 8.9-2.2 8.9s7.1-.5 8.9-2.2c.3-.3.6-.7.7-1h1.4c.2.4.5.7.7 1 1.9 1.9 8.9 2.2 8.9 2.2s-.5-7.1-2.2-8.9c-.3-.4-.6-.6-1-.7z"/><path fill="#FFC16C" d="M285.1 454.2c2 0 3.6-1.6 3.6-3.6s-1.6-3.6-3.6-3.6-3.6 1.6-3.6 3.6c0 1.9 1.6 3.6 3.6 3.6z"/><path fill="#447337" d="M281.5 473.7c-5 0-9-4.1-9-9 5 0 9 4.1 9 9z"/><path fill="#230545" d="M354.7 520.7c11 0 19.9-8.9 19.9-19.9 0-11-8.9-19.9-19.9-19.9-11 0-19.9 8.9-19.9 19.9 0 11 8.9 19.9 19.9 19.9z"/><path fill="#230545" d="M378.2 538.7c11 0 19.9-8.9 19.9-19.9 0-11-8.9-19.9-19.9-19.9-11 0-19.9 8.9-19.9 19.9 0 11 8.9 19.9 19.9 19.9z"/><path fill="#230545" d="M397.2 551.7c11 0 19.9-8.9 19.9-19.9 0-11-8.9-19.9-19.9-19.9-11 0-19.9 8.9-19.9 19.9 0 11 8.9 19.9 19.9 19.9z"/><path fill="#FFF" d="M468.1 589l-82-82h-32.7l-27-27H276v11h-29.1l-15.5 16H219l-19 18.9-63.1 63.1z"/><path fill="#E3EAD3" d="M468.1 594l-82-82h-32.7l-27-27H276v11h-28l-16 16h-13l-82.1 82z"/><path fill="#E3EAD3" d="M476.4 606l-95-95h-28.5l-27-27H276v122z"/><path fill="#C4D7B6" d="M424.3 562H402l-23-23h-17v-22h-26l-9-9.2V494h-38.5L277 505.5h-25v9.5h-11l-7 7h-12l-36 36v33h66l25 25h201.4l-54.1-54z"/><path fill="#ABBDA0" d="M337.6 555L326 543.4V527h-16.4l-9-9H275l-12 12h-9.6l-17 17H213v37h142v-29z"/><path fill="#9C452D" d="M1447 398h-18v23h10v14h8z"/><path fill="#B37624" d="M1439 421h-10v14h10z"/><path fill="#5A9C4B" d="M1477.4 415h-82.8l15.5-43h-6.1l15.2-43h-7.1l16.2-47h-6.2l16.9-47.6 16.8 47.6h-6.1l16.1 47h-7.1l15.1 43h-5.9l15.3 43z"/><path fill="#447337" d="M1459.1 372l-12.8-43h6.5l-13.6-47h6l-6.6-47.6 17.7 47.6h-6.1l16.1 47h-6.8l15.2 43h-5.6l15.3 43h-17.1l-13.7-43z"/><path fill="#9C452D" d="M1349 434h-13v17h7v28h6z"/><path fill="#B37624" d="M1343 451h-7v28h7z"/><path fill="#5A9C4B" d="M1371.1 447h-61.5l11.4-32h-4.5l11.7-33h-5.1l11.7-34h-4.5l12.2-34.4 12.2 34.4h-4.4l11.6 34h-5l11.6 33h-4.4l11.4 32z"/><path fill="#447337" d="M1357.6 415l-9.8-33h5l-9.9-34h4.3l-4.7-34.4 12.7 34.4h-4.4l11.7 34h-5l11.6 33h-4.3l11.4 32h-12.7l-10.2-32z"/><path fill="#5A9C4B" d="M1842.8 478.6l-48.8-32.8c-11.9-8-26.9-9.5-40.1-3.9l-64.1 26.8c-2.2.9-4.6 1.4-7 1.4h-112.2c-10.7 0-21.2-2.1-31-6.3l-61.6-25.9a90.61 90.61 0 0 0-69 0L1049.8 586H2000V400.4l-120.6 78.4c-11.2 7.3-25.6 7.2-36.6-.2z"/><path fill="#B37624" d="M1853 470l11 4v-18l-11 7z"/><path fill="#9C452D" d="M1885 414h-25v31h14v67h11z"/><path fill="#B37624" d="M1874 445h-14v67h14z"/><path fill="#5A9C4B" d="M1925.6 437H1814l20.8-58h-8.5l20.4-58h-10.1l22.4-65h-8.5l23.3-65.9L1897 256h-8.4l22.3 65h-10.2l20.4 58h-8.3l20.7 58z"/><path fill="#447337" d="M1901 379l-17.1-58h8.7l-18.9-65h8.4l-8.3-65.9 23.6 65.9h-8.4l22.3 65h-9.5l20.4 58h-7.4l20.6 58h-23l-18.5-58z"/><path d="M1911 398.6l-55.2-19.6h55.2zm-13-67.3l-41.7-12.3h41.7zm-12-66.7l-22.1-8.6h22.1z" fill="#447337"/><path fill="#B37624" d="M1872.5 506c-6.9 0-12.5 2.7-12.5 6s5.6 6 12.5 6h1.5v-12h-1.5z"/><path fill="#9C452D" d="M1885 512c0-3.1-4.8-5.6-11-6v12c6.2-.4 11-2.9 11-6z"/><path fill="#B37624" d="M140.4 483l-11 4v-18l11 7z"/><path fill="#9C452D" d="M108.4 525h11v-67h14v-31h-25z"/><path fill="#B37624" d="M119.4 525h14v-67h-14z"/><path fill="#5A9C4B" d="M59.9 450l20.7-58h-8.3l20.4-58H82.5l22.3-65h-8.4l23.2-65.9 23.3 65.9h-8.5l22.4 65h-10.1l20.4 58h-8.4l20.7 58H67.8z"/><path fill="#447337" d="M99.5 392l-18.4 58H58l20.6-58h-7.4l20.4-58h-9.5l22.3-65H96l23.6-65.9-8.3 65.9h8.4l-18.9 65h8.7l-17.1 58z"/><path d="M82.4 392h55.2l-55.2 19.6zm13-60h41.7l-41.7 12.3zm12-63h22.1l-22.1 8.6z" fill="#447337"/><path fill="#B37624" d="M120.9 519c6.9 0 12.5 2.7 12.5 6s-5.6 6-12.5 6h-1.5v-12h1.5z"/><path fill="#9C452D" d="M108.4 525c0-3.1 4.8-5.6 11-6v12c-6.2-.4-11-2.9-11-6z"/><path fill="#447337" d="M1291.2 526c-3.2 0-6.3.9-8.9 2.8l-24.5 17.6c-15.6 11.2-32.2 18.5-49.2 21.7l-32.8 7.4c-7.8 1.4-20.1 12-20.1 24.5H1540v-74h-248.8zm85.3-47.9c3.7.9 7.1-1.8 5.7-4.3l-10-17.3-1.6-2.8-34.9 14.4c0-.1 30.6 7.5 40.8 10zm109.4-28.5l-5.4-10.6-3-1.2c-10.5-4.3-21.7-6.7-32.8-6.9h-3.2c-9.2.2-18.5 1.7-27.3 4.7l66 18.9c3.7 1.1 7.2-1.9 5.7-4.9zM1412 472h-4v46h4z"/><path fill="#DE5833" d="M1409.7 474.6c4.5 0 8.1-3.6 8.1-8.1s-3.6-8.1-8.1-8.1-8.1 3.6-8.1 8.1 3.6 8.1 8.1 8.1z"/><path fill="#FFC16C" d="M1409.7 471c2.5 0 4.5-2 4.5-4.5s-2-4.5-4.5-4.5-4.5 2-4.5 4.5c-.1 2.5 2 4.5 4.5 4.5z"/><path fill="#230545" d="M964.8 568.5c12.5 0 22.6-10.1 22.6-22.6 0-12.5-10.1-22.6-22.6-22.6-12.5 0-22.6 10.1-22.6 22.6 0 12.5 10.1 22.6 22.6 22.6z"/><path fill="#5A9C4B" d="M895.2 480.4c-.9 1.5-2.4 3.8-4.1 4.9-3.6 2.3-9.4 4.5-17.2 6.6L525.7 581h38.1l316.9-81.1c7.9-2.1 13.3-4.3 16.9-6.6 7.2-4.5 6.4-9.2-2.4-12.9z"/><path fill="#E3EAD3" d="M739.4 561h13.3l13.7-14h30.7l30.4 31H722.8z"/><path fill="#C4D7B6" d="M780.1 559l-16 16h39.7l-16-16z"/><path fill="#FFF" d="M816.3 575.9L791.9 552H761l4.7-5H797l28.5 29z"/><path fill="#5A9C4B" d="M760.8 571l13.3-13.6c-.9-.2-1.8-.4-2.8-.4h-.9c-5.5.2-10.3 3.6-12.4 8.5-2.1-4.9-6.8-8.3-12.4-8.5h-.9c-.9 0-1.9.2-2.8.4l13.3 13.6h5.6z"/><path fill="#230545" d="M546.3 568.8c-4.1-12.7-16-21.9-30.1-21.9-3.7 0-7.2.6-10.6 2.2h-.5c-4.3-6.4-11.3-12.4-19.2-12.4-11.7 0-17.7 7.9-18.4 9.4h-.1c-.9-19.3-16.3-34.2-35.2-34.2-15.8 0-29.2 10.7-33.8 25.2-1.7-1.1-3.8-1.8-6-1.8-6.2 0-11.3 5.1-11.3 11.3 0 1.1.2 2.1.5 3.1-12.5.5-22.7 9.7-24.8 21.8l67.8 12.8c15.3 2.9 31 2.9 46.2-.1l75.5-15.4zm-502-18.2c-2.5 0-4.8.4-7 1.4h-.4c-2.9-4.3-7.5-8.2-12.8-8.2-7.8 0-11.8 5.2-12.3 6.2h-.1c-.4-8.5-5-15.7-11.7-19.6v55.4c0 6.3 5.7 11.1 12 10h.1c1.2-.2 2.4-.7 3.4-1.3l48.8-29.3c-2.7-8.5-10.6-14.6-20-14.6z"/><path fill="#447337" d="M1065.4 546.3c-3.3-4.5-8.7-7.4-14.7-7.4-2.2 0-4.2.4-6.1 1.1h-.4c-2.5-3.5-6.6-7-11.2-7-6.8 0-10.3 4.6-10.6 5.1-.5-10.9-9.5-19.6-20.5-19.6-8.7 0-16.2 5.6-19.1 13.3-2.1-.5-4.2-.9-6.5-.9-13.2 0-23.9 10.7-23.9 23.9s10.7 23.9 23.9 23.9c11.1 0 20.5-7.6 23.2-17.9 8.2 1.4 16.6 1.2 24.8-.4l5.8-1.2c-2.3 4.2-3.6 8.9-3.6 14 0 16 12.9 28 28.9 28 16 0 28-12 28-28-.1-12.2-7.1-22.8-18-26.9z"/><path fill="#230545" d="M913.3 581.1c17.4 0 31.6-14.1 31.6-31.6S930.8 518 913.3 518c-17.4 0-31.6 14.1-31.6 31.6s14.2 31.5 31.6 31.5z"/><path fill="#447337" d="M444.6 559.2c-1.8-10.6-11.1-18.7-22.2-18.7-10.6 0-19.5 7.3-21.9 17.2-16.5 1.1-29.5 14.8-29.5 31.5 0 17.4 14.1 31.6 31.6 31.6 6.4 0 12.3-1.9 17.2-5.1 2 .4 4.1.6 6.2.6 17.4 0 31.6-14.1 31.6-31.6 0-10.4-5.1-19.7-13-25.5z"/><path fill="#230545" d="M247.6 552.2c-1.8-10.6-11.1-18.7-22.2-18.7-10.6 0-19.5 7.3-21.9 17.2-16.5 1.1-29.5 14.8-29.5 31.5 0 17.4 14.1 31.6 31.6 31.6 6.4 0 12.3-1.9 17.2-5.1 2 .4 4.1.6 6.2.6 17.4 0 31.6-14.1 31.6-31.6 0-10.4-5.1-19.7-13-25.5zm626.9 38.9c12.5 0 22.6-10.1 22.6-22.6 0-12.5-10.1-22.6-22.6-22.6-12.5 0-22.6 10.1-22.6 22.6 0 12.5 10.1 22.6 22.6 22.6zM520.7 601c15.9 0 28.9-12.9 28.9-28.9 0-16-12.9-28.9-28.9-28.9-15.9 0-28.9 12.9-28.9 28.9.1 16 13 28.9 28.9 28.9z"/><path fill="#230545" d="M551.9 598.3c11.2 0 20.3-9.1 20.3-20.3 0-11.2-9.1-20.3-20.3-20.3-11.2 0-20.3 9.1-20.3 20.3 0 11.2 9.1 20.3 20.3 20.3z"/><path fill="#230545" d="M585.3 606.4c14.2 0 25.7-11.5 25.7-25.7S599.5 555 585.3 555s-25.7 11.5-25.7 25.7 11.5 25.7 25.7 25.7z"/><path fill="#447337" d="M819.7 576c2.5 0 4.7-1.5 5.6-3.9 3.8-9.3 10.8-16.9 20.3-20.9.5-.2.6-.6.5-1.1-.2-.5-.5-.6-1-.5-1.2.3-2.2.5-3.2.9-9.5 3.1-17.3 9.4-22.2 17.8-.3.5-.9.2-.8-.3 2.4-13 10.1-24.4 21.6-31.4.4-.3.5-.7.3-1.1-.2-.4-.7-.5-1.1-.4-1.4.5-2.5 1.1-3.6 1.6-13.5 7-22.8 19.9-25.6 34.5-.5 2.4 1.4 4.7 4 4.7 1.7.1 3.5.1 5.2.1z"/><path fill="#5A9C4B" d="M1226.3 489.5c-4.3-2.7-10.9-5-19.8-6.6l-197-35.6c-15.3-2.8-23.1-6.1-23.5-9.3-2.3 1.4-4.1 1.8-4.1 4.1.4 3.2 8.2 6.6 23.5 9.3l197 35.6c8.8 1.6 15.4 3.9 19.8 6.6 6.7 4.2 8 9.5 3.8 15 6.8-7.8 8.6-13.8.3-19.1zm-767.5 14.9c-.9 0-1.6-.5-2-1.4-1.4-3.2-3.9-6-7.2-7.3-.2-.1-.2-.2-.2-.4.1-.2.2-.3.4-.2.5.1.8.2 1.1.3 3.6 1.2 6.6 3.7 8.3 7-.6-5-3.4-9.3-7.8-12-.1-.1-.2-.3-.1-.4.1-.2.3-.2.4-.2.5.2.9.4 1.3.5 4.8 2.4 8.1 7 9 12.2.2.9-.5 1.6-1.4 1.6-.5.3-1.2.3-1.8.3z"/><path fill="#447337" d="M340.6 529.3c11.1 11 16.8 25.5 16.8 39.7h-2.8c0-13.6-5.6-27.9-16.2-38.5l2.2-1.2z"/><path fill="#DE5833" d="M338.5 532.4c2.5 0 4.5-2 4.5-4.5s-2-4.5-4.5-4.5-4.5 2-4.5 4.5c-.1 2.5 2 4.5 4.5 4.5z"/><path fill="#5A9C4B" d="M764.9 505.3c.9 0 1.6-.5 2-1.4 1.4-3.2 3.9-6 7.2-7.3.2-.1.2-.2.2-.4-.1-.2-.2-.3-.4-.2-.5.1-.8.2-1.1.3-3.6 1.2-6.6 3.7-8.3 7 .6-5 3.4-9.3 7.8-12 .1-.1.2-.3.1-.4-.1-.2-.3-.2-.4-.2-.5.2-.9.4-1.3.5-4.8 2.4-8.1 7-9 12.2-.2.9.5 1.6 1.4 1.6.6.3 1.3.3 1.8.3zm1025-100c.9 0 1.6-.5 2-1.2 1.4-2.8 3.9-5.2 7.2-6.4.2-.1.2-.2.2-.3-.1-.2-.2-.2-.4-.2-.5.1-.8.2-1.1.2-3.6 1-6.6 3.2-8.3 6.1.6-4.3 3.4-8.1 7.8-10.4.1-.1.2-.2.1-.3-.1-.2-.3-.2-.4-.2-.5.2-.9.3-1.3.5-4.8 2.1-8.1 6.1-9 10.6-.2.8.5 1.4 1.4 1.4.6.2 1.3.2 1.8.2zm-711.1 45c-.9 0-1.6-.5-2-1.4-1.4-3.2-3.9-6-7.2-7.3-.2-.1-.2-.2-.2-.4.1-.2.2-.3.4-.2.5.1.8.2 1.1.3 3.6 1.2 6.6 3.7 8.3 7-.6-5-3.4-9.3-7.8-12-.1-.1-.2-.3-.1-.4.1-.2.3-.2.4-.2.5.2.9.4 1.3.5 4.8 2.4 8.1 7 9 12.2.2.9-.5 1.6-1.4 1.6-.5.3-1.2.3-1.8.3zm159.9-14.5c.6 0 1.2-.5 1.4-1 1-2.4 2.7-4.4 5.1-5.5.1-.1.2-.2.1-.3 0-.1-.2-.2-.3-.2-.3.1-.5.2-.8.3-2.6.9-4.7 2.8-6 5.3.5-3.7 2.4-7 5.5-8.9.1-.1.1-.2.1-.3-.1-.1-.2-.2-.3-.1-.4.2-.6.3-.9.5-3.4 1.8-5.8 5.2-6.5 9.1-.1.6.4 1.3 1 1.3.7-.2 1.2-.2 1.6-.2zm-829.3 30.7c.6 0 1.2-.5 1.4-1 1-2.4 2.7-4.4 5.1-5.5.1-.1.2-.2.1-.3 0-.1-.2-.2-.3-.2-.3.1-.5.2-.8.3-2.6.9-4.7 2.8-6 5.3.5-3.7 2.4-7 5.5-8.9.1-.1.1-.2.1-.3-.1-.1-.2-.2-.3-.1-.4.2-.6.3-.9.5-3.4 1.8-5.8 5.2-6.5 9.1-.1.6.4 1.3 1 1.3.7-.2 1.1-.2 1.6-.2zm295.8 6.3c-.6 0-1.2-.5-1.4-1-1-2.4-2.7-4.4-5.1-5.5-.1-.1-.2-.2-.1-.3 0-.1.2-.2.3-.2.3.1.5.2.8.3 2.6.9 4.7 2.8 6 5.3-.5-3.7-2.4-7-5.5-8.9-.1-.1-.1-.2-.1-.3.1-.1.2-.2.3-.1.4.2.6.3.9.5 3.4 1.8 5.8 5.2 6.5 9.1.1.6-.4 1.3-1 1.3-.7-.2-1.1-.2-1.6-.2zm-680 31c-.6 0-1.2-.5-1.4-1-1-2.4-2.7-4.4-5.1-5.5-.1-.1-.2-.2-.1-.3 0-.1.2-.2.3-.2.3.1.5.2.8.3 2.6.9 4.7 2.8 6 5.3-.5-3.7-2.4-7-5.5-8.9-.1-.1-.1-.2-.1-.3.1-.1.2-.2.3-.1.4.2.6.3.9.5 3.4 1.8 5.8 5.2 6.5 9.1.1.6-.4 1.3-1 1.3-.7-.2-1.1-.2-1.6-.2z"/><path fill="#447337" d="M744 531.2c-16.1 16.1-24.4 37-24.4 57.8h2.7c0-19.9 8.1-40.6 23.5-56l-1.8-1.8z"/><path fill="#FFF" d="M744.9 538.1c3.5 0 6.3-2.8 6.3-6.3s-2.8-6.3-6.3-6.3-6.3 2.8-6.3 6.3c-.1 3.4 2.8 6.3 6.3 6.3z"/><path fill="#447337" d="M363 499h-4v107h4z"/><path fill="#230545" d="M1765.2 467.2c.5-1.8.8-3.8.8-5.7 0-11.9-9.6-21.5-21.5-21.5-6.1 0-11.5 2.5-15.4 6.5-4.7-2.2-10-3.5-15.5-3.5-7.8 0-14.9 2.4-20.8 6.6-4.4-1.9-9.3-3-14.4-3-19.9 0-36.1 16.2-36.1 36.1 0 12.9 6.7 24.1 16.8 30.5-3.8 4.7-6.1 10.7-6.1 17.2 0 15.2 12.3 27.5 27.5 27.5 14.1 0 25.7-10.6 27.3-24.2 1.4.7 2.9 1.4 4.4 1.9 8.2 12.8 22.5 21.3 38.8 21.3 25.4 0 46-20.6 46-46 0-20.3-13.3-37.7-31.8-43.7z"/><path fill="#230545" d="M1827.2 540.2c.5-1.8.8-3.8.8-5.7 0-11.9-9.6-21.5-21.5-21.5-6.1 0-11.5 2.5-15.4 6.5-4.7-2.2-10-3.5-15.5-3.5-7.8 0-14.9 2.4-20.8 6.6-4.4-1.9-9.3-3-14.4-3-19.9 0-36.1 16.2-36.1 36.1 0 12.9 6.7 24.1 16.8 30.5-3.8 4.7-6.1 10.7-6.1 17.2 0 15.2 12.3 27.5 27.5 27.5 14.1 0 25.7-10.6 27.3-24.2 1.4.7 2.9 1.4 4.4 1.9 8.2 12.8 22.5 21.3 38.8 21.3 25.4 0 46-20.6 46-46 0-20.3-13.3-37.7-31.8-43.7z"/><path fill="#447337" d="M1362.8 516.6l-1.6 1.6c14 13.9 21.4 32.7 21.3 50.7h2.5c0-18.8-7.6-37.8-22.2-52.3zm207.7-81.2l2.2.9c-7.7 18.1-7.3 38.5-.3 55.1l-2.3.9c-7.4-17.5-7.7-37.9.4-56.9zm27.3-2c-16.6 16.5-25.2 38.2-25.2 59.6h2.8c0-20.5 8.4-41.9 24.3-57.7l-1.9-1.9z"/><path fill="#FFF" d="M1601.4 438.5c3.7 0 6.8-3 6.8-6.8 0-3.7-3-6.8-6.8-6.8s-6.8 3-6.8 6.8c.1 3.8 3.1 6.8 6.8 6.8zm-240 85.8c3.7 0 6.8-3 6.8-6.8 0-3.7-3-6.8-6.8-6.8-3.7 0-6.8 3-6.8 6.8 0 3.7 3 6.8 6.8 6.8z"/><path fill="#447337" d="M1470 448h-3v75h3z"/><path fill="#FFF" d="M1468.8 453.9c2.2 0 4.1-1.8 4.1-4.1s-1.8-4.1-4.1-4.1c-2.2 0-4.1 1.8-4.1 4.1s1.8 4.1 4.1 4.1zm102.8-15.4c2.2 0 4.1-1.8 4.1-4.1s-1.8-4.1-4.1-4.1-4.1 1.8-4.1 4.1 1.9 4.1 4.1 4.1zM1442.8 488h-10.5l-77.3 76.5V591h11v-26.5zm81.4-56h-9.6l-56 56h11.4z"/><path fill="#E3EAD3" d="M1531 480.8V432h-7.6l-55.4 56h-26.5l-75.5 76.2V590h91v-30h29v-25.9l30-30.1h-8.2z"/><path fill="#E3EAD3" d="M1675 464h-108.3l-32-32h-4.7v8h4.8l32 32H1683z"/><path fill="#C4D7B6" d="M1699 488l-16-16h-115v-.3l-.3.3h-.1l-32-32h-4.6v28l-37 36h-16.9l-30.1 29.3v9.7h-31.6l-46.6 47H1740v-82l-20-20z"/><path fill="#C4D7B6" d="M1468 582h-103v8h103z"/><path fill="#E3EAD3" d="M1365 582h-10v8h10z"/><path fill="#ABBDA0" d="M1679.6 508l-20.8-21H1638v29.7l-18.7-18.7h-62.4l-40.5 41h-31.6l-26.6 27H1740v-58z"/><path fill="#447337" d="M1484.8 559c0-9.9-8-18-18-18-.9 0-1.7.1-2.6.2-6-9.4-16.3-15.6-28.2-15.6-14 0-25.9 8.6-30.9 20.8-3.2-3.2-7.8-5.3-12.8-5.3-9.9 0-18 8-18 18h18.4c-.2 1-.3 2-.3 2.9.1 6.1 4.7 11.4 10.7 12.3 7.8 1.2 14.5-4.9 14.5-12.5 0-.9-.1-1.8-.3-2.7h67.5v-.1z"/><path fill="#B37624" d="M1278 509v79h106v-83.1c0-2.7-2.2-4.9-4.9-4.9H1287c-4.9 0-9 4.1-9 9z"/><path fill="#CC8729" d="M1277.1 502.2l-3.9 3.9c-1.4 1.4-2.2 3.2-2.2 5.2v7.4c0 12.9-7.7 24.8-18.8 30-7.6 3.6-12.2 11.3-12.2 19.7v15.2c0 2.5 2 4.5 4.5 4.5h31c2.5 0 4.5-2 4.5-4.5V518c0-5 4.1-9 9-9h78v-9h-84.7c-2 0-3.9.8-5.2 2.2z"/><path fill="#9C452D" d="M1396.3 549.3c-7.4-3.9-12.3-12-12.3-20.8V509h-17v10.5c0 13.3-10.9 30.5-30.8 30.5h-36.3c-6 0-10.8 4.9-10.8 10.8v13.3c0 6 4.9 10.8 10.8 10.8H1406v-19.4c0-6.7-3.7-13.1-9.7-16.2zm-60.6.7h10.1-10.1z"/><path fill="#6FBF5C" d="M1334.6 545.6c-7.4-1.4-14.7.1-20.7 3.6l6.4-15.4c-6.5 2.7-11.6 7.5-14.6 13.3-3.1-5.8-8.1-10.7-14.6-13.4l10.2 24.4h14.4l18.9-12.5z"/><path fill="#5A9C4B" d="M610.5 461.3l54.2-21.1-33.2-5.6-22.9 24c-3 3.1-2.1 4.3 1.9 2.7z"/><path fill="#FFC680" d="M982 442.1c0 .3.1.5.2.7-.2-.5-.2-.8-.2-.7z"/><path fill="#230545" d="M1991.1 469.1c-7.9-6.4-17.9-10.2-28.8-10.2-23 0-42 17-45.2 39.1-5 .9-9.4 3.4-12.7 6.9-5.2-3.2-11.4-5-17.9-5-15.8 0-29.2 10.7-33.2 25.2-1.2-.2-2.5-.2-3.8-.2-16.8 0-30.5 13.7-30.5 30.5s13.7 30.5 30.5 30.5c12.3 0 22.9-7.3 27.7-17.8 4.4 10.8 14.2 18.8 26.1 20.5 2.8.4 5.7 0 8.3-.9l88.4-32.4V468c-3 .2-6 .5-8.9 1.1z"/><path fill="#447337" d="M1202.4 534.6c-9.8-23.8-29.2-35.6-29.2-35.6l20.4 49.1c-8.7-14.2-18.4-22.4-18.4-22.4l20.1 48.2h23.4l-16.3-39.3z"/><path fill="#6FBF5C" d="M962.6 512.3c7.8-18.2.5-27.2.5-27.2l-15.9 37.5c2.5-10.8.3-17.1.3-17.1l-17.7 42.2 20.1-5.4 12.7-30z"/><path fill="#FFF" d="M353.8 494c0 4 3.2 7.2 7.2 7.2s7.2-3.2 7.2-7.2h-14.4z"/><path fill="#230545" d="M705.4 559.1c-.8 0-1.7.1-2.5.2-.1-.1-.2-.2-.4-.3-6.8-6.1-15.7-9.9-25.5-9.9-3 0-5.8.4-8.6 1-1.4-2.3-4-3.7-6.8-3.7-1.2 0-2.3.3-3.2.6-2.8-4.7-8-7.9-13.9-7.9-8.7 0-15.8 6.9-16.2 15.4-.3 0-.6-.1-.9-.1-4.5 0-8.1 3.6-8.1 8.1 0 .9.2 1.8.5 2.6-4.1 2.8-6.8 7.2-6.8 12.7h110.4c0-9.7-8.1-18.7-18-18.7z"/><path fill="#A1D6FF" d="M1056 506h-52.5c.7 2.7 26.4 11.7 40.2 11.7 14.1 0 12.2-7.7 12.3-11.7z"/><path fill="#E3EAD3" d="M1056 496.9l-7-7V478h-10.3l-14 14h-5.4l-11.9 11.8 2.2 2.2h46.4z"/><path fill="#C4D7B6" d="M1041 497.6V492h-4.7l-14 14h27.1z"/><path d="M1049 489.8v5.3l7 7v-5.3zm-40 16.2l9-9h6.7l14-14h10.3v-5h-10.3l-14 14h-6.9l-14 14z" fill="#FFF"/><path fill="#447337" d="M1844.4 546.3c-3.3-4.5-8.7-7.4-14.7-7.4-2.2 0-4.2.4-6.1 1.1h-.4c-2.5-3.5-6.6-7-11.2-7-6.8 0-10.3 4.6-10.6 5.1-.5-10.9-9.5-19.6-20.5-19.6-8.7 0-16.2 5.6-19.1 13.3-2.1-.5-4.2-.9-6.5-.9-13.2 0-23.9 10.7-23.9 23.9s10.7 23.9 23.9 23.9c11.1 0 20.5-7.6 23.2-17.9 8.2 1.4 16.6 1.2 24.8-.4l5.8-1.2c-2.3 4.2-3.6 8.9-3.6 14 0 16 12.9 28 28.9 28 16 0 28-12 28-28-.1-12.2-7.1-22.8-18-26.9z"/><path fill="#9BD96F" d="M1258.4 567.6c-2.5 0-4.7-1.5-5.6-3.9-3.8-9.3-10.8-16.9-20.3-20.9-.5-.2-.6-.6-.5-1.1.2-.5.5-.6 1-.5 1.2.3 2.2.5 3.2.9 10.3 3.3 18.6 10.6 23.5 20-1.8-14-9.8-26.4-21.9-33.9-.4-.3-.5-.7-.3-1.1.2-.4.7-.5 1.1-.4 1.4.5 2.5 1.1 3.6 1.6 13.5 6.9 22.8 19.9 25.6 34.6.5 2.4-1.4 4.7-4 4.7h-5.4z"/><path fill="#9C452D" d="M426.4 506.7c-1.2 1.3-3.4.4-3.4-1.4v-18.8c0-.8-1-1.2-1.5-.6-3.5 3.6-5.5 8.6-5.5 13.7V538c0 3.2-.8 6.5-2.3 9.3-1.7 2.9-2.7 6.3-2.7 10v16.6c0 2.3 1.7 4.2 3.8 4.2h4.1c2.2 0 4-1.8 4-4.2v-50.6c0-4.2 1.7-8.3 4.5-11.3l6-6.2c.3-.3.5-.6.7-.9l-7.7 1.8z"/><path fill="#B37624" d="M434.1 498.9l-7.7 7.7c-4.3 4.4-6.9 10.4-7.4 16.5v54.3c2.7-.3 4.2-2 4-4.1v-50.6c.2-4.2 1.9-8.3 4.9-11.3l6.2-6.2c1.8-1.7 1.8-4.5 0-6.3z"/><path fill="#9C452D" d="M1607 490.9c-1.9 1.7-3 4.2-3 6.7v3.3c0 1.7-.7 3.3-1.9 4.5l-4.1 4.1V479c-2.5 2.3-4 5.6-4 9v33.3l-5.1-5.1c-1.2-1.2-1.9-2.9-1.9-4.6v-2.3c0-2.6-1.1-5-3-6.7v11.6c0 1.8.7 3.5 2 4.8l5.8 5.8c1.4 1.4 2.2 3.3 2.2 5.3v22.1l4-3.6v-31.3c0-2 .8-3.9 2.2-5.2l4.9-4.9c1.3-1.3 2-3 2-4.8v-11.5h-.1zm-62.3 20.2c-1.5 0-2.9.6-4 1.6l-8.3 7.9c-3.1 3.1-8.4.9-8.4-3.4v-21.8c0-1.6-2-2.4-3.1-1.3l-5.2 5.1c-1.7 1.7-2.7 4-2.7 6.4V591h11v-42.8c0-6.2 2.6-11.8 7.1-16.2l15.9-15.9c1.8-1.8.4-5-2.3-5z"/><path fill="#B37624" d="M1522.3 499.2l1.7-1.9v-2c0-1.6-2-2.4-3.1-1.3l-5.2 5.1c-1.7 1.7-2.7 4-2.7 6.4V591h6v-84.3c0-2.7 1.6-5.7 3.3-7.5z"/><path fill="#447337" d="M1621.7 573.9c15 0 27.1-12.1 27.1-27.1 0-15-12.1-27.1-27.1-27.1-15 0-27.1 12.1-27.1 27.1.1 15 12.2 27.1 27.1 27.1zm109-1c15 0 27.1-12.1 27.1-27.1 0-15-12.1-27.1-27.1-27.1-15 0-27.1 12.1-27.1 27.1.1 15 12.2 27.1 27.1 27.1z"/><path fill="#447337" d="M1655.7 564.9c15 0 27.1-12.1 27.1-27.1 0-15-12.1-27.1-27.1-27.1-15 0-27.1 12.1-27.1 27.1.1 15 12.2 27.1 27.1 27.1z"/><path fill="#447337" d="M1692.7 555.9c15 0 27.1-12.1 27.1-27.1 0-15-12.1-27.1-27.1-27.1-15 0-27.1 12.1-27.1 27.1.1 15 12.2 27.1 27.1 27.1zm-1406.4-5.4l24.1-57.9S289.8 506 277 532c-6.1 12.5-26 49-26 49h33.7l23.3-57s-11.5 9.8-21.7 26.5z"/><path fill="#6FBF5C" d="M1163 578h4v-27.6c-2.1 0-3.7 1.6-4 3.6v24zm-7 0h4v-13.1c-2.3 0-3.9 1.6-4 3.6v9.5z"/><path fill="#8ACCFF" d="M1198.1 398.2c-1.3-.8-5.2-1.4-11.6-2.1 0 0-117.1-10.9-155.9-14.1h-.7c0 .1-.1.1-.1.2-.2.8.7 1.2 1.4 1.3 37.6 3.2 149.8 16.5 149.8 16.5 3.2.4 5.7.6 7.6 1h.6l8.7-1.4c.6-.1.8-1 .2-1.4z"/><path fill="#6FBF5C" d="M1030 381.7c-.5.2-.2.6.5.8h.1c.3 0 131.2 11.7 160.2 14.9 3.1.4 5.7.7 6.4 1.8l.1.1c.1.1.2.2.2.3.1.1.2.2.3.2 0 0 .1 0 .1.1.1 0 .2.1.2.1.1 0 .3.1.4.1h.4c.5.1 1-.1 1.3-.5.4-.4.6-1.1.3-1.7-.1-.1-.1-.3-.3-.4-.1-.2-.3-.3-.5-.5-.4-.3-.9-.5-1.4-.7l-.9-.3c-1.3-.4-3.1-.6-5.4-.9l-162-13.4z"/><path fill="#9BD96F" d="M930 378l-4.7-18.9-4.8 18.9z"/><path fill="#6FBF5C" d="M785.6 372l-4.9-19.9-5 19.9zm-48.3-6l-5.4-21.7-5.4 21.7zM592 351l-5.4-21.7-5.4 21.7zm-115.5-23l-5.4-21.7-5.4 21.7zm-138.1 11l-5.4-21.7-5.4 21.7zm-149-19l-5.4-21.7-5.4 21.7zm-162-19L22 279.3 16.6 301z"/><path fill="#6FBF5C" d="M34.4 309L29 287.3 23.6 309zm52 10L81 297.3 75.6 319zm117 8l-5.4-21.7-5.4 21.7zm80.9 20l-4.1-16.2-4 16.2zm1255.2-9.9l-4.4-16.2-4.4 16.2c-.3 1 .5 1.9 1.6 1.9h5.7c1.1 0 1.8-.9 1.5-1.9z"/><path fill="#9BD96F" d="M682.3 362.3l-3.6-14.5-3.6 14.5c-.2.8.5 1.7 1.3 1.7h4.6c.8 0 1.5-.8 1.3-1.7zm-236-12l-3.6-14.5-3.6 14.5c-.2.8.5 1.7 1.3 1.7h4.6c.8 0 1.5-.8 1.3-1.7zm-283-33l-3.6-14.5-3.6 14.5c-.2.8.5 1.7 1.3 1.7h4.6c.8 0 1.5-.8 1.3-1.7zm-128 9l-3.6-14.5-3.6 14.5c-.2.8.5 1.7 1.3 1.7H34c.8 0 1.5-.8 1.3-1.7zm592.8 30l-2.7-12.7-2.7 12.7c-.2.8.4 1.7 1 1.7h3.4c.7 0 1.1-.8 1-1.7zm-372-18l-2.7-12.7-2.7 12.7c-.2.8.4 1.7 1 1.7h3.4c.7 0 1.1-.8 1-1.7zm-47 0l-2.7-12.7-2.7 12.7c-.2.8.4 1.7 1 1.7h3.4c.7 0 1.1-.8 1-1.7zm361.1 13.4l-2.7-11.4-2.7 11.4c-.2.6.4 1.3 1 1.3h3.4c.6 0 1.1-.6 1-1.3zm-110-14l-2.7-11.4-2.7 11.4c-.2.6.4 1.3 1 1.3h3.4c.6 0 1.1-.6 1-1.3zm915.8 18l-2.7-11.4-2.7 11.4c-.2.6.4 1.3 1 1.3h3.4c.6 0 1.1-.6 1-1.3zm114-9l-2.7-11.4-2.7 11.4c-.2.6.4 1.3 1 1.3h3.4c.6 0 1.1-.6 1-1.3zm126 3l-2.7-11.4-2.7 11.4c-.2.6.4 1.3 1 1.3h3.4c.6 0 1.1-.6 1-1.3zm138-24l-2.7-11.4-2.7 11.4c-.2.6.4 1.3 1 1.3h3.4c.6 0 1.1-.6 1-1.3zm235-4l-2.7-11.4-2.7 11.4c-.2.6.4 1.3 1 1.3h3.4c.6 0 1.1-.6 1-1.3zm-62 17l-2.7-11.4-2.7 11.4c-.2.6.4 1.3 1 1.3h3.4c.6 0 1.1-.6 1-1.3zm-738.4 23l-2.7-11.4-2.7 11.4c-.2.6.4 1.3 1 1.3h3.4c.6 0 1.1-.6 1-1.3zm518-17l-2.7-11.4-2.7 11.4c-.2.6.4 1.3 1 1.3h3.4c.6 0 1.1-.6 1-1.3z"/><path fill="#6FBF5C" d="M444.9 336.3l-3.6-14.5-3.6 14.5c-.2.8.5 1.7 1.3 1.7h4.6c.9 0 1.5-.8 1.3-1.7z"/><path fill="#9BD96F" d="M841.1 364.3l-3.6-14.5-3.6 14.5c-.2.8.5 1.7 1.3 1.7h4.6c.9 0 1.5-.8 1.3-1.7z"/><path fill="#6FBF5C" d="M859.6 374l-4.9-19.9-5 19.9zm23.5 3l-5-19.9-4.9 19.9z"/><path fill="#5A9C4B" d="M1237.4 403.2c-.9-.2-1.7-.2-2.6-.2h-45.9l-4.5 5h-4.4v6h-22.4c-.4.2-.5.7-.2.9l3.2 1.7c1.4.7 4.7 1.4 4.7 1.4h30.7c1.9 0 3.8-.3 5.5-.9 1.8-.6 3.3-1.7 4.5-3.1l1.4-1.6c2-2.2 4.7-3.5 7.6-3.5h-.4 22.5c3.7.1 3.8-5.1.3-5.7z"/><path fill="#E3EAD3" d="M1192.2 405l11-11h10.8v4h13.9l6 6h2.3c.8 0 1.2-1 .6-1.5l-17.4-17.5h-15.7l-14 14h-19.9l-13.4 13.4c-.6.6-.2 1.6.7 1.6h9.7l9-9h16.4z"/><path fill="#C4D7B6" d="M1209.2 404h24.7l-6-6H1214v-4h-10.8l-11 11h-16.5l-9 9h29.5c1 0 1.9-.4 2.5-1.1l7.8-7.8c.8-.7 1.7-1.1 2.7-1.1z"/><path fill="#FFF" d="M1161.2 412.5l12.5-12.5h-4.4l-12.5 12.5c-.5.5-.2 1.5.6 1.5h4.4c-.7 0-1.1-1-.6-1.5zm45.1-27.5h-2.6l-14 14h2.6z"/><path fill="#6FBF5C" d="M822.2 392h-5.9l4.1-1h-3.6l-4.5 1H808c-1.4-.5-2.7 0-3.9.6l-10.9 6c-.4.2-.2.7.3.6l29.1-7.3c.3 0 .5-.4-.4.1z"/><path fill="#B37624" d="M817 382v8.3c.2.4 1 .6 2 .6s1.8-.3 2-.6V382h-4z"/><path fill="#9C452D" d="M821 381h-4v5h4z"/><path fill="#5A9C4B" d="M811.1 370l8-41.4 7 41.4h-2.2l2.2 14h-15l2.3-14z"/><path fill="#6FBF5C" d="M822.6 370l-3.6-41.4 7.6 41.4h-2.2l2.2 14h-4l-2.2-14zm-805.2 1h-5l3.2-1.1-.5-.9h-2l-5.7 2H3.1c-.7 0-1.9 0-2.9.2v4.1l17.2-4.3z"/><path fill="#B37624" d="M12 361v8.3c.2.4 1 .6 2 .6s1.8-.3 2-.6V361h-4z"/><path fill="#9C452D" d="M16 360h-4v5h4z"/><path fill="#5A9C4B" d="M6.1 349l8-41.4 7 41.4h-2.2l2.2 14h-15l2.3-14z"/><path fill="#6FBF5C" d="M17.6 349L14 307.6l7.6 41.4h-2.2l2.2 14h-4l-2.2-14zm1144.9 36h3.8l-3-2h2.7l3 2h2.8c.9.5 1.7.8 2.5 1.3l7 3.9c.3.1.1.5-.2.5l-18.9-4.7c-.2-.2-.3-.5.3-1z"/><path fill="#B37624" d="M1166 374v9.6c0 .3-.5.5-1.2.5s-1.2-.2-1.8-.5V374h3z"/><path fill="#9C452D" d="M1163 378h3v-5h-3z"/><path fill="#5A9C4B" d="M1170.1 365l-5.1-26.5v-.1.1-.1l-.7 4.3-4.2 22.3h1.4l-1.4 9h10l-1.4-9z"/><path fill="#6FBF5C" d="M1737.5 354h3.8l-3-2h2.7l3 2h2.8c.9.5 1.7.8 2.5 1.3l7 3.9c.3.1.1.5-.2.5l-18.9-4.7c-.2-.2-.3-.5.3-1z"/><path fill="#B37624" d="M1741 343v9.6c0 .3-.5.5-1.2.5s-1.2-.2-1.8-.5V343h3z"/><path fill="#9C452D" d="M1738 347h3v-5h-3z"/><path fill="#5A9C4B" d="M1745.1 334l-5.1-26.5v-.1.1-.1l-.7 4.3-4.2 22.3h1.4l-1.4 9h10l-1.4-9z"/><path fill="#6FBF5C" d="M1685.5 348h3.8l-3-2h2.7l3 2h2.8c.9.5 1.7.8 2.5 1.3l7 3.9c.3.1.1.5-.2.5l-18.9-4.7c-.2-.2-.3-.5.3-1z"/><path fill="#B37624" d="M1689 337v9.6c0 .3-.5.5-1.2.5s-1.2-.2-1.8-.5V337h3z"/><path fill="#9C452D" d="M1686 341h3v-5h-3z"/><path fill="#5A9C4B" d="M1693.1 328l-5.1-26.5v-.1.1-.1l-.7 4.3-4.2 22.3h1.4l-1.4 9h10l-1.4-9z"/><path fill="#6FBF5C" d="M1580.5 359h3.8l-3-2h2.7l3 2h2.8c.9.5 1.7.8 2.5 1.3l7 3.9c.3.1.1.5-.2.5l-18.9-4.7c-.2-.2-.3-.5.3-1z"/><path fill="#B37624" d="M1584 348v9.6c0 .3-.5.5-1.2.5s-1.2-.2-1.8-.5V348h3z"/><path fill="#9C452D" d="M1581 352h3v-5h-3z"/><path fill="#5A9C4B" d="M1588.1 339l-5.1-26.5v-.1.1-.1l-.7 4.3-4.2 22.3h1.4l-1.4 9h10l-1.4-9z"/><path fill="#6FBF5C" d="M904.3 396.9l-18.9 4.7c-.3 0-.5-.4-.2-.5l7-3.9c.8-.5 1.6-.7 2.5-1.3h2.8l3-2h2.7l-3 2h3.8c.7.6.6.9.3 1z"/><path fill="#B37624" d="M903.6 385v9.6c-.7.3-1.1.5-1.8.5s-1.2-.2-1.2-.5V385h3z"/><path fill="#9C452D" d="M903.6 384h-3v5h3z"/><path fill="#5A9C4B" d="M897.9 376l-1.4 9h10l-1.4-9h1.4l-4.2-22.3-.7-4.3v.1-.1.1l-5.1 26.5z"/><path fill="#6FBF5C" d="M273.3 414.9l-18.9 4.7c-.3 0-.5-.4-.2-.5l7-3.9c.8-.5 1.6-.7 2.5-1.3h2.8l3-2h2.7l-3 2h3.8c.7.6.6.9.3 1z"/><path fill="#B37624" d="M272.6 403v9.6c-.7.3-1.1.5-1.8.5s-1.2-.2-1.2-.5V403h3z"/><path fill="#9C452D" d="M272.6 402h-3v5h3z"/><path fill="#5A9C4B" d="M266.9 394l-1.4 9h10l-1.4-9h1.4l-4.2-22.3-.7-4.3v.1-.1.1l-5.1 26.5z"/><path fill="#6FBF5C" d="M744.8 452.8l6.8 2.2c.2.1.5.1.6.2 1.4.5 2.8.7 4.2.9l19.3 3h-36.5c-6.7 0-12.2-5.4-12.2-12.2v-.9c0-7.3 6-11.5 12.9-12.5 1.7-.3 3.5-.3 5.3-.1l10.6 1.2-8.2 1.9c-3.8.9-8.7 2.3-12.2 4.2-1.9 1.1-3.2 4.5-1.6 5.9 3.3 2.8 7 4.9 11 6.2z"/><path fill="#5A9C4B" d="M1160 444.6c-2 .8-6.7 0-10.3-1.8-1.8-.9-1.7-2.3.4-3 2.1-.7 5.1-.7 7 .2 3.6 1.7 4.9 3.8 2.9 4.6z"/><path fill="#C4D7B6" d="M1153.4 436.7c-3 0-5.4 1.6-5.4 3.6 0 1 2.4 1.8 5.4 1.8 3 0 5.4-.8 5.4-1.8 0-2-2.5-3.6-5.4-3.6z"/><path fill="#E3EAD3" d="M1150 441.7c0-2 2.4-3.6 5.4-3.6.8 0 1.6.1 2.3.4-1-1-2.6-1.7-4.6-1.7-3 0-5.4 1.6-5.4 3.6 0 .6.9 1.1 2.3 1.3z"/><path fill="#5A9C4B" d="M809.5 490.5c2 .8 6.7 0 10.3-1.8 1.8-.9 1.7-2.3-.4-3-2.1-.7-5.1-.7-7 .2-3.6 1.7-5 3.7-2.9 4.6z"/><path fill="#C4D7B6" d="M816.1 482.6c3 0 5.4 1.6 5.4 3.6 0 1-2.4 1.8-5.4 1.8-3 0-5.4-.8-5.4-1.8 0-2 2.4-3.6 5.4-3.6z"/><path fill="#E3EAD3" d="M819 487.6c0-2-2.4-3.6-5.4-3.6-.8 0-1.6.1-2.3.4 1-1 2.6-1.7 4.6-1.7 3 0 5.4 1.6 5.4 3.6 0 .5-.9 1.1-2.3 1.3z"/><path fill="#5A9C4B" d="M430.5 467.5c2 .8 6.7 0 10.3-1.8 1.8-.9 1.7-2.3-.4-3-2.1-.7-5.1-.7-7 .2-3.6 1.7-5 3.7-2.9 4.6z"/><path fill="#C4D7B6" d="M437.1 459.6c3 0 5.4 1.6 5.4 3.6 0 1-2.4 1.8-5.4 1.8-3 0-5.4-.8-5.4-1.8 0-2 2.4-3.6 5.4-3.6z"/><path fill="#E3EAD3" d="M440 464.6c0-2-2.4-3.6-5.4-3.6-.8 0-1.6.1-2.3.4 1-1 2.6-1.7 4.6-1.7 3 0 5.4 1.6 5.4 3.6 0 .5-.9 1.1-2.3 1.3z"/><path fill="#5A9C4B" d="M22.5 472.5c2 .8 6.7 0 10.3-1.8 1.8-.9 1.7-2.3-.4-3-2.1-.7-5.1-.7-7 .2-3.6 1.7-5 3.7-2.9 4.6z"/><path fill="#C4D7B6" d="M29.1 464.6c3 0 5.4 1.6 5.4 3.6 0 1-2.4 1.8-5.4 1.8-3 0-5.4-.8-5.4-1.8 0-2 2.4-3.6 5.4-3.6z"/><path fill="#E3EAD3" d="M32 469.6c0-2-2.4-3.6-5.4-3.6-.8 0-1.6.1-2.3.4 1-1 2.6-1.7 4.6-1.7 3 0 5.4 1.6 5.4 3.6 0 .5-.9 1.1-2.3 1.3z"/><path fill="#5A9C4B" d="M1248.3 462.4c-3.3 1.2-11.1 0-17.2-2.8-3.1-1.4-2.8-3.5.5-4.7 3.3-1.2 8.6-1.1 11.6.3 6.3 2.8 8.5 6 5.1 7.2z"/><path fill="#C4D7B6" d="M1237.3 450.3c-5 0-9 2.5-9 5.6 0 1.5 4.1 2.8 9 2.8 5 0 9-1.3 9-2.8 0-3.1-4.1-5.6-9-5.6z"/><path fill="#E3EAD3" d="M1232 458c0-3.1 4.1-5.6 9-5.6 1.4 0 2.7.2 3.9.5-1.6-1.6-4.4-2.7-7.7-2.7-5 0-9 2.5-9 5.6 0 1 1.5 1.9 3.8 2.2z"/><path fill="#6FBF5C" d="M1726.3 365.3c-2.1.7-7 0-10.9-1.8-1.9-.9-1.8-2.2.3-3 2.1-.7 5.4-.7 7.4.2 4 1.8 5.4 3.8 3.2 4.6z"/><path fill="#C4D7B6" d="M1719.3 357.6c-3.1 0-5.7 1.6-5.7 3.5 0 1 2.6 1.8 5.7 1.8s5.7-.8 5.7-1.8c.1-1.9-2.5-3.5-5.7-3.5z"/><path fill="#E3EAD3" d="M1716 362.5c0-1.9 2.6-3.5 5.7-3.5.9 0 1.7.1 2.5.3-1-1-2.8-1.7-4.9-1.7-3.1 0-5.7 1.6-5.7 3.5 0 .6 1 1.2 2.4 1.4z"/><path fill="#5A9C4B" d="M695.6 504.9c3.3 1.2 11.1 0 17.2-2.8 3.1-1.4 2.8-3.5-.5-4.7-3.3-1.2-8.6-1.1-11.6.3-6.2 2.7-8.5 5.9-5.1 7.2z"/><path fill="#C4D7B6" d="M706.6 492.7c5 0 9 2.5 9 5.6 0 1.5-4.1 2.8-9 2.8s-9-1.3-9-2.8c0-3.1 4.1-5.6 9-5.6z"/><path fill="#E3EAD3" d="M712 500.4c0-3.1-4.1-5.6-9-5.6a16 16 0 0 0-3.9.5c1.6-1.6 4.4-2.7 7.7-2.7 5 0 9 2.5 9 5.6 0 1-1.5 1.9-3.8 2.2z"/><path fill="#447337" d="M1100 532h-4v46h4z"/><path fill="#DE5833" d="M1106 529.7v-1.4c.4-.3.8-.5 1.2-.8 2.1-2.1 2.6-10.2 2.6-10.2s-8.1.5-10.2 2.6c-.4.4-.6.7-.8 1.2h-1.4c-.3-.4-.5-.8-.8-1.2-2.1-2.1-10.2-2.6-10.2-2.6s.5 8.1 2.6 10.2c.4.4.7.6 1.2.8v1.4c-.4.3-.8.5-1.2.8-2.1 2.1-2.6 10.2-2.6 10.2s8.1-.5 10.2-2.6c.4-.4.6-.7.8-1.2h1.4c.3.4.5.8.8 1.2 2.1 2.1 10.2 2.6 10.2 2.6s-.5-8.1-2.6-10.2c-.5-.2-.8-.5-1.2-.8z"/><path fill="#FFC16C" d="M1098.3 533.3c2.5 0 4.5-2 4.5-4.5s-2-4.5-4.5-4.5-4.5 2-4.5 4.5 2 4.5 4.5 4.5z"/><path fill="#447337" d="M72 489h-4v46h4z"/><path fill="#DE5833" d="M78 486.7v-1.4c.4-.3.8-.5 1.2-.8 2.1-2.1 2.6-10.2 2.6-10.2s-8.1.5-10.2 2.6c-.4.4-.6.7-.8 1.2h-1.4c-.3-.4-.5-.8-.8-1.2-2.1-2.1-10.2-2.6-10.2-2.6s.5 8.1 2.6 10.2c.4.4.7.6 1.2.8v1.4c-.4.3-.8.5-1.2.8-2.1 2.1-2.6 10.2-2.6 10.2s8.1-.5 10.2-2.6c.4-.4.6-.7.8-1.2h1.4c.3.4.5.8.8 1.2 2.1 2.1 10.2 2.6 10.2 2.6s-.5-8.1-2.6-10.2c-.5-.2-.8-.5-1.2-.8z"/><path fill="#FFC16C" d="M70.3 490.3c2.5 0 4.5-2 4.5-4.5s-2-4.5-4.5-4.5-4.5 2-4.5 4.5 2 4.5 4.5 4.5z"/><path fill="#447337" d="M1119 549h-4v29h4z"/><path fill="#DE5833" d="M1117.3 562.4c4 0 7.2-3.2 7.2-7.2s-3.2-7.2-7.2-7.2-7.2 3.2-7.2 7.2 3.2 7.2 7.2 7.2z"/><path fill="#FFC16C" d="M1117.3 558.8c2 0 3.6-1.6 3.6-3.6s-1.6-3.6-3.6-3.6-3.6 1.6-3.6 3.6c-.1 1.9 1.6 3.6 3.6 3.6z"/><path fill="#6FBF5C" d="M1221 404h2v-8.8c-1.1 0-2 .8-2 1.8v7zm-4 0h2v-4.3c-.8 0-1.6.8-2 1.8v2.5z"/><path fill="#E3EAD3" d="M988.4 419l-4.5-5h-14.8l-6 6H953l-5 5h53.6l-6-6z"/><path d="M962.9 420H953l-2 2h10.1zm23.5 1h8.1l4.5 4h3.5l-6-6h-8.1l-4.5-5h-14.6l-3.3 3h16.8z" fill="#FFF"/><path fill="#447337" d="M1094.7 557.7c-5 0-9-4.1-9-9 4.9-.1 9 4 9 9zm26.2 13.5c0-4 3.2-7.2 7.2-7.2 0 4-3.3 7.2-7.2 7.2z"/><path fill="#6FBF5C" d="M1216.1 364l-5-19.9-4.9 19.9zm106.5-9l-5-19.9-5 19.9zm78.5-3l-5-19.9-4.9 19.9zm104.4-9l-5-19.9-4.9 19.9zm-25.9 7l-5-19.9-4.9 19.9zm229.2-22l-4.9-19.9-5 19.9zm61 1l-4.9-19.9-5 19.9zm177-6l-4.9-19.9-5 19.9zm29-13l-4.9-19.9-5 19.9zm-37 22l-4.9-19.9-5 19.9zm-304.7 15l-5-19.9-4.9 19.9z"/><path d="M1374 581h-5v-48.6c2.6 0 4.6 2 5 4.5V581zm4-6h5v-24.6c-.4-2.5-2.4-4.5-5-4.5V575zM677 447c-.8 0-1.5.2-2.3.5l-3.4 1.9c-1 .5-1 1 0 1s2.6-.5 3.6-1c3.1-1.4 2.8-2.4 2.1-2.4z" fill="#5A9C4B"/><path fill="#447337" d="M678 433v13.6c0 .4-.6.9-1.1.9-.5 0-.9-.4-.9-.9V433h2z"/><path fill="#DE5833" d="M676.9 434.9c2.5 0 4.5-2 4.5-4.5s-2-4.5-4.5-4.5-4.5 2-4.5 4.5 2 4.5 4.5 4.5z"/><path fill="#FFC16C" d="M676.9 432.2c1 0 1.8-.8 1.8-1.8s-.8-1.8-1.8-1.8-1.8.8-1.8 1.8.8 1.8 1.8 1.8z"/><path d="M1431.4 147l-1.4 1.4c-.5 0-.9-.1-1.4-.1-5.5 0-10.6 1.9-14.3 5.7h6.4c-2.5 3.2-3.8 7.1-3.9 10.9l10.7-10.9h15.3c-1.8-1.9-4-3.2-6.3-4.2l9-8.9c-5.1.2-10.2 2.1-14.1 6.1zm-66.7 37.5c-.1 0-.1.1 0 0-.3.1-.5.1-.6 0l-.1-.1c-4.4-3.2-10.2-4.7-16-4.9l7.7 5.4c-2.4.6-4.6 1.9-6.4 4.1h23.8c-.8-.9-1.6-1.7-2.5-2.3l10.1-7.1c-5.9.1-11.6 1.7-16 4.9z" fill="#544463"/><path fill="#447337" d="M1413.3 487.3c0-4 3.2-7.2 7.2-7.2 0 3.9-3.3 7.2-7.2 7.2zm-7.3 15.3c0-5-4.1-9-9-9 0 4.9 4.1 9 9 9z"/><g transform="translate(879 185)"><circle cx="55" cy="40" r="40" fill="#EF9F3F"/><circle cx="55" cy="40" r="33" fill="#FEC585"/><path fill="#FFF" d="M210.2 86.5l-21.1-1.4c-3.6-6.2-10.4-10.4-17.9-10.4-2 0-4.4.4-6.6.9-3.6-8.3-10.3-14.9-18.5-18.6-4.4-2-9.4-3.1-14.5-3.1-10.3 0-19.6 4.3-26.2 11.2-1.2-1.4-2.4-2.6-3.9-3.7-4-3-8.8-4.8-14.3-4.8-10.4 0-19.1 6.7-22.2 16-4.6-3.1-10-4.9-16-4.9-11.8 0-21.9 7.1-26.3 17.3L1.9 86.5c-2.4.2-2.3 3.5.2 3.5H210c2.6 0 2.8-3.3.2-3.5z"/></g><g fill="#FFF"><path d="M281 75.1c-8.5 0-16.1 3.8-21.2 9.7-2.7-1.8-6-2.9-9.5-2.9-3.3 0-6.4 1-9 2.6-3.6-16.5-18.3-29-35.9-29-17.1 0-31.4 11.6-35.6 27.4-.8 3-1.2 6.1-1.2 9.3 0 1.3.1 2.4.2 3.7H308c-3.1-11.9-14-20.8-27-20.8z"/><path d="M329.1 97H146.6c-3 0-3.2-4.2-.2-4.4l23.3-1.6H305l24.2 1.6c3 .2 2.9 4.4-.1 4.4z"/></g><g fill="#FFF"><path d="M453.7 130.5c-3.6 0-6.9 1.1-9.7 3-.5-9.2-8-16.5-17.3-16.5-7.9 0-14.5 5.2-16.7 12.4-2.1-.5-4.3-.7-6.6-.7-11.1 0-20.8 6.3-25.6 15.4h92.9c-1.7-7.9-8.7-13.6-17-13.6z"/><path d="M486.2 145H364.5c-2.4-.6-2.6-3-.2-3.1l16.5-.9H469l17.3.9c2.4.1 2.3 2.5-.1 3.1z"/></g><g fill="#FFF"><path d="M1899.7 16.5c-3.6 0-6.9 1.1-9.7 3-.5-9.2-8-16.5-17.3-16.5-7.9 0-14.5 5.2-16.7 12.4-2.1-.5-4.3-.7-6.6-.7-11.1 0-20.8 6.3-25.6 15.4h92.9c-1.7-7.9-8.7-13.6-17-13.6z"/><path d="M1932.2 31h-121.6c-2.4-.6-2.6-3-.2-3.1l16.5-.9h88.1l17.3.9c2.4.1 2.3 2.5-.1 3.1z"/></g><path fill="#FFF" d="M1522.1 77.2l-13.7-.8c-1.1-3.1-2.8-5.9-5.1-8.1-3.6-3.4-8.5-5.6-13.9-5.6-4.2 0-8 1.4-11.3 3.5-5.4-15.5-20.2-26.7-37.6-26.7-17.2 0-31.9 10.9-37.5 26.3-.4-.2-.7-.3-1.1-.5-2.6-1.3-5.6-2-8.7-2-8.4 0-15.5 5.2-18.5 12.6l-21.4 1.3c-3.8.2-3.5 3.8.3 3.8h168.2c3.9 0 4.2-3.6.3-3.8zm252.6 77l-21.6-1.6c-3.4-11.4-13.9-19.7-26.4-19.7-8.4 0-15.8 3.7-20.8 9.6-2.6-1.8-5.9-2.9-9.3-2.9-3.7 0-7 1.2-9.8 3.2-4.5-14.7-18.1-25.4-34.3-25.4-15.6 0-28.8 9.8-33.8 23.6-2.3-1-6-1.6-8.8-1.6-8.5 0-16 5.6-18.6 13.3l-17.8 1.4c-4.3.2-4.2 3.8.3 3.8h200.7c4.3.1 4.5-3.5.2-3.7z"/><path fill="#5A9C4B" d="M1113 443c-2-1 .9-1 1.3-1h2.2c.4 0 .9.1 1.3.3l7.9 3.7h7.6c1 0 2 .3 2.5.6l13.5 11.6c.4.3-.5.6-1.1.4l-36.5-12.1c-.7-.3-.5-.5.5-.5h6.6l-5.8-3z"/><path fill="#9C452D" d="M1112 429v4h3v10c1.7 0 3-.4 3-1v-13h-6z"/><path fill="#B37624" d="M1112 433v9c0 .6 1.3 1 3 1v-10h-3z"/><path fill="#447337" d="M1124.7 416l-10.7-46.1-9.1 46.1h2.8l-2.8 15h19.8l-3-15z"/><path fill="#5A9C4B" d="M1109.2 416l4.7-46.1-10 46.1h2.8l-2.8 15h5.3l2.8-15z"/><path fill="#447337" d="M675.1 440.3c0-2-1.6-3.6-3.6-3.6 0 2 1.6 3.6 3.6 3.6z"/><path fill="#6FBF5C" d="M880.9 391.8c1.5 0 2.7-.4 2.7-.9s-1.2-.9-2.7-.9c-1.5 0-2.7.4-2.7.9s1.2.9 2.7.9zM775.2 416c1.5 0 2.7-.4 2.7-.9s-1.2-.9-2.7-.9c-1.5 0-2.7.4-2.7.9s1.2.9 2.7.9zm-763-25c1.5 0 2.7-.4 2.7-.9s-1.2-.9-2.7-.9c-1.5 0-2.7.4-2.7.9s1.2.9 2.7.9z"/><path fill="#9BD96F" d="M1175.9 458.4c1.5 0 2.7-.4 2.7-.9s-1.2-.9-2.7-.9c-1.5 0-2.7.4-2.7.9s1.2.9 2.7.9zm42-31.6c2.2 0 4.1-.6 4.1-1.4 0-.8-1.8-1.4-4.1-1.4-2.2 0-4.1.6-4.1 1.4 0 .8 1.8 1.4 4.1 1.4zm253.6 0c2.2 0 4.1-.6 4.1-1.4 0-.8-1.8-1.4-4.1-1.4s-4.1.6-4.1 1.4c0 .8 1.8 1.4 4.1 1.4zm219.6 9.8c2.2 0 4.1-.6 4.1-1.4 0-.8-1.8-1.4-4.1-1.4s-4.1.6-4.1 1.4c0 .8 1.8 1.4 4.1 1.4zm72-13c2.2 0 4.1-.6 4.1-1.4 0-.8-1.8-1.4-4.1-1.4s-4.1.6-4.1 1.4c0 .8 1.8 1.4 4.1 1.4zm74 27c2.2 0 4.1-.6 4.1-1.4 0-.8-1.8-1.4-4.1-1.4s-4.1.6-4.1 1.4c0 .8 1.8 1.4 4.1 1.4zm110-30c2.2 0 4.1-.6 4.1-1.4 0-.8-1.8-1.4-4.1-1.4s-4.1.6-4.1 1.4c0 .8 1.8 1.4 4.1 1.4zm-1272.5 64c2.2 0 4.1-.6 4.1-1.4 0-.8-1.8-1.4-4.1-1.4-2.2 0-4.1.6-4.1 1.4 0 .8 1.9 1.4 4.1 1.4zm-231.9-8.1c2.2 0 4.1-.6 4.1-1.4 0-.8-1.8-1.4-4.1-1.4-2.2 0-4.1.6-4.1 1.4 0 .8 1.8 1.4 4.1 1.4zm-259-10c2.2 0 4.1-.6 4.1-1.4 0-.8-1.8-1.4-4.1-1.4-2.2 0-4.1.6-4.1 1.4 0 .8 1.8 1.4 4.1 1.4zm140.8-14.4c2.2 0 4.1-.6 4.1-1.4 0-.8-1.8-1.4-4.1-1.4-2.2 0-4.1.6-4.1 1.4 0 .8 1.8 1.4 4.1 1.4zm-43-16c2.2 0 4.1-.6 4.1-1.4 0-.8-1.8-1.4-4.1-1.4-2.2 0-4.1.6-4.1 1.4 0 .8 1.8 1.4 4.1 1.4zm-214 27c2.2 0 4.1-.6 4.1-1.4 0-.8-1.8-1.4-4.1-1.4-2.2 0-4.1.6-4.1 1.4 0 .8 1.8 1.4 4.1 1.4zm672.1 30.5c2.2 0 4.1-.6 4.1-1.4 0-.8-1.8-1.4-4.1-1.4-2.2 0-4.1.6-4.1 1.4 0 .8 1.8 1.4 4.1 1.4zm-340.2 1.8c2.2 0 4.1-.6 4.1-1.4 0-.8-1.8-1.4-4.1-1.4s-4.1.6-4.1 1.4c0 .8 1.8 1.4 4.1 1.4zm689.4-65.9c1.5 0 2.7-.4 2.7-.9s-1.2-.9-2.7-.9c-1.5 0-2.7.4-2.7.9s1.2.9 2.7.9z"/><path fill="#6FBF5C" d="M667.8 425c1.5 0 2.7-.4 2.7-.9s-1.2-.9-2.7-.9c-1.5 0-2.7.4-2.7.9s1.3.9 2.7.9zm135.4-11.7c1 0 1.8-.4 1.8-.9s-.8-.9-1.8-.9-1.8.4-1.8.9.8.9 1.8.9zM787.9 388c1 0 1.8-.4 1.8-.9s-.8-.9-1.8-.9-1.8.4-1.8.9.8.9 1.8.9zm-535-2c1 0 1.8-.4 1.8-.9s-.8-.9-1.8-.9-1.8.4-1.8.9.8.9 1.8.9zm-238 41c1 0 1.8-.4 1.8-.9s-.8-.9-1.8-.9-1.8.4-1.8.9.8.9 1.8.9zM694 409.6c1 0 1.8-.4 1.8-.9s-.8-.9-1.8-.9-1.8.4-1.8.9.8.9 1.8.9zm139.9-18c1 0 1.8-.4 1.8-.9s-.8-.9-1.8-.9-1.8.4-1.8.9.8.9 1.8.9zm93.7 8.3c1 0 1.8-.4 1.8-.9s-.8-.9-1.8-.9-1.8.4-1.8.9.8.9 1.8.9zm-300.4-22.8c1 0 1.8-.4 1.8-.9s-.8-.9-1.8-.9-1.8.4-1.8.9.8.9 1.8.9zm-277.9 46.1c1 0 1.8-.4 1.8-.9s-.8-.9-1.8-.9-1.8.4-1.8.9.8.9 1.8.9zm65.9-12.7c1 0 1.8-.4 1.8-.9s-.8-.9-1.8-.9-1.8.4-1.8.9.8.9 1.8.9zm12.6-31.5c1 0 1.8-.4 1.8-.9s-.8-.9-1.8-.9-1.8.4-1.8.9.8.9 1.8.9zm23.5 4.5c1 0 1.8-.4 1.8-.9s-.8-.9-1.8-.9-1.8.4-1.8.9.8.9 1.8.9zm-48.8-12.7c1 0 1.8-.4 1.8-.9s-.8-.9-1.8-.9-1.8.4-1.8.9.8.9 1.8.9zm-146-10c1 0 1.8-.4 1.8-.9s-.8-.9-1.8-.9-1.8.4-1.8.9.8.9 1.8.9zm80.1 3.7c1 0 1.8-.4 1.8-.9s-.8-.9-1.8-.9-1.8.4-1.8.9.8.9 1.8.9zm-53.4 0c1 0 1.8-.4 1.8-.9s-.8-.9-1.8-.9-1.8.4-1.8.9.8.9 1.8.9zm54.3 26.2c1 0 1.8-.4 1.8-.9s-.8-.9-1.8-.9-1.8.4-1.8.9.8.9 1.8.9zM583.9 379c1 0 1.8-.4 1.8-.9s-.8-.9-1.8-.9-1.8.4-1.8.9.8.9 1.8.9zm242.8 23.4c1 0 1.8-.4 1.8-.9s-.8-.9-1.8-.9-1.8.4-1.8.9.8.9 1.8.9zm139.9-11.7c1 0 1.8-.4 1.8-.9s-.8-.9-1.8-.9-1.8.4-1.8.9.8.9 1.8.9z"/><path fill="#9BD96F" d="M1208.4 465.6c1 0 1.8-.4 1.8-.9s-.8-.9-1.8-.9-1.8.4-1.8.9.8.9 1.8.9z"/><path fill="#6FBF5C" d="M1219 538c1.1 0 2-.4 2-1s-.9-1-2-1-2 .4-2 1 .9 1 2 1zm-73 24c1.1 0 2-.4 2-1s-.9-1-2-1-2 .4-2 1 .9 1 2 1z"/><path fill="#9BD96F" d="M1295.9 401.5c1 0 1.8-.4 1.8-.9s-.8-.9-1.8-.9-1.8.4-1.8.9.8.9 1.8.9zm-23.4 58.7c1 0 1.8-.4 1.8-.9s-.8-.9-1.8-.9-1.8.4-1.8.9.8.9 1.8.9z"/><path fill="#6FBF5C" d="M1450.3 460.2c1 0 1.8-.4 1.8-.9s-.8-.9-1.8-.9-1.8.4-1.8.9.8.9 1.8.9zm457 19c1 0 1.8-.4 1.8-.9s-.8-.9-1.8-.9-1.8.4-1.8.9.8.9 1.8.9zm85-24c1 0 1.8-.4 1.8-.9s-.8-.9-1.8-.9-1.8.4-1.8.9.8.9 1.8.9zm-552 18c1 0 1.8-.4 1.8-.9s-.8-.9-1.8-.9-1.8.4-1.8.9.8.9 1.8.9zm-111 10.5c1 0 1.8-.4 1.8-.9s-.8-.9-1.8-.9-1.8.4-1.8.9.8.9 1.8.9zm60.5 2.7c1 0 1.8-.4 1.8-.9s-.8-.9-1.8-.9-1.8.4-1.8.9.8.9 1.8.9z"/><path fill="#9BD96F" d="M1379 420.5c1 0 1.8-.4 1.8-.9s-.8-.9-1.8-.9-1.8.4-1.8.9.8.9 1.8.9zm108.3-25.3c1 0 1.8-.4 1.8-.9s-.8-.9-1.8-.9-1.8.4-1.8.9.8.9 1.8.9zm-438.6 45.1c1 0 1.8-.4 1.8-.9s-.8-.9-1.8-.9-1.8.4-1.8.9.8.9 1.8.9zm-250 55.1c1 0 1.8-.4 1.8-.9s-.8-.9-1.8-.9-1.8.4-1.8.9.8.9 1.8.9zm-315.9 25.3c1 0 1.8-.4 1.8-.9s-.8-.9-1.8-.9-1.8.4-1.8.9.8.9 1.8.9zm199.5-5.5c1 0 1.8-.4 1.8-.9s-.8-.9-1.8-.9-1.8.4-1.8.9.8.9 1.8.9zm-14.5-55c1 0 1.8-.4 1.8-.9s-.8-.9-1.8-.9-1.8.4-1.8.9.8.9 1.8.9zm184.1 26.2c1 0 1.8-.4 1.8-.9s-.8-.9-1.8-.9-1.8.4-1.8.9.8.9 1.8.9zm-125.4-28c1 0 1.8-.4 1.8-.9s-.8-.9-1.8-.9-1.8.4-1.8.9.8.9 1.8.9zM396 471.7c1 0 1.8-.4 1.8-.9s-.8-.9-1.8-.9-1.8.4-1.8.9.8.9 1.8.9zm-138 8c1 0 1.8-.4 1.8-.9s-.8-.9-1.8-.9-1.8.4-1.8.9.8.9 1.8.9zm-166-3c1 0 1.8-.4 1.8-.9s-.8-.9-1.8-.9-1.8.4-1.8.9.8.9 1.8.9zm63-14c1 0 1.8-.4 1.8-.9s-.8-.9-1.8-.9-1.8.4-1.8.9.8.9 1.8.9zm-112 44c1 0 1.8-.4 1.8-.9s-.8-.9-1.8-.9-1.8.4-1.8.9.8.9 1.8.9zm383-62.8c1 0 1.8-.4 1.8-.9s-.8-.9-1.8-.9-1.8.4-1.8.9.8.9 1.8.9zm-77 2c1 0 1.8-.4 1.8-.9s-.8-.9-1.8-.9-1.8.4-1.8.9.8.9 1.8.9zm203.3 77.5c1 0 1.8-.4 1.8-.9s-.8-.9-1.8-.9-1.8.4-1.8.9.8.9 1.8.9zm76.7 7.2c1 0 1.8-.4 1.8-.9s-.8-.9-1.8-.9-1.8.4-1.8.9.8.9 1.8.9zm623.6-118.2c1 0 1.8-.4 1.8-.9s-.8-.9-1.8-.9-1.8.4-1.8.9c0 .4.8.9 1.8.9zm133.6-10.9c1 0 1.8-.4 1.8-.9s-.8-.9-1.8-.9-1.8.4-1.8.9.8.9 1.8.9zm165.4 33.4c1 0 1.8-.4 1.8-.9s-.8-.9-1.8-.9-1.8.4-1.8.9.8.9 1.8.9zm52.1-18c1 0 1.8-.4 1.8-.9s-.8-.9-1.8-.9-1.8.4-1.8.9.8.9 1.8.9zm196 19c1 0 1.8-.4 1.8-.9s-.8-.9-1.8-.9-1.8.4-1.8.9.8.9 1.8.9zm-119.3-12.7c1 0 1.8-.4 1.8-.9s-.8-.9-1.8-.9-1.8.4-1.8.9.8.9 1.8.9zm132-27c1 0 1.8-.4 1.8-.9s-.8-.9-1.8-.9-1.8.4-1.8.9.8.9 1.8.9zm-561.6 84.7c1 0 1.8-.4 1.8-.9s-.8-.9-1.8-.9-1.8.4-1.8.9.8.9 1.8.9zm-108.3-56.8c1 0 1.8-.4 1.8-.9s-.8-.9-1.8-.9-1.8.4-1.8.9.8.9 1.8.9z"/><path fill="#6FBF5C" d="M929.6 383.5c1 0 1.8-.4 1.8-.9s-.8-.9-1.8-.9-1.8.4-1.8.9.8.9 1.8.9zm-204.9 8.1c1 0 1.8-.4 1.8-.9s-.8-.9-1.8-.9-1.8.4-1.8.9.8.9 1.8.9zm125.4 11.7c1 0 1.8-.4 1.8-.9s-.8-.9-1.8-.9-1.8.4-1.8.9.8.9 1.8.9zm-105.5-18c1 0 1.8-.4 1.8-.9s-.8-.9-1.8-.9-1.8.4-1.8.9.8.9 1.8.9zm120 7c1 0 1.8-.4 1.8-.9s-.8-.9-1.8-.9-1.8.4-1.8.9.8.9 1.8.9z"/><path fill="#A1D6FF" d="M952.9 429.5c4.4 0 10.9-.5 19.2-1.4 7.6-.8 30.3-3.2 30.3-3.2H948s-1.7 1-1.7 2.6c0 1.7 1.3 2 6.6 2z"/><path fill="#447337" d="M1468 386.4l-40.6-14.4h40.6zm-9-49.4l-30.7-9h30.7zm-9-48.7l-16.2-6.3h16.2zm-86 137.5l-30.4-10.8h30.4zm-7-37l-22.9-6.8h22.9zm-7-36.1l-12.2-4.7h12.2z"/><path fill="#C4D7B6" d="M969.3 420l-4.5 5h18l-4.5-5z"/><path fill="#5A9C4B" d="M1542.8 426.3l-1.2-.6c-.5-.2-1-.5-1.4-.6h-2.3c0 .2.2.4.7.7l1.2.6c.7.4 1.4.7 2.2.8.3.1.5.1.8.1 1 0 1-.5 0-1z"/><path fill="#447337" d="M1540 425v-14h-2v14z"/><path fill="#DE5833" d="M1538.7 413.3c2.5 0 4.5-2 4.5-4.5s-2-4.5-4.5-4.5-4.5 2-4.5 4.5c0 2.4 2 4.5 4.5 4.5z"/><path fill="#FFC16C" d="M1538.7 410.5c1 0 1.8-.8 1.8-1.8s-.8-1.8-1.8-1.8-1.8.8-1.8 1.8.8 1.8 1.8 1.8z"/><path fill="#447337" d="M1540.5 420.5c0-2 1.6-3.6 3.6-3.6 0 1.9-1.6 3.6-3.6 3.6z"/><path fill="#5A9C4B" d="M1199.8 447.3l-1.2-.6c-.5-.2-1-.5-1.4-.6h-2.3c0 .2.2.4.7.7l1.2.6c.7.4 1.4.7 2.2.8.3.1.5.1.8.1 1 0 1-.5 0-1z"/><path fill="#447337" d="M1197 446v-14h-2v14z"/><path fill="#DE5833" d="M1195.7 434.3c2.5 0 4.5-2 4.5-4.5s-2-4.5-4.5-4.5-4.5 2-4.5 4.5c0 2.4 2 4.5 4.5 4.5z"/><path fill="#FFC16C" d="M1195.7 431.5c1 0 1.8-.8 1.8-1.8s-.8-1.8-1.8-1.8-1.8.8-1.8 1.8.8 1.8 1.8 1.8z"/><path fill="#447337" d="M1197.5 441.5c0-2 1.6-3.6 3.6-3.6 0 1.9-1.6 3.6-3.6 3.6z"/><path fill="#5A9C4B" d="M1777.8 412.3l-1.2-.6c-.5-.2-1-.5-1.4-.6h-2.3c0 .2.2.4.7.7l1.2.6c.7.4 1.4.7 2.2.8.3.1.5.1.8.1 1 0 1-.5 0-1z"/><path fill="#447337" d="M1775 411v-14h-2v14z"/><path fill="#DE5833" d="M1773.7 399.3c2.5 0 4.5-2 4.5-4.5s-2-4.5-4.5-4.5-4.5 2-4.5 4.5c0 2.4 2 4.5 4.5 4.5z"/><path fill="#FFC16C" d="M1773.7 396.5c1 0 1.8-.8 1.8-1.8s-.8-1.8-1.8-1.8-1.8.8-1.8 1.8.8 1.8 1.8 1.8z"/><path fill="#447337" d="M1775.5 406.5c0-2 1.6-3.6 3.6-3.6 0 1.9-1.6 3.6-3.6 3.6z"/><path fill="#FFF" d="M547.6 574.4L426.2 392.8c-1.1-1.6-3.3-2.1-5-1-1.6 1.1-2.1 3.3-1 5.1l121.3 181.6c1.1 1.6 3.3 2.1 5.1 1 1.7-1.2 2.1-3.5 1-5.1z"/><path fill="#CC8729" d="M662 554.7v16.7c0 2.5 2.1 4.6 4.6 4.6h39.8c2.5 0 4.6-2.1 4.6-4.6 0-2.5-2.8-5.8-6.1-7.4l-24.5-9.9c-.1 0-.2-.1-.4-.1-1.8-.5-3.2-1.8-3.9-3.5-5.6-15.1-29.5-81.5-29.5-81.5h-26.4l10.7 22.4c-.3 5.8.1 13.9 2.9 21.1 2.2 5.7 7.6 13.6 13.7 21.2l13.7 18.9c.5.5.8 1.4.8 2.1z"/><path fill="#B37624" d="M664 571.3l2.1-16.7c.1-.7-.1-1.5-.4-2.1l-11.3-18.9c-5-7.6-9.6-15.6-11.1-21.2-1.6-6.2-2.1-12.3-1.6-17.6.2-2-.1-4-.6-5.9l3.9-.9c1.9-.4 3.5-1.3 4.8-2.4 1.4-1.3 1.9-3.5 1.2-5.4-2.2-4.4-5.6-8.5-9.7-11.2h-20.7l10.1 22.5c-.3 5.8.7 13.8 3.5 21 2.2 5.7 7.6 13.6 13.7 21.2l13.7 18.9c.4.6.7 1.3.7 2.1v16.7c0 2.5 2.1 4.6 4.6 4.6h1.5c-2.9-.1-4.7-2.2-4.4-4.7zm-30.3-7.2L609.3 554c-.5-.2-1.1-.4-1.7-.4-1 0-1.7-.8-1.7-1.7V469h-24.2l1.4 16.5c-2.1 5.4-3.3 12.6-3.1 20.3.2 6 2.6 15.4 5.7 24.6 2.5 7.6 4 14.7 5.3 20.1.5 2.2.9 4.5.9 6.7v14.2c0 2.5 2.1 4.6 4.6 4.6h38.6c2.5 0 4.5-2.1 4.5-4.6.1-2.4-2.5-5.7-5.9-7.3z"/><path fill="#CC8729" d="M635.3 574h5.2c.3-.6.5-1.3.5-2.1 0-2.5-2.7-5.9-6.1-7.4l-25.2-10.2c-.5-.2-1.2-.4-1.7-.4-1 0-2-1.7-2-1.7V469h-24.6l.4 4H601v82.9c-.1 1 .7 1.7 1.6 1.7.6 0 1.2.1 1.7.4l25.2 10.2c2.7 1.2 5 3.6 5.8 5.8z"/><path fill="#544463" d="M651.5 477.7c0-.1.1-.2.1-.3.1-.2.1-.4.2-.5 0-.1.1-.2.1-.3 0-.2.1-.4.1-.5.1-.3.1-.5.1-.7v-2.1c0-.3-.1-.6-.1-.9l-.2-1-.2-1c-2.5-12.8-15.1-21.2-27.9-18.6l-32.5 6.5-15.8 3c12.6 5.2 26.6 6.8 40.1 4.2l9.1-1.8c11.5-2.3 22.7 4.2 26.7 14.7 0-.3.1-.5.2-.7z"/><path fill="#230545" d="M624.4 460.8l-9.1 1.8c-13.4 2.7-26.2 3-38.9-2.3h-48.9l3.4 27.5c2 9.7 11.5 16.2 21.2 14.2l92.1-18.2c3.2-.6 5.8-2.8 6.9-5.6-4-10.5-15.2-19.6-26.7-17.4zm71.6 99.5V575h3.1c.5-.3 1.1-.7.9-1.4v-12.5c0-.4-.2-.7-.6-.8l-2.3-.9c-.5-.2-1.1.3-1.1.9zm-71 0V575h3.1c.5-.3 1.1-.7.9-1.4v-12.5c0-.4-.2-.7-.6-.8l-2.3-.9c-.5-.2-1.1.3-1.1.9z"/><path fill="#230545" d="M636 575.2v-3.4c0-1-.8-1.8-1.8-1.8H590c-1 0-1.8 1-1.8 2v3.2c0 1 .7 1.8 1.7 1.8h44.4c.9 0 1.7-.8 1.7-1.8z"/><path fill="#544463" d="M642.2 570H590c-.9 0-1.8 1-1.8 2H635v3.3c0 .9-.8 1.7-1.8 1.7h9c1 0 1.8-.8 1.8-1.8v-3.4c0-1-.8-1.8-1.8-1.8z"/><path fill="#B37624" d="M518.3 393l-5.4-5.5c-1.2-1.2-1.9-2.8-1.9-4.4V357h-16v36h23.3z"/><path fill="#CC8729" d="M513.3 394l-5.4-5.5c-1.2-1.2-1.9-2.8-1.9-4.4V358h-16v36h23.3z"/><path fill="#DE5833" d="M565.7 466.1l-2-2c-4.9-4.9-8.2-10.5-11.4-16.5-2.4-4.8-4.6-10-6.7-15.4-1.4-3.7-3.3-11.6-4.6-20.2-1.5-9.2-7.1-16.7-14.4-20.5-3.3-1.7-7.1-2.6-11-2.6H497c-15.7 0-26.6 17.1-20.9 32.8 9.5 26.4 16.6 47.7 39.3 63.5.6.5 1.4 1 2.4 1.7 6.2 4.5 13.7 7 21.2 7h16.5c13.6 0 20.2-18.1 10.2-27.8z"/><path fill="#CC8729" d="M515 381c-10 0-18-8-18-18v-21h36v21c0 10-8 18-18 18z"/><path fill="#230545" d="M539.5 342.2c0-1.1-.2-2.3-.6-3.3-4.9-11.2-16.1-19-29.1-19-12.8 0-23.8 7.6-28.8 18.5-1.8 4.1-2.9 8.5-2.9 13.2 0 5.1 1.2 9.9 3.4 14.2.7 1.4.5 3.1-.6 4.2 4.3 0 8.6 1.2 12.2 3.6 2.5 1.7 5.4 2.7 8.6 2.7 8.5 0 15.3-6.9 15.3-15.3 0-.3 0-.6-.1-.9 10.4-.2 11.6-9 11.6-9h2.3c3.1 0 5.7-1.5 7.2-3.8 1-1.4 1.5-3.3 1.5-5.1z"/><path fill="#DE5833" d="M516.2 344.7c24.1-7.3 40.1-19.5 43.8-26.2-5.9-3.5-28.5-.2-54 7.5-24.1 7.3-43.4 16.3-48 22.5 7 3.7 32.9 3.9 58.2-3.8z"/><path fill="#9C452D" d="M531 326.4c-3.7-2.1-14-1.8-27.5.5-23.4 7-42.1 16.1-46.5 22.1 5 2.5 19.8 3 37 .5 20.3-7.1 33.8-17.3 37-23.1z"/><path fill="#9C452D" d="M500.2 307.9c-12.4 2.3-20.2 11.1-20.2 23.5 0 1.5.2 3 .5 4.6l51.3-10.3c-3.1-13.3-19.5-20.1-31.6-17.8z"/><path fill="#DE5833" d="M519.2 328.3l12.6-2.5c-2.8-14.4-17.4-20.7-31.6-17.9-6.7 1.4-12.1 4.5-15.6 9 1.4-.5 3.1-1 4.7-1.4 12.3-2.4 25 2.1 29.9 12.8z"/><path fill="#FFF" d="M531.4 323.8c-.4-1.4-.9-2.8-1.4-4-.5 2.3-6.7 5.5-13 7.9l1.8 5.8c5.6-2 9.8-4.3 11.8-6.4.8-.8 1-2.1.8-3.3z"/><path fill="#9C452D" d="M559.7 318.8c-3.7 6.8-20.1 17.5-44.5 24.9-25.5 7.8-50.9 8.9-58.2 5.3v3c5.1 4.6 31.8 3.4 59.1-4.9 23.2-7.1 39.2-17.1 43.9-23.9v-4.3c-.1 0-.1 0-.3-.1z"/><path fill="#C4D7B6" d="M554.1 482.6l-114.3 91.6c-1.5 1.3-1.8 3.5-.5 5.1 1.3 1.5 3.5 1.8 5.1.5l114.2-91.6c1.6-1.3 1.8-3.7.5-5.2-1.4-1.4-3.5-1.6-5-.4z"/><path fill="#9C452D" d="M511 401.7V394h-73v3.6c0 62.3 53.6 111.9 119.9 111.9 29.8 0 57.1-10.3 78.1-27.3-10.7 5-22.6 8-35.2 8.3-49.4 1.3-89.8-39.3-89.8-88.8z"/><path fill="#7D3623" d="M504.5 400.5v7.7c0 49.4 40.4 90 89.8 88.8 10-.2 19.5-2.1 28.3-5.4 4.7-2.8 9.2-6 13.4-9.4-10.7 5-22.6 8-35.2 8.3-49.4 1.2-89.8-39.4-89.8-88.8V394h-73v6.5h66.5z"/><path fill="#7D3623" d="M489.9 414c4.5 0 8.1 3.4 8.1 7.7v14.7c7.2-2.6 12.8-8.6 14.4-15.9-.9-4.4-1.4-9-1.7-13.6-2.7-5.4-7.7-9.7-13.7-11.6V394h-30c1.2 11.4 11 20 22.9 20z"/><path fill="#FFF" d="M442.5 399H428c-1.3 0-2.3-1-2.3-2.2 0-1.3 1-2.3 2.3-2.8h14.4c1.3.5 2.3 1.5 2.3 2.8 0 1.2-1 2.2-2.2 2.2z"/><path fill="#7D3623" d="M463 397.6V394h-26v3.6c0 62.3 53.3 111.9 119.2 111.9 4.4 0 8.7-.3 12.9-.6-59.7-6-106.1-53.2-106.1-111.3z"/><path fill="#FFF" d="M535.4 564h-73.1c-1.3.2-2.3-.8-2.3-2.1s1-2.3 2.3-2.9h73.1c1.3.7 2.3 1.7 2.3 2.9 0 1.3-1 2.3-2.3 2.1z"/><path fill="#7D3623" d="M482 451h-29.3l5.4-55.4c.1-.9.9-1.6 1.8-1.6h28.9c1.1 0 1.9.9 1.8 2l-5.1 51.8c0 1.8-1.7 3.2-3.5 3.2z"/><path fill="#DE5833" d="M465.2 398.1c0-1.6.2-3.4.6-5.1h-18.4c-1 0-2 .8-2.2 1.8l-9.3 47.2h39.9l4.5-23c-9.8-2.5-15.1-10.9-15.1-20.9z"/><path fill="#9C452D" d="M465.8 393c-.5 1.7-1.5 4.3-1.5 6 0 9.9 6.2 17.4 15.9 19.9l4.8-24.1c.2-1 1.2-1.8 2.2-1.8h-21.4z"/><path fill="#E3EAD3" d="M435.9 442l-.6 3c-.2 1 .6 2 1.8 2h36c.9 0 1.6-.6 1.8-1.3l.8-3.7h-39.8z"/><path fill="#FFF" d="M602.2 551h-74.9c-1.3-.4-2.3-1.3-2.3-2.6s1-2.3 2.3-2.4h74.9c1.3.1 2.3 1.1 2.3 2.4 0 1.3-1 2.2-2.3 2.6z"/><path fill="#C4D7B6" d="M632.6 482.6l-114.3 91.6c-1.5 1.3-1.8 3.5-.5 5.1 1.3 1.5 3.5 1.8 5.1.5l114.2-91.6c1.6-1.3 1.8-3.7.5-5.2-1.4-1.4-3.5-1.6-5-.4z"/><path fill="#FFF" d="M625.2 574.4L503.9 392.8c-1.1-1.6-3.3-2.1-5-1-1.6 1.1-2.1 3.3-1 5.1l121.3 181.6c1.1 1.6 3.3 2.1 5.1 1 1.6-1.2 2-3.5.9-5.1z"/><path fill="#C4D7B6" d="M505.1 330.8c-11 2.2-20.7 2.3-25.1.6v3.4c0 1.2.7 2.2 1.7 2.5 4.4 1.6 14.1 1.5 25.1-.7 4.4-.9 8.5-2 12.2-3.3V329c0-1-1-1.7-2-1.5-3.4 1.4-7.5 2.5-11.9 3.3z"/><path fill="#230545" d="M503 389v-22h-18.1c-1.5.4-3.1 1-4.3 2-5.7 4.6-8.1 11.5-8.1 17.1 0 11.9 10.3 21.7 22.9 21.7 4.5 0 8.1 3.4 8.6 7.7v14.7c8.2-3.1 14.4-11 14.4-20.3 0-9.9-6.8-18.1-15.4-20.9z"/><path fill="#FFF" d="M448.9 362.1c-1.4-.1-2.7-.2-4.1-.4-2.9-.4-5.8-.9-8.9-1.2-3.1-.3-6.3 0-9.3.8-1.5.5-3 .9-4.4 1.7-1.4.7-2.8 1.7-3.9 2.8-2.3 2.3-3.8 5.1-5.1 7.9-1.3 2.7-2.3 5.4-3.9 7.9-1.4 2.4-3.3 4.7-5.5 6.6-4.3 3.8-9.8 6.2-15.4 7.9-5.6 1.6-11.5 2.5-17.4 3.1v.4c6-.3 11.8-.9 17.7-2.3 2.9-.7 5.8-1.6 8.5-2.9 2.7-1.3 5.4-2.7 7.8-4.7 2.3-1.9 4.4-4.2 6-6.9 1.7-2.5 2.9-5.3 4.2-7.9 1.3-2.6 2.7-5.1 4.7-7 1-.9 2.1-1.6 3.3-2.3 1.3-.6 2.5-1 3.9-1.4 2.7-.6 5.5-.7 8.3-.4 2.8.4 5.7 1 8.7 1.5 3 .5 6.1.7 9.3.4 1.2-.1 2.8-.4 3.9-.6l-8.4-3z"/><path fill="#C4D7B6" d="M478.4 337c-.4 1.2-.7 2.3-1.2 3.4-1 2.8-2.3 5.4-3.7 7.9-1.5 2.7-3.4 5.1-5.6 7.1-1.9 1.7-4 3.2-6.3 4.2-2.5 1.2-5.2 1.8-7.9 2.2-1.4.2-3.4.3-4.8.3l8.4 3c1.9-.5 4.1-1.2 5.8-2.1 2.9-1.4 5.4-3.4 7.5-5.7.1-.1.2-.3.4-.5 2-2.3 3.5-4.7 4.7-7.3 1.9-4 3.1-8.2 3.8-12.5h-1.1z"/><path fill="#FFF" d="M490 374.5l-7.7 1.9c-2.9 1.1-6.2 1.5-9.6 2.4-1.8.5-3.7 1.2-5.4 2-1.7.9-3.4 2-4.8 3.3-2.8 2.7-5 6-6 9.7-.5 1.8-.8 3.8-.6 5.7.1 1.5.7 3.1 1.4 4.5h.1c-1-3.2-.9-6.8.3-9.8 1.3-3.4 3.5-6.4 6.2-8.7 2.7-2.3 6-3.6 9.7-4.4 1.8-.4 3.6-.6 5.4-1 1.9-.4 3.8-.7 5.7-1.4 1.9-.7 4-1.8 5.1-3.7 0-.2.2-.5.2-.5z"/><path fill="#C4D7B6" d="M491.2 357.3c-.5-1.8-1.2-3.5-1.8-5.2-.7-1.8-1.5-3.6-2.4-5.3-1.4-2.7-2.9-5.2-4.6-7.8h-1c1.9 5.1 3.8 10.1 5.3 15.2.4 1.4.7 2.7 1.1 4.1.8 3.5 1.4 7 .9 10.3-.2 1.6-.7 3.2-1.6 4.4-.9 1.3-2.2 2.3-3.7 3-.4.2-.7.4-1.1.5l7.7-1.9c1.2-1.6 1.9-3.5 2.3-5.3.6-4.3-.1-8.3-1.1-12z"/><path fill="#FFF" d="M478.6 333c-2 0-3.6 1.6-3.6 3.6v1.3c0 1.9 1.4 3.4 3.3 3.6.4 0 1.5.1 1.9.1 2.1.1 3.8-1.5 3.8-3.6v-1.4c0-2-1.6-3.6-3.6-3.6h-1.8z"/><path fill="#230545" d="M707 575.2v-3.4c0-1-.8-1.8-1.8-1.8H661c-1 0-1.8 1-1.8 2v3.2c0 1 .7 1.8 1.7 1.8h44.4c.9 0 1.7-.8 1.7-1.8z"/><path fill="#544463" d="M713.2 570H661c-.9 0-1.8 1-1.8 2H706v3.3c0 .9-.8 1.7-1.8 1.7h9c1 0 1.8-.8 1.8-1.8v-3.4c0-1-.8-1.8-1.8-1.8z"/><path fill="#6FBF5C" d="M1189 384.4c1.2 0 2.3-.4 2.3-.9s-1-.9-2.3-.9c-1.2 0-2.3.4-2.3.9s1.1.9 2.3.9zm181.4-10c1.2 0 2.3-.4 2.3-.9s-1-.9-2.3-.9c-1.2 0-2.3.4-2.3.9s1.1.9 2.3.9zm245.5-3.6c1.2 0 2.3-.4 2.3-.9s-1-.9-2.3-.9c-1.2 0-2.3.4-2.3.9s1 .9 2.3.9zm90-31c1.2 0 2.3-.4 2.3-.9s-1-.9-2.3-.9c-1.2 0-2.3.4-2.3.9s1 .9 2.3.9zm-5.2 31c1.2 0 2.3-.4 2.3-.9s-1-.9-2.3-.9c-1.2 0-2.3.4-2.3.9s1.1.9 2.3.9zm122-14c1.2 0 2.3-.4 2.3-.9s-1-.9-2.3-.9c-1.2 0-2.3.4-2.3.9s1.1.9 2.3.9zm-88 9c1.2 0 2.3-.4 2.3-.9s-1-.9-2.3-.9c-1.2 0-2.3.4-2.3.9s1.1.9 2.3.9zm253-13c1.2 0 2.3-.4 2.3-.9s-1-.9-2.3-.9c-1.2 0-2.3.4-2.3.9s1.1.9 2.3.9zm-53-2c1.2 0 2.3-.4 2.3-.9s-1-.9-2.3-.9c-1.2 0-2.3.4-2.3.9s1.1.9 2.3.9zm-285.4 11.9c1.2 0 2.3-.4 2.3-.9s-1-.9-2.3-.9c-1.2 0-2.3.4-2.3.9s1 .9 2.3.9zm345 14c1.2 0 2.3-.4 2.3-.9s-1-.9-2.3-.9c-1.2 0-2.3.4-2.3.9s1 .9 2.3.9zM1544.6 351c1.2 0 2.3-.4 2.3-.9s-1-.9-2.3-.9c-1.2 0-2.3.4-2.3.9s1 .9 2.3.9zm-333.9 27.1c.7 0 1.4-.4 1.4-.9s-.6-.9-1.4-.9c-.7 0-1.4.4-1.4.9s.6.9 1.4.9zm-82.2 3.6c.7 0 1.4-.4 1.4-.9s-.6-.9-1.4-.9c-.7 0-1.4.4-1.4.9s.7.9 1.4.9zM1319 369c.7 0 1.4-.4 1.4-.9s-.6-.9-1.4-.9c-.7 0-1.4.4-1.4.9s.6.9 1.4.9zm164.2-2.7c.7 0 1.4-.4 1.4-.9s-.6-.9-1.4-.9c-.7 0-1.4.4-1.4.9s.7.9 1.4.9zm98.4 6.3c.7 0 1.4-.4 1.4-.9s-.6-.9-1.4-.9c-.7 0-1.4.4-1.4.9s.6.9 1.4.9zm27.9 8.2c.7 0 1.4-.4 1.4-.9s-.6-.9-1.4-.9c-.7 0-1.4.4-1.4.9.1.5.7.9 1.4.9zm142-8c.7 0 1.4-.4 1.4-.9s-.6-.9-1.4-.9c-.7 0-1.4.4-1.4.9.1.5.7.9 1.4.9zm49 6c.7 0 1.4-.4 1.4-.9s-.6-.9-1.4-.9c-.7 0-1.4.4-1.4.9.1.5.7.9 1.4.9zm-78-36c.7 0 1.4-.4 1.4-.9s-.6-.9-1.4-.9c-.7 0-1.4.4-1.4.9.1.5.7.9 1.4.9zm-67.8 51.5c.7 0 1.4-.4 1.4-.9s-.6-.9-1.4-.9c-.7 0-1.4.4-1.4.9s.6.9 1.4.9zm58.6-11.7c.7 0 1.4-.4 1.4-.9s-.6-.9-1.4-.9c-.7 0-1.4.4-1.4.9s.7.9 1.4.9zm261-41c.7 0 1.4-.4 1.4-.9s-.6-.9-1.4-.9c-.7 0-1.4.4-1.4.9s.7.9 1.4.9zm0 19c.7 0 1.4-.4 1.4-.9s-.6-.9-1.4-.9c-.7 0-1.4.4-1.4.9s.7.9 1.4.9zm-46 4c.7 0 1.4-.4 1.4-.9s-.6-.9-1.4-.9c-.7 0-1.4.4-1.4.9s.7.9 1.4.9zm-249.3 8c.7 0 1.4-.4 1.4-.9s-.6-.9-1.4-.9c-.7 0-1.4.4-1.4.9s.7.9 1.4.9zm-386.2 3.6c.7 0 1.4-.4 1.4-.9s-.6-.9-1.4-.9c-.7 0-1.4.4-1.4.9s.6.9 1.4.9zm-146.2 8.2c.7 0 1.4-.4 1.4-.9s-.6-.9-1.4-.9c-.7 0-1.4.4-1.4.9s.6.9 1.4.9zm34.3-9.1c.7 0 1.4-.4 1.4-.9s-.6-.9-1.4-.9c-.7 0-1.4.4-1.4.9s.6.9 1.4.9zM1383 369c.7 0 1.4-.4 1.4-.9s-.6-.9-1.4-.9c-.7 0-1.4.4-1.4.9s.7.9 1.4.9zm-123.6 8.1c.7 0 1.4-.4 1.4-.9s-.6-.9-1.4-.9c-.7 0-1.4.4-1.4.9s.6.9 1.4.9z"/><path d="M1018.9 418.7c5 0 9-.4 9-.9s-4-.9-9-.9-9 .4-9 .9 4 .9 9 .9zm22.1-10c3.2 0 5.9-.4 5.9-.9s-2.6-.9-5.9-.9c-3.3 0-5.9.4-5.9.9s2.7.9 5.9.9zm-22.1-25.2c1.5 0 2.7-.2 2.7-.5 0-.2-1.2-.5-2.7-.5-1.5 0-2.7.2-2.7.5s1.2.5 2.7.5zm48.7 12.6c1.5 0 2.7-.2 2.7-.5s-1.2-.5-2.7-.5c-1.5 0-2.7.2-2.7.5s1.2.5 2.7.5zm19.9 6.3c1.5 0 2.7-.2 2.7-.5 0-.2-1.2-.5-2.7-.5-1.5 0-2.7.2-2.7.5s1.2.5 2.7.5zm-21.7 11.8c1.5 0 2.7-.4 2.7-.9s-1.2-.9-2.7-.9c-1.5 0-2.7.4-2.7.9s1.2.9 2.7.9zm-137.6 9c3.2 0 5.9-.4 5.9-.9s-2.6-.9-5.9-.9c-3.3 0-5.9.4-5.9.9s2.7.9 5.9.9zm-25.7 13.5c5 0 9-.4 9-.9s-4-.9-9-.9-9 .4-9 .9 4 .9 9 .9zm93.8 40.6c11 0 19.9-.8 19.9-1.8s-8.9-1.8-19.9-1.8c-11 0-19.9.8-19.9 1.8.1 1 9 1.8 19.9 1.8zm117.4 23.5c5.5 0 9.9-.6 9.9-1.4 0-.8-4.4-1.4-9.9-1.4s-9.9.6-9.9 1.4c0 .8 4.4 1.4 9.9 1.4zm-47.9 28.9c3.5 0 6.3-.6 6.3-1.4 0-.8-2.8-1.4-6.3-1.4s-6.3.6-6.3 1.4c0 .8 2.8 1.4 6.3 1.4zm-198.5-1.8c3.5 0 6.3-.6 6.3-1.4 0-.8-2.8-1.4-6.3-1.4s-6.3.6-6.3 1.4c0 .8 2.8 1.4 6.3 1.4zm91.1-68.6c3.5 0 6.3-.6 6.3-1.4 0-.7-2.8-1.4-6.3-1.4s-6.3.6-6.3 1.4c0 .8 2.8 1.4 6.3 1.4zm-37 3.6c3.5 0 6.3-.4 6.3-.9s-2.8-.9-6.3-.9-6.3.4-6.3.9 2.8.9 6.3.9zm157.1 28c3.5 0 6.3-.4 6.3-.9s-2.8-.9-6.3-.9-6.3.4-6.3.9 2.8.9 6.3.9zm-140.8-1.8c3.5 0 6.3-.4 6.3-.9s-2.8-.9-6.3-.9-6.3.4-6.3.9 2.8.9 6.3.9zm18.5-52.4c3.7 0 6.8-.4 6.8-.9s-3-.9-6.8-.9c-3.7 0-6.8.4-6.8.9s3 .9 6.8.9zm-61.8-9c2.5 0 4.5-.4 4.5-.9s-2-.9-4.5-.9-4.5.4-4.5.9 2 .9 4.5.9zm-45.2 12.6c2.5 0 4.5-.4 4.5-.9s-2-.9-4.5-.9-4.5.4-4.5.9 2 .9 4.5.9z" fill="#A1D6FF"/><path fill="#5A9C4B" d="M1492 549h3v-34.7c-2 0-3.2 1.2-3 2.7v32z"/><path fill="#E3EAD3" d="M58.2 524h25.2l18-18H137l22 22v52H33v-30.8z"/><path fill="#FFF" d="M83.6 524H58.3l-7.2 8h25.2zm67.4 56h8v-55.1L140.8 506h-39.7l-5.4 6h39.7l15.6 16.5z"/><path fill="#C4D7B6" d="M55.8 544H91v-8.1l9.9-9.9H125l18 18v30H45v-19.4z"/><path fill="#E3EAD3" d="M1975.8 533h-13.3l-8.8-9h-30.4l-24.4 23.9-9.1.1 28.4-29h-.1l-30.3 31h25.6l16-16h7.8l16 16h39.3z"/><path fill="#C4D7B6" d="M1928.4 533l-16 16h41.8l-16-16z"/><path fill="#FFF" d="M1898.9 547.9l24.4-23.9h30.4l-4.9-5h-30.6l-28.4 29z"/><path fill="#5A9C4B" d="M1875.8 541l13.3-13.6c-.9-.2-1.8-.4-2.8-.4h-.9c-5.5.2-10.3 3.6-12.4 8.5-2.1-4.9-6.8-8.3-12.4-8.5h-.9c-.9 0-1.9.2-2.8.4l13.3 13.6h5.6zM1555 561h3v-31.8c-.3-1.3-1.3-2.3-2.6-2.2h-.4v34zm-7 12h3v-31.6c.3-1.5-.8-2.7-3-2.7V573zm-63-24h3v-21.1c-1.4 0-2.5 1.2-3 2.7V549z"/><path fill="#6FBF5C" d="M471.1 575.8c-2.7.8-5.4 1.2-8.2 1.2h-7.8c-3.2 0-6.4-.5-9.5-1.5-9-3.1-20.7-5.7-33.2-7.7-5-.8-9.9-1.8-14.9-2.9-16.7-3.7-34.1-5.6-51.9-5.6-21.4 0-42.2 2.8-61.9 8.1-.8.1-1.5.3-2.2.4-1.9.4-3.6 1-5.3 1.7-8 2.4-15.8 5.2-23.4 8.4-.5-.2-.9-.5-1.4-.8-35.8-21.1-77.5-33.2-122.1-33.2-40.8-.1-79.3 10.1-113 28.1-5 2.7-10.3 5.8-16.3 8.8V636h2000V534.5c-14.5 2.8-28.5 6.9-41.9 12.2-6 2.4-12.5 2.6-18.7 1-20.3-5.5-41.7-8.5-63.7-8.5-31.8 0-62.1 6.2-90 17.4-20.2-11.8-42.1-22.3-65.6-27.3-14.5-3.1-35.7-5.7-51-5.7-5.1 0-10.1.2-15.1.5-37 1.6-71.8 11.5-102.7 27.9-1.3.7-2.8 1.1-4.3 1.2-2.5.1-5.1-.1-7.6-.7-17.4-4-35.6-6.2-54.2-6.2-31 0-60.8 5.9-88.1 16.6-6 2.4-12.5 2.6-18.7 1-20.3-5.5-41.7-8.5-63.7-8.5-33.7 0-65.6 6.9-94.8 19.3-3.7 1.5-7.7 2.4-11.6 2.4h-112.1c-5.2 0-10.3-1.4-14.8-4-35.8-21.1-77.5-33.2-122.1-33.2-40.9 0-79.3 10.2-113.1 28.1-6 3.2-12.7 4.2-19.3 3-14.1-2.5-28.6-3.9-43.5-3.9-22.6 0-44.4 3.1-65.2 8.9-2.5.7-5.2 1.1-7.9 1.1h-95.2c-2.8 0-5.6-.4-8.2-1.2H471.1v-.1z"/><path fill="#5A9C4B" d="M1958.1 558.7c-6 2.4-12.5 2.6-18.7 1-20.3-5.5-41.7-8.5-63.7-8.5-30.2 0-59 5.6-85.7 15.7-2.8 1.1-5.9.8-8.4-.7-19.3-11-41.6-21.8-63.6-26.5-14.5-3.1-33.6-4.2-48.9-4.2-5.1 0-10.1.2-15.1.5-37 1.6-71.8 11.5-102.7 27.9-1.3.7-2.8 1.1-4.3 1.2-2.5.1-5.1-.1-7.6-.7-17.4-4-35.6-6.2-54.2-6.2-31 0-60.8 5.9-88.1 16.6-6 2.4-12.5 2.6-18.7 1-20.3-5.5-41.7-8.5-63.7-8.5-33.7 0-65.6 6.9-94.8 19.3-3.7 1.5-7.7 2.4-11.6 2.4h-112.1c-5.2 0-10.3-1.4-14.8-4-35.8-21.1-77.5-33.2-122.1-33.2-40.9 0-79.3 10.2-113.1 28.1-6 3.2-12.7 4.2-19.3 3-14.1-2.5-28.6-3.9-43.5-3.9-22.6 0-44.4 3.1-65.2 8.9-2.5.7-5.2 1.1-7.9 1.1h-95.2c-2.8 0-5.6-.4-8.2-1.2-21.6-6.3-44.4-9.7-68-9.7s-46.4 3.4-68 9.7c-2.7.8-5.4 1.2-8.2 1.2h-7.8c-3.2 0-6.4-.5-9.5-1.5-9-3.1-20.7-5.7-33.2-7.7-5-.8-9.9-1.8-14.9-2.9-16.7-3.7-34.1-5.6-51.9-5.6-21.4 0-42.2 2.8-61.9 8.1-.8.1-1.5.3-2.2.4-1.9.4-3.6 1-5.3 1.7-8 2.4-15.8 5.2-23.4 8.4-.5-.2-.9-.5-1.4-.8-35.8-21.1-77.5-33.2-122.1-33.2-40.9 0-79 10.9-113.1 28.1-4 2-16.3 7.8-16.3 7.8V648h2000V546.5c-14.2 2.8-28.2 6.9-41.6 12.2z"/><path fill="#447337" d="M536.1 574.3l-108 6.2c-1.5.1-3 .4-4.4 1-33.9 13.5-20.9 24.5 28.8 24.5H558c43.2 0 121-3 150-19.4l-159.9-12.2c-4-.2-8-.3-12-.1z"/><path fill="#6FBF5C" d="M1346.9 491.8c2.2 0 4.1-.6 4.1-1.4 0-.8-1.8-1.4-4.1-1.4s-4.1.6-4.1 1.4c0 .8 1.9 1.4 4.1 1.4zm75.8-40.6c2.2 0 4.1-.6 4.1-1.4 0-.8-1.8-1.4-4.1-1.4s-4.1.6-4.1 1.4c0 .8 1.9 1.4 4.1 1.4zm419 58c2.2 0 4.1-.6 4.1-1.4 0-.8-1.8-1.4-4.1-1.4s-4.1.6-4.1 1.4c0 .8 1.9 1.4 4.1 1.4zm-53-39c2.2 0 4.1-.6 4.1-1.4 0-.8-1.8-1.4-4.1-1.4s-4.1.6-4.1 1.4c0 .8 1.9 1.4 4.1 1.4zm187-29c2.2 0 4.1-.6 4.1-1.4 0-.8-1.8-1.4-4.1-1.4s-4.1.6-4.1 1.4c0 .8 1.9 1.4 4.1 1.4zm-722.6 78.6c2.2 0 4.1-.6 4.1-1.4 0-.8-1.8-1.4-4.1-1.4s-4.1.6-4.1 1.4c0 .8 1.8 1.4 4.1 1.4z"/><path fill="#447337" d="M1501 399.9l13 4.5V399h-13zm-6 28l13 4.5V427h-13z"/><path fill="#544463" d="M2000 694v-63.3c-20.4-5.6-41.9-8.6-64.1-8.6-23.5 0-46.2 3.4-67.7 9.7-35.9-21.2-77.6-33.3-122.2-33.3-40.7 0-79 10.1-112.7 27.9-22.8-8.8-47.5-13.6-73.3-13.6-25.3 0-49.5 4.6-71.8 13.1-34.6-19.2-74.3-30.1-116.6-30.1-32.3 0-63.1 6.4-91.2 17.9-31-19-67.3-29.9-106.3-29.9-37.7 0-73 10.2-103.2 28.1-26.1.3-51 5.5-73.8 14.7-14.9-2.9-30.3-4.4-46-4.4-21.7 0-42.6 2.9-62.6 8.3-.9-.4-1.8-.8-2.6-1.3-35.9-21.1-77.6-33.3-122.2-33.3-40.9 0-79.4 10.2-113.1 28.2-.9.5-1.9.9-2.9 1.3-20.3-6.8-42-10.4-64.5-10.4-30 0-58.6 6.5-84.2 18.2h-79.6c-2.8 0-5.6-.4-8.2-1.2-21.6-6.3-44.4-9.8-68-9.8-23.5 0-46.2 3.4-67.7 9.7-35.9-21.2-77.6-33.3-122.2-33.3-38.1 0-74.2 8.9-106.3 24.7-14.8-6.1-30.4-10.5-46.7-13V694H2000z"/><path fill="#230545" d="M2000 700v-63.3c-20.4-5.6-41.9-8.6-64.1-8.6-23.5 0-46.2 3.4-67.7 9.7-35.9-21.2-77.6-33.3-122.2-33.3-40.7 0-79 10.1-112.7 27.9-22.8-8.8-47.5-13.6-73.3-13.6-25.3 0-49.5 4.6-71.8 13.1-34.6-19.2-74.3-30.1-116.6-30.1-32.3 0-63.1 6.4-91.2 17.9-31-19-67.3-29.9-106.3-29.9-37.7 0-73 10.2-103.2 28.1-26.1.3-51 5.5-73.8 14.7-14.9-2.9-30.3-4.4-46-4.4-21.7 0-42.6 2.9-62.6 8.3-.9-.4-1.8-.8-2.6-1.3-35.9-21.1-77.6-33.3-122.2-33.3-40.9 0-79.4 10.2-113.1 28.2-.9.5-1.9.9-2.9 1.3-20.3-6.8-42-10.4-64.5-10.4-30 0-58.6 6.5-84.2 18.2h-79.6c-2.8 0-5.6-.4-8.2-1.2-21.6-6.3-44.4-9.8-68-9.8-23.5 0-46.2 3.4-67.7 9.7-35.9-21.2-77.6-33.3-122.2-33.3-38.1 0-74.2 8.9-106.3 24.7-14.8-6.1-30.4-10.5-46.7-13V700H2000z"/><path fill="#8ACCFF" d="M796 462c-41-7-52.9-13.4-56.2-14.8-2.5-1-2.5-2.5 0-3.6 4.3-1.9 13.6-4.7 23.8-6l278.7-37.6c4.1-.6 6.8-4 6.8-5.5-.6.3-1.2.6-1.9.9-1.8.6-4.6 1.2-8.4 1.8l-10.7 1.3L875.4 419s-91.8 11.9-122.4 15.9c-3.3.4-6.3 1.1-8.9 1.8-4.7 1.4-8.2 3.2-10 4.9-1.6 1.5-2.3 3.7-.6 5.1 1.1.9 8.6 6.1 20.6 9.1 9.8 2.4 25.4 5 36.2 5.8.6 0 2 .3 3.2.4h2.5z"/><path fill="#E3EAD3" d="M862.4 473.4l-9.5-9.4H845v-10h-15.4l-5-5H805l-13 13z"/><path fill="#C4D7B6" d="M823 462.5l-4.5-4.5h-14l-5.1 5.2 37.5 6.3-6.9-7z"/><path fill="#FFF" d="M821.7 452l4.5 5H841v9h5.5l6.3 5.8 9.7 1.7-9.7-9.5H845v-10h-15.4l-5-5H805l-3 3z"/><path fill="#5A9C4B" d="M862.4 473.4L792 462l-15.6 7.3c-.7.4-1.1 1.1-1.1 1.9 0 1.3 1 2.3 2.3 2.5l46.5 3.7c8.7.8 22.2 0 31.8-1.7 2.2-.4 4.4-1.2 6.5-2.3zM762.1 474c-2.2 0-4.4.5-6.3 1.5l-3.2 1.7c-2.3 1.2-2.3 2.2 0 2.2s6-1 8.3-2.2l2-1.1c1.1-.5.7-2.2-.5-2.2h-.3v.1z"/><path fill="#447337" d="M761 450v23.7c-.2 1 .2.9.7.9.5 0 .9.1 1.3-.9V450h-2z"/><path fill="#DE5833" d="M761.7 456.6c3 0 5.4-2.4 5.4-5.4 0-3-2.4-5.4-5.4-5.4-3 0-5.4 2.4-5.4 5.4 0 3 2.4 5.4 5.4 5.4z"/><path fill="#FFC16C" d="M761.7 453.9c1.5 0 2.7-1.2 2.7-2.7 0-1.5-1.2-2.7-2.7-2.7-1.5 0-2.7 1.2-2.7 2.7 0 1.5 1.2 2.7 2.7 2.7z"/><path fill="#447337" d="M763.5 466.5c0-3 2.4-5.4 5.4-5.4 0 3-2.4 5.4-5.4 5.4z"/><path fill="#5A9C4B" d="M717 448.9l-2.7-.7c-6.2-1.5-12.5-2.6-18.9-3.1l-1.6-.1-7 5.9c-.6.5 0 1.2.9 1.1l29.3-3.1z"/><path fill="#6FBF5C" d="M1546.3 364.8l-10.9-6c-.8-.5-1.8-.8-2.7-1.2-.8-.3-1.7-.5-2.5-.5h-2.7c-.2 0-.3 0-.5-.1l-3.9-.9h-4v1h-1.8c-1.2 0-.7 1-.4 1.1l29.1 7.3c.5 0 .6-.5.3-.7z"/><path fill="#B37624" d="M1519 335v21c0 .6.9 1 2 1s2-.4 2-1v-21h-4z"/><path fill="#9C452D" d="M1519 339h4v-5h-4z"/><path fill="#5A9C4B" d="M1528.4 323l-8-41.4-6.9 41.4h2.1l-2.1 14h14.9l-2.2-14z"/><path fill="#6FBF5C" d="M1516.9 323l3.5-41.4-7.4 41.4h2l-2 14h3.9l2.1-14z"/><path fill="#B37624" d="M1520 345.6l-3-.9V343h3z"/><g><path fill="#6FBF5C" d="M1822.3 369.8l-10.9-6c-.8-.5-1.8-.8-2.7-1.2-.8-.3-1.7-.5-2.5-.5h-2.7c-.2 0-.3 0-.5-.1l-3.9-.9h-4v1h-1.8c-1.2 0-.7 1-.4 1.1l29.1 7.3c.5 0 .6-.5.3-.7z"/><path fill="#B37624" d="M1795 340v21c0 .6.9 1 2 1s2-.4 2-1v-21h-4z"/><path fill="#9C452D" d="M1795 344h4v-5h-4z"/><path fill="#5A9C4B" d="M1804.4 328l-8-41.4-6.9 41.4h2.1l-2.1 14h14.9l-2.2-14z"/><path fill="#6FBF5C" d="M1792.9 328l3.5-41.4-7.4 41.4h2l-2 14h3.9l2.1-14z"/></g><g><path fill="#5A9C4B" d="M186.8 431l-9.3 9.3c-4.3 4.3-1.3 11.7 4.9 11.7h42.4c3.2 0 6.3-1.3 8.5-3.5l1.9-1.9c2.3-2.3 5.3-3.5 8.5-3.5h8.2c1.8 0 3.6-.7 4.9-2l7.2-7.2V431h-77.2z"/><path fill="#E3EAD3" d="M187 431.7l14.4-14.7h30.7l12.9 13v3h19v-9h-10.2l-11.1-11h-47.2L177 431.7v9.3h10z"/><path fill="#C4D7B6" d="M205 432v-8h9.4l11 11h8c2.3-1.5 5-2.3 7.7-2h3.8v-3.3L232.4 417h-31L187 431.7v9.3h8v-9h10z"/><path fill="#ABBDA0" d="M233.4 435h-5.2l-11-11H205v8h-10v9h26.1c3.8 0 7.4-1.6 10.1-4.2.7-.7 1.4-1.3 2.2-1.8z"/><path fill="#FFF" d="M242.4 413l11 11h10.2l-3.8-3.7-13.2-13.3h-45.4l-3.9 3.9-1.9 2.1zm0 0l11 11z"/></g><path fill="#5A9C4B" d="M445.5 587.6c2.9 1 5.9 1.4 8.9 1.4h8.6c2.8 0 5.6-.4 8.2-1.2 21.6-6.7 44.3-10.2 68-10.2 23.6 0 46.4 3.6 68 10.2 2.7.9 5.4 1.2 8.2 1.2h89.8c5.3-2.2 10.3-4.4 14.6-6.7 3.8-2 3.2-5.8.8-7-.7.2-1.5.4-2.2.6-1.3.4-2.6.6-3.9.8-1.3.2-2.7.3-4 .3h-95.2c-1.4 0-2.8-.1-4.2-.3-1.4-.2-2.7-.5-4-.9-4-1.2-8.1-2.3-12.3-3.3-6.9-1.6-13.9-3-21-4-4.3-.6-8.5-1.1-12.9-1.5-1.4-.1-2.9-.2-4.3-.3-2.9-.2-5.8-.4-8.7-.5-2.9-.1-5.9-.2-8.8-.2-2.9 0-5.9.1-8.8.2-11.7.4-23.2 1.7-34.4 3.7-7 1.3-13.9 2.8-20.7 4.7-1.4.4-2.7.7-4.1 1.1-1.4.4-2.7.7-4.1.9-1.4.2-2.7.3-4.1.3h-7.8c-3.2 0-6.4-.5-9.5-1.5-2-.7-4.2-1.4-6.4-2-5.9 2.2-10.8 5.8-15.7 8.1 8 1.6 15.8 3.9 22 6.1z"/><path fill="#447337" d="M1814.3 507.3c0-4 3.2-7.2 7.2-7.2 0 3.9-3.3 7.2-7.2 7.2z"/><g><path fill="#447337" d="M1813 486h-4v51h4z"/><path fill="#DE5833" d="M1819 483.7v-1.4c.4-.3.8-.5 1.2-.8 2.1-2.1 2.6-10.2 2.6-10.2s-8.1.5-10.2 2.6c-.4.4-.6.7-.8 1.2h-1.4c-.3-.4-.5-.8-.8-1.2-2.1-2.1-10.2-2.6-10.2-2.6s.5 8.1 2.6 10.2c.4.4.7.6 1.2.8v1.4c-.4.3-.8.5-1.2.8-2.1 2.1-2.6 10.2-2.6 10.2s8.1-.5 10.2-2.6c.4-.4.6-.7.8-1.2h1.4c.3.4.5.8.8 1.2 2.1 2.1 10.2 2.6 10.2 2.6s-.5-8.1-2.6-10.2c-.5-.2-.8-.5-1.2-.8z"/><path fill="#FFC16C" d="M1811.3 487.3c2.5 0 4.5-2 4.5-4.5s-2-4.5-4.5-4.5-4.5 2-4.5 4.5 2 4.5 4.5 4.5z"/></g><g><path fill="#5A9C4B" d="M714.5 442h2.4l-5.3-15h2l-5.1-15h1.9l-5.4-15.2-5.4 15.2h2l-5.1 15h2l-5.2 15h2.4l-1.2 3.2 22.5 3.7z"/><path fill="#447337" d="M698.2 442l4.4-15h-2.2l4.3-15h-1.9l2.1-15.2-5.6 15.2h1.9l-5.1 15h2.1l-5.3 15h2l-1.1 3 4.3.8 10.5-3.8z"/><path fill="#447337" d="M699 430l10.3-3H699zm2-15.9l5.4-2.1H701z"/></g><g><path fill="#5A9C4B" d="M227.5 479H215l11.7-6.2c.4-.3.2-.8-.4-.8h-7.9l-13.2 7h-12.5c-1.5 0-3.4.5-4.1 1.1L151 509.5v1.7l77.3-31.3c1-.5.8-.9-.8-.9z"/><path fill="#9C452D" d="M230 437v5h-5v31.1c-2.8 0-5-.2-5-1.4V437h10z"/><path fill="#B37624" d="M230 442v29.6c0 1.2-2.2 1.4-5 1.4v-31h5z"/><path fill="#447337" d="M244.6 407l-5.4-31h3.4l-16.5-82.3L208 376h2.8l-6.2 31h6.5l-5.9 30H244l-5.4-30z"/><path d="M226.1 293.5l10.7 82.5h7.3zm14.4 82.5h-8l3.2 31h-5.5l5.6 30h10.4l-5.6-30h5.8z" fill="#5A9C4B"/></g><g><path fill="#6FBF5C" d="M768.9 398H763l4.1-1h-3.6l-4.5 1h-4.3c-1.4.5-2.7.9-3.9 1.6l-10.9 6c-.4.2-.2.7.3.6l29.1-7.3c.3 0 .7-.9-.4-.9z"/><path fill="#B37624" d="M763 376v20.9c.5.4 1.3.6 2.3.6 1 0 1.8-.3 1.7-.6V376h-4z"/><path fill="#9C452D" d="M767 375h-4v5h4z"/><path fill="#B37624" d="M766 386.4l3-.9V384h-3z"/><path fill="#5A9C4B" d="M757.8 364l8.1-41.4 6.9 41.4h-2.2l2.2 14h-15l2.3-14z"/><path fill="#6FBF5C" d="M769.3 364l-3.6-41.4 7.6 41.4h-2.2l2.2 14h-4l-2.2-14z"/></g><g><path fill="#6FBF5C" d="M194.9 398H189l4.1-1h-3.6l-4.5 1h-4.3c-1.4.5-2.7.9-3.9 1.6l-10.9 6c-.4.2-.2.7.3.6l29.1-7.3c.3 0 .7-.9-.4-.9z"/><path fill="#B37624" d="M189 376v20.9c.5.4 1.3.6 2.3.6 1 0 1.8-.3 1.7-.6V376h-4z"/><path fill="#9C452D" d="M193 375h-4v5h4z"/><path fill="#B37624" d="M192 386.4l3-.9V384h-3z"/><path fill="#5A9C4B" d="M183.8 364l8.1-41.4 6.9 41.4h-2.2l2.2 14h-15l2.3-14z"/><path fill="#6FBF5C" d="M195.3 364l-3.6-41.4 7.6 41.4h-2.2l2.2 14h-4l-2.2-14z"/></g><g><path fill="#5A9C4B" d="M180.5 514.3l1.2-.6c.5-.2 1-.5 1.4-.6h2.3c0 .2-.2.4-.7.7l-1.2.6c-.7.4-1.4.7-2.2.8-.3.1-.5.1-.8.1-.9 0-.9-.5 0-1z"/><path fill="#447337" d="M185.3 513v-14h-2v14z"/><path fill="#DE5833" d="M189.1 496.7c0-2.5-2-4.5-4.5-4.5s-4.5 2-4.5 4.5 2 4.5 4.5 4.5 4.5-2 4.5-4.5z"/><path fill="#FFC16C" d="M186.4 496.7c0-1-.8-1.8-1.8-1.8s-1.8.8-1.8 1.8.8 1.8 1.8 1.8 1.8-.8 1.8-1.8z"/><path fill="#447337" d="M179.2 504.9c2 0 3.6 1.6 3.6 3.6-2 0-3.6-1.7-3.6-3.6z"/></g><g><path fill="#5A9C4B" d="M253.5 434.3l1.2-.6c.5-.2 1-.5 1.4-.6h2.3c0 .2-.2.4-.7.7l-1.2.6c-.7.4-1.4.7-2.2.8-.3.1-.5.1-.8.1-.9 0-.9-.5 0-1z"/><path fill="#447337" d="M258.3 433v-14h-2v14z"/><path fill="#DE5833" d="M262.1 416.7c0-2.5-2-4.5-4.5-4.5s-4.5 2-4.5 4.5 2 4.5 4.5 4.5c2.5.1 4.5-2 4.5-4.5z"/><path fill="#FFC16C" d="M259.4 416.7c0-1-.8-1.8-1.8-1.8s-1.8.8-1.8 1.8.8 1.8 1.8 1.8 1.8-.8 1.8-1.8z"/><path fill="#447337" d="M252.2 424.9c2 0 3.6 1.6 3.6 3.6-2 0-3.6-1.7-3.6-3.6z"/></g><g><path fill="#5A9C4B" d="M397.5 445.3l1.2-.6c.5-.2 1-.5 1.4-.6h2.3c0 .2-.2.4-.7.7l-1.2.6c-.7.4-1.4.7-2.2.8-.3.1-.5.1-.8.1-.9 0-.9-.5 0-1z"/><path fill="#447337" d="M402.3 444v-14h-2v14z"/><path fill="#DE5833" d="M406.1 427.7c0-2.5-2-4.5-4.5-4.5s-4.5 2-4.5 4.5 2 4.5 4.5 4.5c2.5.1 4.5-2 4.5-4.5z"/><path fill="#FFC16C" d="M403.4 427.7c0-1-.8-1.8-1.8-1.8s-1.8.8-1.8 1.8.8 1.8 1.8 1.8 1.8-.8 1.8-1.8z"/><path fill="#447337" d="M396.2 435.9c2 0 3.6 1.6 3.6 3.6-2 0-3.6-1.7-3.6-3.6z"/></g><path fill="#B37624" d="M421.5 485.8c-.8.9-1.6 1.8-2.2 2.8.4.1.7.4.7.9v12.8c0 1.6 1.8 2.5 3 1.8v-17.5c0-.9-1-1.3-1.5-.8z"/><path fill="#5A9C4B" d="M14.3 457c.6 0 1.3-.1 2-.4l44.9-21.7c-5.8.7-11.6 1.2-17.4 1.5-5.4.3-10.9.5-16.3.5l-14 17.2c-1.3 1.3-.9 2.8.8 2.9z"/><g><path fill="#5A9C4B" d="M240.6 473.9c3.3 1.2 11.1 0 17.2-2.8 3.1-1.4 2.8-3.5-.5-4.7-3.3-1.2-8.6-1.1-11.6.3-6.2 2.7-8.5 5.9-5.1 7.2z"/><path fill="#C4D7B6" d="M251.6 461.7c5 0 9 2.5 9 5.6 0 1.5-4.1 2.8-9 2.8-5 0-9-1.3-9-2.8 0-3.1 4.1-5.6 9-5.6z"/><path fill="#E3EAD3" d="M257 469.4c0-3.1-4.1-5.6-9-5.6a16 16 0 0 0-3.9.5c1.6-1.6 4.4-2.7 7.7-2.7 5 0 9 2.5 9 5.6 0 1-1.5 1.9-3.8 2.2z"/></g><g><path fill="#9C452D" d="M528 422.4c6.6-1.3 10.9-7.7 9.6-14.3-1.3-6.6-7.7-10.9-14.3-9.6-6.6 1.3-10.9 7.7-9.6 14.3 1.3 6.6 7.7 10.9 14.3 9.6z"/><g transform="translate(539 367)"><path fill="#B37624" d="M40 25c-2.8 0-5-2.2-5-5v-4c0-2.8 2.2-5 5-5s5 2.2 5 5v4c0 2.8-2.2 5-5 5z"/><path fill="#CC8729" d="M71.2 5.3c-.6-2.9-3.7-4.8-6.9-4.2l-2.2.4c-1.7.3-2.7 2-2.1 3.5.5 1.1 1.8 1.7 3.1 1.4l2.6-.5L68 17l6.3 2.9-3.1-14.6z"/><path fill="#B37624" d="M34.9 5.3c.6-2.9 3.7-4.8 6.9-4.2l2.2.4c1.7.3 2.7 2 2.1 3.5-.5 1.1-1.8 1.7-3.1 1.4l-2.6-.5-3.7 18.4-6.9 5.5 5.1-24.5z"/><path fill="#544463" d="M64.9 2H44c-2.2 0-4.1 1.8-4.1 4.1V17c0 2.3 1.8 4.1 4 4.1h20.9c2.2 0 4.1-1.8 4.1-4.1V6.1c.1-2.3-1.7-4.1-4-4.1z"/><path fill="#B6DDFC" d="M40 6.7C40 5.2 41.2 4 42.7 4h19.6C63.7 4 65 5.2 65 6.7v10.7c0 1.4-1.2 2.7-2.7 2.7H42.7c-1.4 0-2.7-1.2-2.7-2.7V6.7z"/><path fill="#5A9C4B" d="M65 13.1l-1.4-.9c-.2-.1-.5-.2-.7-.2-.2 0-.5.1-.7.2L57 15.4l-2.6-1.6c-.2-.1-.5-.2-.7-.2-.2 0-.5.1-.7.2l-2.4 1.5-4.9-3c-.2-.1-.5-.2-.7-.2-.2 0-.5.1-.7.2l-4.2 2.6v4.2h25v-6H65z"/><path fill="#230545" d="M62.9 2H42c-2.2 0-4.1 1.8-4.1 4.1V17c0 2.3 1.8 4.1 4 4.1h20.9c2.2 0 4.1-1.8 4.1-4.1V6.1c.1-2.3-1.7-4.1-4-4.1zM64 17.7c0 .7-.5 1.2-1.2 1.3H42.3c-.7 0-1.4-.6-1.4-1.4V6.1c0-.6.5-1.2 1.2-1.2h19.6c1.2 0 2.3 1 2.3 2.3v10.5z"/><circle cx="50" cy="9" r="2" fill="#FFC445"/><path fill="#CC8729" d="M70 17h-3.6c-.7 0-1.3-.3-1.7-.9L62 12c-.8-1.2-2.5-1.5-3.7-.7-1.2.8-1.5 2.5-.7 3.7l5.2 7.7c.8 1.3 2.6 1.7 3.9.8.5-.4.8-.9 1-1.5h2.4v-5H70z"/><path fill="#B37624" d="M49.3 17.6c.6-1.4-.1-3.1-1.6-3.6-1.4-.5-2.9.3-3.5 1.7L42 20.4c-.5 1-1.9 1.2-2.6.3 0 0-3.2-4.3-3.4-4.6l-3 5.5c-2.8 5.1-7.3 9.2-12.7 11.4h-.1L3 40.1c-3.7 1.5-3.8 6.7-.1 8.3l6.9 3.1c1.2.6 2.7.5 3.9-.1l18.2-9c3.7-1.8 6.9-4.7 9.1-8.1l.9-1.4c1.1-1.6 2-3.3 2.8-5.1l4.6-10.2z"/><path fill="#CC8729" d="M71.7 17h-9c-2.4 2.8-4.1 6.7-4.3 9.4l7.3 14.3c3.9-2.6 6.8-6.5 8.1-11.1.9-3 1-6.5.4-9.6l-2.5-3z"/></g><path fill="#CC8729" d="M595.3 395.4l-24.8 20.4c-.6.5-1.4.6-2.1.3l-36.2-15c-5.9-2.4-12.4.5-14.3 6.6v.1C516.2 413 519 419 524 421l41.6 17.2c4.8 2 9.5-.5 13.2-4.1l26.9-26.2c.7-.7.8-1.9.2-2.7l-7.6-9.5c-.8-.8-2.1-1-3-.3z"/><path fill="#B37624" d="M605 403.4l-27.4 26.5c-3.7 3.6-8.3 6.1-13.2 4.1l-37.1-15.4-2.1-.9c-4.7-2-7.4-7.4-6.4-12.3-.5.8-.9 1.6-1.2 2.5v.1c-1.6 4.7.7 10.1 4.8 12.6.2.1.4.2.5.3.2.1.5.2.7.4l41.6 17.2c4.8 2 9.5-.5 13.2-4.1l25.7-25.1c1.6-1.5 2.1-4 .9-5.9z"/><path d="M607.9 406.4c.2-2.3-1-5.5-3.2-8.2-2.8-3.5-6.6-5.3-9-4.6-.3.1-.7.3-1 .5-.2.2-.2.5-.2.5.1.2.2.4.5.5 2.4.5 5.2 2.4 7.2 4.9 2.2 2.6 3.4 5.7 3.4 8.2 0 .2.1.4.4.6.2.1.5 0 .7 0h.1c.5-.5.9-1.3 1.1-2.4zm17.3 168L503.9 392.8c-1.1-1.6-3.3-2.1-5-1-1.6 1.1-2.1 3.3-1 5.1l121.3 181.6c1.1 1.6 3.3 2.1 5.1 1 1.6-1.2 2-3.5.9-5.1z" fill="#FFF"/><path fill="#230545" d="M503 389v-22h-18.1c-1.5.4-3.1 1-4.3 2-5.7 4.6-8.1 11.5-8.1 17.1 0 11.9 10.3 21.7 22.9 21.7 4.5 0 8.1 3.4 8.6 7.7v14.7c8.2-3.1 14.4-11 14.4-20.3 0-9.9-6.8-18.1-15.4-20.9z"/><path fill="#FFF" d="M448.9 362.1c-1.4-.1-2.7-.2-4.1-.4-2.9-.4-5.8-.9-8.9-1.2-3.1-.3-6.3 0-9.3.8-1.5.5-3 .9-4.4 1.7-1.4.7-2.8 1.7-3.9 2.8-2.3 2.3-3.8 5.1-5.1 7.9-1.3 2.7-2.3 5.4-3.9 7.9-1.4 2.4-3.3 4.7-5.5 6.6-4.3 3.8-9.8 6.2-15.4 7.9-5.6 1.6-11.5 2.5-17.4 3.1v.4c6-.3 11.8-.9 17.7-2.3 2.9-.7 5.8-1.6 8.5-2.9 2.7-1.3 5.4-2.7 7.8-4.7 2.3-1.9 4.4-4.2 6-6.9 1.7-2.5 2.9-5.3 4.2-7.9 1.3-2.6 2.7-5.1 4.7-7 1-.9 2.1-1.6 3.3-2.3 1.3-.6 2.5-1 3.9-1.4 2.7-.6 5.5-.7 8.3-.4 2.8.4 5.7 1 8.7 1.5 3 .5 6.1.7 9.3.4 1.2-.1 2.8-.4 3.9-.6l-8.4-3z"/><path fill="#C4D7B6" d="M478.4 337c-.4 1.2-.7 2.3-1.2 3.4-1 2.8-2.3 5.4-3.7 7.9-1.5 2.7-3.4 5.1-5.6 7.1-1.9 1.7-4 3.2-6.3 4.2-2.5 1.2-5.2 1.8-7.9 2.2-1.4.2-3.4.3-4.8.3l8.4 3c1.9-.5 4.1-1.2 5.8-2.1 2.9-1.4 5.4-3.4 7.5-5.7.1-.1.2-.3.4-.5 2-2.3 3.5-4.7 4.7-7.3 1.9-4 3.1-8.2 3.8-12.5h-1.1z"/><path fill="#FFF" d="M490 374.5l-7.7 1.9c-2.9 1.1-6.2 1.5-9.6 2.4-1.8.5-3.7 1.2-5.4 2-1.7.9-3.4 2-4.8 3.3-2.8 2.7-5 6-6 9.7-.5 1.8-.8 3.8-.6 5.7.1 1.5.7 3.1 1.4 4.5h.1c-1-3.2-.9-6.8.3-9.8 1.3-3.4 3.5-6.4 6.2-8.7 2.7-2.3 6-3.6 9.7-4.4 1.8-.4 3.6-.6 5.4-1 1.9-.4 3.8-.7 5.7-1.4 1.9-.7 4-1.8 5.1-3.7 0-.2.2-.5.2-.5z"/><path fill="#C4D7B6" d="M491.2 357.3c-.5-1.8-1.2-3.5-1.8-5.2-.7-1.8-1.5-3.6-2.4-5.3-1.4-2.7-2.9-5.2-4.6-7.8h-1c1.9 5.1 3.8 10.1 5.3 15.2.4 1.4.7 2.7 1.1 4.1.8 3.5 1.4 7 .9 10.3-.2 1.6-.7 3.2-1.6 4.4-.9 1.3-2.2 2.3-3.7 3-.4.2-.7.4-1.1.5l7.7-1.9c1.2-1.6 1.9-3.5 2.3-5.3.6-4.3-.1-8.3-1.1-12z"/><path fill="#FFF" d="M478.6 333c-2 0-3.6 1.6-3.6 3.6v1.3c0 1.9 1.4 3.4 3.3 3.6.4 0 1.5.1 1.9.1 2.1.1 3.8-1.5 3.8-3.6v-1.4c0-2-1.6-3.6-3.6-3.6h-1.8z"/></g></g></svg>